<?xml version="1.0" encoding="utf-8"?>
<!-- Generator: Adobe Illustrator 23.0.3, SVG Export Plug-In . SVG Version: 6.00 Build 0)  -->
<svg version="1.1" id="logo-nomios_1_" xmlns="http://www.w3.org/2000/svg" xmlns:xlink="http://www.w3.org/1999/xlink" x="0px"
	 y="0px" viewBox="0 0 164 60" style="enable-background:new 0 0 164 60;" xml:space="preserve">
<style type="text/css">
	.st0{fill-rule:evenodd;clip-rule:evenodd;fill:#BFA489;}
</style>
<path id="_x3C_path_x3E_" class="st0" d="M34.7,7.2l-2.3,2.3l-7.6,7.7c0.5-0.1,1-0.1,1.6-0.1c1.4,0,2.5,0.3,3.4,0.7
	c0,0,0.4,0.1,1.1,0.6c0.4,0.2,0.7,0.5,0.9,0.7c0.8,0.7,1.8,1.7,3,3.2V7.2z M31.1,20.8c-0.4-0.5-1.9-2.1-4.8-2.1c-2.5,0-4,1-4.6,1.5
	l-0.1,0.1v12.9l0,0l4.8,4.8l1.6-1.6c0,0,0,0,0,0l-0.7-0.7c-0.5-0.7-1.1-1.9-0.7-3.1l2.5,2.5c0.5-0.7,0.9-1.4,1.2-2.2l-2.3-2.3
	c0.4-0.4,0.8-0.9,1.1-1.3l1.7,1.7c0.1-0.6,0.2-1.2,0.2-1.7c0,0,0-0.7,0-1.7l-0.6-0.6c0,0,0,0,0,0c0.4-1,0.6-2.1,0.6-3.1L31.1,20.8z
	 M25.6,41.2l-3.5,3.5c-1.8,1.8-2.9,4-3.2,6.5l5.2-5.2c0.9-0.9,1.4-2.2,1.4-3.5V41.2z M25.6,46.8l-3.5,3.5c-1.8,1.8-2.9,4-3.2,6.5
	l5.2-5.2c0.9-0.9,1.4-2.2,1.4-3.5V46.8z M18.2,47.9L18.2,47.9c0.6-1.6,1.6-3.1,2.9-4.4l1.5-1.5l-1.2-1.2c-0.8,0.8-2,1.3-3.2,1.3
	c0,0,0,0,0,0h0c0,0,0,0,0,0c-1.2,0-2.3-0.5-3.2-1.3L13.7,42l1.5,1.5C16.5,44.8,17.5,46.3,18.2,47.9L18.2,47.9
	C18.1,47.9,18.2,47.9,18.2,47.9C18.2,47.9,18.2,47.9,18.2,47.9z M17.3,51.1c-0.3-2.4-1.4-4.7-3.2-6.5l-3.5-3.5v1.2
	c0,1.3,0.5,2.6,1.4,3.5L17.3,51.1z M17.3,56.7c-0.3-2.4-1.4-4.7-3.2-6.5l-3.5-3.5V48c0,1.3,0.5,2.6,1.4,3.5L17.3,56.7z M14.7,33.3
	L14.7,33.3l0-12.9l-0.1-0.1c-0.7-0.6-2.1-1.5-4.6-1.5c-2.8,0-4.3,1.6-4.8,2.1l0,3.2c0,1.1,0.2,2.1,0.6,3.1c0,0,0,0,0,0l-0.6,0.6
	c0,1,0,1.7,0,1.7c0,0.6,0.1,1.2,0.2,1.7l1.7-1.7c0.3,0.4,0.7,0.9,1.1,1.3L6,33c0.3,0.8,0.7,1.5,1.2,2.2l2.5-2.5
	c0.4,1.2-0.2,2.4-0.7,3.1l-0.7,0.7c0,0,0,0,0,0l1.6,1.6L14.7,33.3z M4.6,19.2c0.2-0.2,0.5-0.5,0.9-0.7c0.7-0.5,1.1-0.6,1.1-0.6
	c0.9-0.4,2-0.7,3.4-0.7c0.6,0,1.1,0,1.6,0.1L4,9.6L1.6,7.2v15.1C2.8,20.8,3.8,19.8,4.6,19.2z M22.1,39.2c0.9,0.9,2.3,0.9,3.2,0
	L19,32.8v0.7l0,0v0.9c0,0,0,0,0,0.1c0,1,0.4,1.9,1.1,2.6L22.1,39.2z M16.1,39.6c0.6,0.5,1.3,0.8,2.1,0.8c0.8,0,1.5-0.3,2.1-0.8
	l-1.3-1.3c-0.3-0.3-0.5-0.6-0.7-0.9v0c0,0,0,0,0,0c0,0,0,0,0,0v0c-0.2,0.3-0.5,0.6-0.7,0.9L16.1,39.6z M17.4,34.5v-0.9l0,0v-0.7
	L11,39.2c0.9,0.9,2.3,0.9,3.2,0l2.1-2.1C17,36.5,17.3,35.5,17.4,34.5C17.4,34.5,17.4,34.5,17.4,34.5z M5.5,8.8l10.8,10.9v11.7
	c0,0,1.3,0.1,1.8,0.1h0h0c0.6,0,1.8-0.1,1.8-0.1V19.7L30.8,8.8c-2.7-4.5-7.5-7.2-12.6-7.2c0,0,0,0,0,0c0,0,0,0,0,0
	C12.9,1.6,8.2,4.4,5.5,8.8z M36.3,3.3v30c0,5.2-2,10-5.6,13.7l-5.1,5.3L18.2,60l0,0l0,0l-7.5-7.7l-5.1-5.3C2,43.4,0,38.5,0,33.3v-30
	l4.3,4.4C7.3,2.9,12.5,0,18.2,0h0h0h0h0h0C23.8,0,29,2.9,32,7.7L36.3,3.3z M28,22.5c0.6,0.4,0.6,1.3,0,1.7c-0.4,0.3-1,0.5-1.6,0.5
	s-1.2-0.2-1.6-0.5c-0.6-0.4-0.6-1.3,0-1.7c0.4-0.3,1-0.5,1.6-0.5S27.5,22.3,28,22.5z M11.6,24.2c-0.4,0.3-1,0.5-1.6,0.5
	c-0.6,0-1.2-0.2-1.6-0.5c-0.6-0.4-0.6-1.3,0-1.7c0.4-0.3,1-0.5,1.6-0.5c0.6,0,1.2,0.2,1.6,0.5C12.2,22.9,12.2,23.8,11.6,24.2z
	 M153.1,36.7c0.5,0.6,1.2,1.2,1.8,1.7c0.7,0.5,1.5,0.7,2.3,0.7c1,0,1.8-0.3,2.4-0.8c0.6-0.6,0.9-1.3,0.9-2.2c0-0.7-0.2-1.4-0.6-2
	c-0.4-0.6-1.1-1.2-2-1.8l-3.6-2.4c-0.5-0.3-0.9-0.6-1.2-0.9c-0.4-0.3-0.7-0.6-1-1c-0.3-0.4-0.5-0.7-0.6-1.2
	c-0.2-0.4-0.2-0.9-0.2-1.5c0-0.6,0.1-1.2,0.3-1.8c0.2-0.6,0.6-1.1,1.1-1.5c0.5-0.5,1.2-0.9,2.1-1.2c0.8-0.4,1.9-0.6,3.1-0.9
	c0.6,0,1.1,0,1.5,0.1c0.4,0,0.9,0.1,1.3,0.2s0.8,0.2,1.2,0.3c0.4,0.1,0.9,0.3,1.4,0.5v5h-0.5l-1.7-4c-0.4-0.4-0.9-0.8-1.4-1
	c-0.5-0.2-1.1-0.4-1.7-0.4c-0.9,0-1.6,0.2-2.2,0.7c-0.6,0.5-0.9,1.2-0.9,2.1c0,0.7,0.2,1.4,0.7,1.9c0.4,0.5,1,1,1.8,1.5l3.5,2.3
	c1.1,0.7,1.9,1.4,2.4,2.1c0.5,0.7,0.7,1.7,0.7,2.7c0,0.7-0.1,1.3-0.4,2c-0.3,0.6-0.7,1.2-1.2,1.7c-0.6,0.5-1.3,1-2.2,1.4
	c-0.9,0.4-2,0.8-3.3,1.1c-1.1,0-2.1-0.1-3-0.4c-0.9-0.3-1.8-0.7-2.7-1.3v-5.1h0.4L153.1,36.7z M139.3,39.2c0.7,0,1.3-0.2,1.8-0.7
	c0.5-0.5,1-1.1,1.3-1.9c0.3-0.8,0.6-1.7,0.8-2.8c0.2-1,0.3-2.1,0.3-3.3c0-1.4-0.1-2.8-0.4-4c-0.3-1.2-0.6-2.3-1.1-3.1
	c-0.5-0.9-1-1.6-1.7-2c-0.6-0.5-1.3-0.7-2.1-0.7c-0.7,0-1.3,0.2-1.9,0.7c-0.5,0.5-1,1.1-1.3,1.9c-0.3,0.8-0.6,1.7-0.8,2.8
	c-0.2,1-0.3,2.1-0.3,3.3c0,1.5,0.1,2.8,0.4,4c0.3,1.2,0.6,2.3,1.1,3.1c0.5,0.9,1,1.6,1.7,2C137.9,38.9,138.6,39.2,139.3,39.2z
	 M138.5,39.9c-1.4,0-2.7-0.2-3.8-0.7c-1.1-0.5-2.1-1.1-2.9-2c-0.8-0.8-1.4-1.9-1.9-3.1c-0.4-1.2-0.7-2.5-0.7-3.9
	c0-2.9,0.8-5.2,2.4-6.8c1.6-1.7,4.1-2.8,7.4-3.5c1.4,0,2.7,0.2,3.8,0.7c1.1,0.5,2.1,1.1,2.9,2c0.8,0.8,1.4,1.9,1.9,3.1
	c0.4,1.2,0.7,2.5,0.7,3.9c0,2.9-0.8,5.2-2.4,6.8C144.3,38,141.9,39.2,138.5,39.9z M126.1,38.8l1.7,0.2v0.4h-7.6V39l1.7-0.2V21
	l-1.7-0.2v-0.4h7.6v0.4l-1.7,0.2V38.8z M111.8,22.2l-6.4,17.3h-2.1l-6.7-18v17.2l1.8,0.2v0.4h-4.1V39l1.7-0.2V21l-1.7-0.2v-0.4h6.3
	l5.8,14.7l5.4-14.7h5.9v0.4L116,21v17.8l1.8,0.2v0.4h-7.5V39l1.5-0.2V22.2z M83.8,39.2c0.7,0,1.3-0.2,1.8-0.7s1-1.1,1.3-1.9
	c0.3-0.8,0.6-1.7,0.8-2.8c0.2-1,0.3-2.1,0.3-3.3c0-1.4-0.1-2.8-0.4-4c-0.3-1.2-0.6-2.3-1.1-3.1c-0.5-0.9-1-1.6-1.7-2
	c-0.6-0.5-1.3-0.7-2.1-0.7c-0.7,0-1.3,0.2-1.9,0.7c-0.5,0.5-1,1.1-1.3,1.9C79.3,24,79,24.9,78.8,26c-0.2,1-0.3,2.1-0.3,3.3
	c0,1.5,0.1,2.8,0.4,4c0.3,1.2,0.6,2.3,1.1,3.1c0.5,0.9,1,1.6,1.7,2C82.4,38.9,83.1,39.2,83.8,39.2z M83,39.9c-1.4,0-2.7-0.2-3.8-0.7
	c-1.1-0.5-2.1-1.1-2.9-2c-0.8-0.8-1.4-1.9-1.9-3.1c-0.4-1.2-0.7-2.5-0.7-3.9c0-2.9,0.8-5.2,2.4-6.8c1.6-1.7,4.1-2.8,7.4-3.5
	c1.4,0,2.7,0.2,3.8,0.7c1.1,0.5,2.1,1.1,2.9,2c0.8,0.8,1.4,1.9,1.9,3.1c0.4,1.2,0.7,2.5,0.7,3.9c0,2.9-0.8,5.2-2.4,6.8
	C88.9,38,86.4,39.2,83,39.9z M68.9,39.6L57.3,21.7v17.1l1.9,0.2v0.4h-4.2V39l1.7-0.2V21l-1.7-0.2v-0.4h6.6l8.6,13.2V21l-1.9-0.2
	v-0.4h4.2v0.4L70.9,21v18.6H68.9z"/>
</svg>
