<svg xmlns="http://www.w3.org/2000/svg" viewBox="0 0 155 29"><path d="M139.5 23.8c.8.9 1.6 1.7 2.6 2.4s2.1 1 3.3 1c1.4 0 2.6-.4 3.4-1.2.9-.8 1.3-1.8 1.3-3.1 0-1.1-.3-2-.9-2.8-.6-.8-1.5-1.6-2.9-2.5l-5.1-3.4c-.6-.4-1.2-.9-1.8-1.3-.5-.4-1-.9-1.4-1.4-.4-.5-.7-1.1-.9-1.7-.2-.6-.3-1.3-.3-2.1 0-.9.2-1.8.5-2.6s.9-1.5 1.6-2.2 1.7-1.2 2.9-1.7 2.6-.9 4.3-1.2c.8 0 1.5 0 2.1.1.6.1 1.2.1 1.8.2s1.2.2 1.8.4c.6.2 1.2.4 1.9.7v7h-.7l-2.5-5.6c-.6-.6-1.2-1.1-2-1.4-.7-.3-1.5-.5-2.4-.5-1.3 0-2.3.3-3.2 1-.8.7-1.2 1.7-1.2 2.9 0 1.1.3 1.9.9 2.6.6.7 1.5 1.4 2.6 2.1l5 3.3c1.5 1 2.7 2 3.4 3 .7 1 1.1 2.3 1.1 3.9 0 1-.2 1.9-.5 2.8-.4.9-.9 1.7-1.7 2.4-.8.7-1.8 1.4-3.1 2-1.3.6-2.8 1.1-4.7 1.5-1.6 0-3-.2-4.3-.6-1.2-.4-2.5-1-3.8-1.8v-7.2h.6l2.3 5zm-19.6 3.5c1 0 1.9-.3 2.6-1 .7-.7 1.4-1.6 1.9-2.7s.9-2.4 1.1-3.9c.2-1.5.4-3 .4-4.7 0-2-.2-3.9-.6-5.6-.4-1.7-.9-3.2-1.5-4.4-.7-1.2-1.4-2.2-2.4-2.9s-1.9-1-3-1c-1 0-1.9.3-2.6 1-.8.7-1.4 1.6-1.9 2.7s-.9 2.4-1.1 3.9c-.2 1.5-.4 3-.4 4.7 0 2.1.2 3.9.6 5.7.4 1.7.9 3.2 1.5 4.4.7 1.2 1.4 2.2 2.4 2.9.9.6 1.9.9 3 .9zm-1.2 1.1c-2 0-3.8-.3-5.4-1-1.6-.7-3-1.6-4.1-2.8-1.1-1.2-2-2.6-2.7-4.3-.6-1.7-.9-3.5-.9-5.5 0-4.1 1.1-7.3 3.4-9.7 2.3-2.4 5.8-4 10.6-5 2 0 3.8.3 5.4 1s3 1.6 4.2 2.8c1.1 1.2 2 2.6 2.7 4.3.6 1.7.9 3.5.9 5.5 0 4.1-1.1 7.3-3.4 9.7-2.4 2.3-5.9 4-10.7 5zM101 26.8l2.4.3v.6H92.6v-.6l2.4-.3V1.6l-2.4-.3V.7h10.9v.6l-2.5.3v25.2zM80.7 3.4l-9 24.5h-2.9L59.1 2.5v24.3l2.6.3v.6h-5.8v-.6l2.4-.3V1.6l-2.4-.3V.7h9l8.2 20.8L80.8.7h8.5v.6l-2.5.3v25.2l2.5.3v.6H78.5v-.6l2.2-.3V3.4zM41 27.3c1 0 1.9-.3 2.6-1 .7-.7 1.4-1.6 1.9-2.7s.9-2.4 1.1-3.9c.2-1.5.4-3 .4-4.7 0-2-.2-3.9-.6-5.6-.4-1.7-.9-3.2-1.6-4.4-.7-1.2-1.4-2.2-2.4-2.9-.9-.7-1.9-1-3-1-1 0-1.9.3-2.6 1-.8.7-1.4 1.6-1.9 2.7s-.9 2.4-1.1 3.9c-.2 1.5-.4 3-.4 4.7 0 2.1.2 3.9.6 5.7.4 1.7.9 3.2 1.5 4.4.7 1.2 1.4 2.2 2.4 2.9 1 .6 2 .9 3.1.9zm-1.2 1.1c-2 0-3.8-.3-5.4-1-1.6-.7-3-1.6-4.1-2.8-1.1-1.2-2-2.6-2.7-4.3-.6-1.7-.9-3.5-.9-5.5 0-4.1 1.1-7.3 3.4-9.7 2.3-2.4 5.8-4 10.6-5 2 0 3.8.3 5.4 1 1.6.7 3 1.6 4.2 2.8 1.1 1.2 2 2.6 2.7 4.3.6 1.7.9 3.5.9 5.5 0 4.1-1.1 7.3-3.4 9.7-2.4 2.3-5.9 4-10.7 5zm-20.2-.5L3.2 2.6v24.2l2.8.3v.6H0v-.6l2.4-.3V1.6L0 1.3V.7h9.4l12.2 18.7V1.6L19 1.3V.7h5.9v.6l-2.4.3v26.3h-2.9z" fill-rule="evenodd" clip-rule="evenodd"/></svg>
