<?xml version="1.0" encoding="UTF-8"?>
<svg width="60px" height="60px" viewBox="0 0 60 60" version="1.1" xmlns="http://www.w3.org/2000/svg" xmlns:xlink="http://www.w3.org/1999/xlink">
    <!-- Generator: Sketch 54.1 (76490) - https://sketchapp.com -->
    <title>play-icon</title>
    <desc>Created with Sketch.</desc>
    <g id="landing-page" stroke="none" stroke-width="1" fill="none" fill-rule="evenodd">
        <g id="landing-page-desktop-1920" transform="translate(-1227.000000, -2377.000000)" fill-rule="nonzero">
            <g id="Group-15" transform="translate(0.000000, 2001.000000)">
                <g id="Group-13">
                    <g id="Group-19" transform="translate(882.000000, 150.000000)">
                        <g id="play-icon" transform="translate(345.000000, 226.000000)">
                            <path d="M30,0 C13.4,0 0,13.4 0,30 C0,46.6 13.4,60 30,60 C46.6,60 60,46.6 60,30 C60,13.4 46.6,0 30,0 Z M30,58 C14.5,58 2,45.5 2,30 C2,14.5 14.5,2 30,2 C45.5,2 58,14.5 58,30 C58,45.5 45.5,58 30,58 Z" id="Combined-Shape" fill="#BFA489"></path>
                            <polygon id="Path" fill="#FFFFFF" points="43 30 23 40 23 20"></polygon>
                        </g>
                    </g>
                </g>
            </g>
        </g>
    </g>
</svg>