<svg xmlns="http://www.w3.org/2000/svg" viewBox="0 0 87 18"><title>moxy-logo</title><path d="M43.14,9a7.91,7.91,0,0,0-2.124-5.4L30.383,15.337A7.956,7.956,0,0,0,43.14,9ZM35.181,1.052A7.963,7.963,0,0,0,27.222,9c0,.134,0,.267.01.4a7.972,7.972,0,0,0,.926,3.335l.02.039c.025.047.053.093.079.139a7.99,7.99,0,0,0,1.33,1.736L40.252,2.878a7.958,7.958,0,0,0-3.063-1.57l-.1-.024c-.085-.021-.17-.041-.255-.059L36.69,1.2q-.111-.021-.222-.039l-.156-.024-.221-.028c-.051-.006-.1-.012-.153-.016-.082-.008-.164-.014-.245-.019l-.132-.009C35.435,1.055,35.309,1.052,35.181,1.052Zm6.55,1.761-.007.007a9,9,0,0,1-12.049,13.3l-.006.007-.194-.159a8.973,8.973,0,0,1-2.743-3.838l-.021-.055c-.04-.109-.076-.218-.112-.329-.013-.043-.027-.086-.04-.129-.03-.1-.057-.192-.083-.289-.016-.06-.031-.121-.046-.182-.021-.085-.042-.171-.06-.257s-.03-.15-.044-.225-.029-.154-.042-.231-.025-.176-.037-.264c-.008-.068-.018-.136-.025-.2-.012-.1-.019-.21-.027-.316,0-.054-.009-.107-.012-.162-.009-.16-.014-.322-.014-.485a9.016,9.016,0,0,1,9.012-9q.231,0,.459.012l.067.005c.132.007.262.017.393.029l.015,0a8.951,8.951,0,0,1,5.439,2.588ZM6.306,16.537,12.36,6.35l-.037.062L9.85,2.25a.335.335,0,0,0-.575,0L1.084,16.033a.333.333,0,0,0,.287.5Zm1.2,0H18.34L12.925,7.424ZM17.464,1.723l8.192,13.783a1.367,1.367,0,0,1-1.178,2.064H20.157l-.613-1.033h4.934a.333.333,0,0,0,.287-.5L16.575,2.25a.335.335,0,0,0-.575,0L13.526,6.412l-.6-1.013L20.157,17.57H1.371A1.366,1.366,0,0,1,.194,15.506L8.385,1.723a1.37,1.37,0,0,1,2.355,0L12.925,5.4,15.11,1.723a1.369,1.369,0,0,1,2.354,0Zm68.457.119a.344.344,0,0,0-.006-.352.355.355,0,0,0-.317-.184H68.759a.365.365,0,0,0-.314.551l8.734,13.975ZM76.339,16.75a.041.041,0,0,0,.035-.063l-2.961-4.738a.042.042,0,0,0-.071,0L70.65,16.689a.041.041,0,0,0,.035.061ZM86.814.979A1.381,1.381,0,0,1,86.8,2.385L77.283,17.616a.862.862,0,0,1-.1.167H70.13a.774.774,0,0,1-.637-.3.719.719,0,0,1-.034-.791l3.351-5.9-5.251-8.4a1.4,1.4,0,0,1,1.2-2.116H85.6A1.385,1.385,0,0,1,86.814.979ZM56.146,9.748l-6.9,6.889h13.8Zm-7.7-7.687V15.973l6.965-6.955Zm7.7,6.226,6.878-6.868H49.269Zm.731.731,6.81,6.8V2.217ZM63.248.385A1.478,1.478,0,0,1,64.724,1.86V16.2a1.463,1.463,0,0,1-.359.96c-.011.013-.02.027-.032.039l-.015.013c-.011.012-.021.024-.032.035h0a1.47,1.47,0,0,1-1.039.428H48.89a1.46,1.46,0,0,1-.771-.22.5.5,0,0,1-.4-.366,1.461,1.461,0,0,1-.3-.888V1.86A1.469,1.469,0,0,1,47.842.824a.47.47,0,0,1,.045-.055.488.488,0,0,1,.118-.086,1.467,1.467,0,0,1,.885-.3H63.248Z"/></svg>
