<?xml version="1.0" encoding="UTF-8"?>
<svg width="25px" height="25px" viewBox="0 0 25 25" version="1.1" xmlns="http://www.w3.org/2000/svg" xmlns:xlink="http://www.w3.org/1999/xlink">
    <!-- Generator: Sketch 54.1 (76490) - https://sketchapp.com -->
    <title>Fill 4</title>
    <desc>Created with Sketch.</desc>
    <g id="landing-page" stroke="none" stroke-width="1" fill-rule="evenodd">
        <g id="landing-page-desktop-1920" transform="translate(-582.000000, -5322.000000)">
            <g id="Group-14-Copy" transform="translate(316.000000, 5304.000000)">
                <path d="M266.167588,28.4217623 C265.137588,34.8217623 268.968588,40.5047623 274.548588,42.3607623 C275.173588,42.4747623 275.401588,42.0887623 275.401588,41.7587623 C275.401588,41.4627623 275.390588,40.4757623 275.384588,39.4317623 C271.908588,40.1877623 271.173588,37.9587623 271.173588,37.9587623 C270.604588,36.5147623 269.785588,36.1297623 269.785588,36.1297623 C268.649588,35.3547623 269.872588,35.3707623 269.872588,35.3707623 C271.126588,35.4577623 271.787588,36.6587623 271.787588,36.6587623 C272.902588,38.5687623 274.714588,38.0157623 275.425588,37.6957623 C275.539588,36.8897623 275.862588,36.3387623 276.218588,36.0267623 C273.443588,35.7117623 270.524588,34.6377623 270.524588,29.8487623 C270.524588,28.4827623 271.012588,27.3687623 271.810588,26.4937623 C271.683588,26.1767623 271.252588,24.9047623 271.934588,23.1837623 C271.934588,23.1837623 272.982588,22.8487623 275.372588,24.4657623 C276.368588,24.1877623 277.437588,24.0497623 278.500588,24.0457623 C279.562588,24.0497623 280.631588,24.1887623 281.629588,24.4677623 C284.014588,22.8487623 285.064588,23.1857623 285.064588,23.1857623 C285.748588,24.9077623 285.317588,26.1777623 285.189588,26.4937623 C285.990588,27.3687623 286.474588,28.4827623 286.474588,29.8487623 C286.474588,34.6507623 283.550588,35.7077623 280.766588,36.0177623 C281.216588,36.4047623 281.614588,37.1657623 281.614588,38.3307623 C281.614588,40.0017623 281.597588,41.3487623 281.597588,41.7607623 C281.597588,42.0927623 281.824588,42.4827623 282.458588,42.3607623 C287.421588,40.7057623 291.000588,36.0207623 291.000588,30.4997623 C291.000588,22.9037623 284.222588,16.8887623 276.384588,18.1737623 C271.136588,19.0337623 267.012588,23.1707623 266.167588,28.4217623" id="Fill-4"></path>
            </g>
        </g>
    </g>
</svg>
