<?xml version="1.0" encoding="utf-8"?>
<!-- Generator: Adobe Illustrator 23.0.3, SVG Export Plug-In . SVG Version: 6.00 Build 0)  -->
<svg version="1.1" id="protocol-labs-logo" xmlns="http://www.w3.org/2000/svg" xmlns:xlink="http://www.w3.org/1999/xlink" x="0px"
	 y="0px" viewBox="0 0 110 26" style="enable-background:new 0 0 110 26;" xml:space="preserve">
<path id="_x3C_path_x3E_" d="M6.6,15.6l5.5,3.2v6.3L6.6,22V15.6z M12.2,11.2l0,6.4l-6.7-3.8v7.6L0,18.2v-14L12.2,11.2z M19.9,7.4
	l5.5-3.3v14l-12.1,7v-6.3l6.6-3.9L19.9,7.4z M13.3,11.2v6.3l5.5-3.1V8.1L13.3,11.2z M19.4,0l-5.4,3.2l5.4,3.1l5.5-3.1L19.4,0z
	 M6.1,0L0.6,3.1l12.1,7L18.2,7L6.1,0z M39.6,10.3c0-1.7-1.3-2.6-2.8-2.6h-3.6v8.2H35v-2.8h1.6C38.5,13.1,39.6,11.8,39.6,10.3
	L39.6,10.3z M37.6,10.4c0,0.7-0.5,1.2-1.1,1.2H35V9.3h1.5C37.2,9.3,37.6,9.7,37.6,10.4L37.6,10.4z M44.4,11.2V9.4h-0.6
	c-0.6,0-1.3,0.3-1.6,0.8V9.4h-1.8v6.5h1.8v-3.5c0-0.9,0.5-1.2,1.4-1.2C44,11.2,44.4,11.2,44.4,11.2L44.4,11.2z M48.1,16
	c1.9,0,3.2-1.1,3.2-3.3c0-2.2-1.3-3.3-3.2-3.3c-1.9,0-3.2,1.1-3.2,3.3C44.9,14.9,46.2,16,48.1,16L48.1,16z M48.1,10.8
	c0.8,0,1.4,0.5,1.4,1.9c0,1.3-0.6,1.9-1.4,1.9c-0.8,0-1.4-0.5-1.4-1.9C46.7,11.3,47.3,10.8,48.1,10.8L48.1,10.8z M55.8,15.9v-1.5
	c0,0-0.4,0-0.8,0c-0.4,0-0.5-0.1-0.5-0.5v-3.1h1.4V9.4h-1.4V7.7h-1.8v1.7h-0.9v1.5h0.9V14c0,1.2,0.2,2,1.7,2
	C55.2,16,55.8,15.9,55.8,15.9L55.8,15.9z M59.6,16c1.9,0,3.2-1.1,3.2-3.3c0-2.2-1.3-3.3-3.2-3.3c-1.9,0-3.2,1.1-3.2,3.3
	C56.4,14.9,57.7,16,59.6,16L59.6,16z M59.6,10.8c0.8,0,1.4,0.5,1.4,1.9c0,1.3-0.6,1.9-1.4,1.9c-0.8,0-1.4-0.5-1.4-1.9
	C58.2,11.3,58.8,10.8,59.6,10.8L59.6,10.8z M67.8,13.5c-0.1,0.8-0.6,1.1-1.2,1.1c-0.7,0-1.3-0.5-1.3-1.9c0-1.3,0.6-1.9,1.4-1.9
	c0.6,0,1.1,0.3,1.2,1.1h1.8c-0.2-1.7-1.4-2.6-3-2.6c-1.9,0-3.2,1.2-3.2,3.4c0,2.2,1.4,3.3,3.2,3.3c1.7,0,2.8-0.9,3-2.5H67.8z
	 M73.4,16c1.9,0,3.2-1.1,3.2-3.3c0-2.2-1.3-3.3-3.2-3.3c-1.9,0-3.2,1.1-3.2,3.3C70.2,14.9,71.5,16,73.4,16L73.4,16z M73.4,10.8
	c0.8,0,1.4,0.5,1.4,1.9c0,1.3-0.6,1.9-1.4,1.9c-0.8,0-1.4-0.5-1.4-1.9C72,11.3,72.6,10.8,73.4,10.8L73.4,10.8z M77.5,15.9h1.8V7.2
	h-1.8V15.9z M89,15.9v-1.6h-4V7.7h-1.9v8.2H89z M93.9,13.4c0,0.6-0.4,1.3-1.4,1.3c-0.7,0-0.9-0.4-0.9-0.7c0-0.4,0.3-0.7,0.8-0.8
	c0.4-0.1,1.6-0.2,1.6-0.2L93.9,13.4L93.9,13.4z M90,11.6h1.8c0-0.3,0.1-0.8,1.1-0.8c0.9,0,1.1,0.3,1.1,0.8v0.2L91.8,12
	c-0.6,0.1-2,0.4-2,1.9c0,1.3,1,2,2.3,2c1.1,0,1.6-0.4,1.9-0.7v0.6h1.9c0,0-0.1-0.5-0.1-1v-3.5c0-0.9-0.5-2.1-2.9-2.1
	C90.4,9.3,90,10.6,90,11.6L90,11.6z M98.8,15.9v-0.6c0.3,0.4,0.9,0.7,1.6,0.7c1.8,0,3-1.1,3-3.3c0-2.2-1.2-3.3-2.9-3.3
	c-0.7,0-1.4,0.3-1.7,0.7V7.2h-1.8v8.7H98.8z M100.1,10.8c0.8,0,1.4,0.5,1.4,1.9c0,1.3-0.6,1.9-1.4,1.9c-0.9,0-1.4-0.4-1.4-1.9
	C98.8,11.2,99.3,10.8,100.1,10.8L100.1,10.8z M107.9,11.4h1.8c0-0.5-0.3-2-2.8-2c-1.6,0-2.8,0.7-2.8,2c0,1.5,1.2,1.8,2.6,2l0.4,0
	c0.5,0.1,1,0.2,1,0.6c0,0.5-0.5,0.7-1.1,0.7c-0.6,0-1.2-0.2-1.2-0.8h-1.8c0,0.3,0.2,2.1,2.9,2.1c2.4,0,3-1.2,3-2.2
	c0-2.6-4-1.6-4-2.6c0-0.4,0.5-0.6,1-0.6C107.5,10.7,107.9,10.9,107.9,11.4L107.9,11.4z"/>
</svg>
