<?xml version="1.0" standalone="no"?>
<!DOCTYPE svg PUBLIC "-//W3C//DTD SVG 20010904//EN"
 "http://www.w3.org/TR/2001/REC-SVG-20010904/DTD/svg10.dtd">
<svg version="1.0" xmlns="http://www.w3.org/2000/svg"
 width="700.000000pt" height="700.000000pt" viewBox="0 0 700.000000 700.000000"
 preserveAspectRatio="xMidYMid meet">
<metadata>
Created by potrace 1.11, written by Peter Selinger 2001-2013
</metadata>
<g transform="translate(0.000000,700.000000) scale(0.100000,-0.100000)"
fill="#000000" stroke="none">
<path d="M3359 6996 c-2 -2 -35 -6 -74 -9 -76 -7 -134 -17 -235 -42 -36 -9
-72 -17 -81 -19 -61 -15 -194 -68 -304 -121 -315 -153 -545 -353 -769 -671
l-19 -26 -254 253 -253 254 3 -1865 c1 -1026 6 -1876 9 -1890 4 -14 9 -45 12
-70 52 -398 236 -816 501 -1135 36 -44 191 -208 343 -364 152 -156 320 -327
372 -381 109 -112 784 -802 847 -866 l42 -43 155 157 c85 86 216 221 293 299
129 133 641 656 906 927 227 232 299 317 403 476 179 273 317 639 350 925 3
33 9 69 12 80 9 30 14 3750 5 3742 -4 -4 -118 -118 -253 -253 l-246 -245 -84
113 c-177 238 -415 439 -670 567 -36 18 -73 37 -83 43 -82 42 -356 125 -475
143 -23 3 -56 8 -74 11 -41 6 -374 15 -379 10z m349 -197 c81 -11 117 -18 172
-30 25 -6 52 -12 61 -14 9 -2 58 -17 110 -35 307 -103 597 -305 799 -559 59
-74 130 -176 130 -188 0 -4 -284 -291 -630 -638 l-630 -630 -1 -683 c0 -524
-3 -682 -12 -683 -7 0 -21 -3 -32 -5 -26 -6 -324 -6 -350 0 -11 2 -25 5 -32 5
-9 1 -12 160 -12 683 l0 682 -631 631 c-346 346 -630 635 -630 640 1 22 181
257 246 319 283 272 586 430 944 491 146 24 379 31 498 14z m-1563 -1226 c316
-317 575 -578 575 -581 0 -2 -19 -1 -42 2 -24 4 -86 6 -138 6 -219 1 -417 -65
-576 -191 -80 -64 -240 -221 -302 -299 -21 -25 -51 -60 -67 -78 l-30 -32 0
875 c0 481 1 875 2 875 1 0 261 -260 578 -577z m3290 -298 l1 -876 -36 39
c-19 21 -51 58 -71 83 -93 112 -255 265 -354 332 -97 66 -259 126 -385 142
-57 7 -215 7 -267 0 l-48 -7 80 82 c123 125 1076 1080 1078 1080 1 0 2 -394 2
-875z m-2660 -484 c96 -25 225 -87 279 -133 l39 -34 0 -752 0 -752 -281 -282
-281 -282 -95 94 -95 94 50 53 c74 78 128 209 124 298 -1 22 -3 53 -4 70 -1
28 -9 22 -149 -118 l-148 -148 -36 54 c-20 30 -52 86 -71 124 l-36 70 134 133
134 134 -42 45 c-23 25 -53 59 -65 75 l-23 30 -103 -103 c-56 -56 -103 -96
-103 -89 -1 7 -5 40 -11 73 -5 33 -11 118 -11 189 l-2 129 37 38 36 37 -21 56
c-11 31 -23 68 -26 83 -3 16 -8 39 -11 53 -4 14 -9 142 -11 286 l-5 261 50 49
c87 85 218 152 349 178 98 20 297 13 398 -13z m1903 -1 c123 -35 240 -103 314
-184 l29 -31 -4 -265 c-4 -269 -12 -328 -57 -444 -10 -27 -8 -32 25 -66 l36
-37 -2 -124 c-1 -112 -15 -257 -26 -268 -2 -3 -49 40 -104 95 l-101 99 -16
-25 c-9 -13 -36 -45 -59 -70 -23 -25 -43 -50 -43 -55 0 -6 56 -66 125 -135 69
-69 125 -131 125 -138 0 -27 -125 -249 -136 -240 -2 2 -67 66 -144 142 -77 77
-143 137 -146 133 -12 -12 -11 -124 2 -176 20 -75 69 -163 120 -213 l44 -44
-95 -94 -95 -95 -282 282 -281 283 0 752 0 752 37 32 c77 67 229 130 366 153
92 15 285 5 368 -19z m-1273 -1758 c-4 -219 -26 -262 -245 -483 -181 -182
-212 -201 -322 -201 -54 1 -155 42 -165 68 -3 8 136 155 359 378 199 201 366
366 369 366 4 0 6 -58 4 -128z m925 -609 c0 -13 -64 -52 -101 -64 -19 -5 -57
-10 -86 -10 -90 0 -132 28 -308 205 -215 216 -236 258 -240 486 -1 58 0 109 2
113 5 9 733 -716 733 -730z m-683 55 l96 -98 -24 -20 c-118 -101 -322 -101
-438 0 l-24 21 97 97 c53 53 106 112 118 131 l22 34 29 -34 c16 -19 72 -78
124 -131z m-481 -269 c126 -101 309 -140 461 -101 77 21 183 74 216 109 12 12
25 23 30 23 4 0 39 -30 77 -67 l69 -67 -132 -135 c-181 -186 -267 -305 -352
-489 l-36 -77 -31 70 c-75 171 -172 307 -349 490 -71 73 -129 136 -129 140 0
9 125 135 133 135 2 0 22 -14 43 -31z m-302 -254 c114 -115 232 -239 260 -275
101 -125 172 -257 221 -408 25 -75 58 -222 52 -228 -2 -2 -150 144 -328 324
-335 337 -377 387 -413 498 -25 76 -27 90 -31 212 -3 104 -2 112 13 100 9 -7
111 -107 226 -223z m1511 123 c-2 -62 -7 -124 -9 -138 -13 -61 -49 -149 -83
-200 -37 -57 -668 -699 -677 -689 -11 10 43 218 78 303 58 139 122 246 215
355 46 55 467 481 475 481 3 0 3 -51 1 -112z m-1257 -1043 c148 -185 242 -395
276 -616 5 -33 -20 -10 -314 285 -176 177 -331 337 -346 356 -74 100 -106 206
-109 362 l-2 120 223 -223 c123 -123 246 -251 272 -284z m1257 393 c-3 -161
-36 -269 -110 -368 -28 -38 -656 -672 -661 -668 -1 2 4 37 12 78 36 190 131
397 253 550 28 36 500 520 507 520 1 0 0 -51 -1 -112z"/>
<path d="M2495 4420 c-73 -8 -160 -52 -179 -89 -65 -126 96 -235 294 -199 103
19 158 60 167 127 10 76 -62 143 -168 157 -24 3 -48 6 -54 8 -5 1 -32 -1 -60
-4z"/>
<path d="M4385 4416 c-73 -18 -132 -52 -150 -86 -55 -107 52 -204 225 -203
179 1 285 102 220 208 -22 36 -88 72 -145 80 -85 12 -103 12 -150 1z"/>
</g>
</svg>
