<?xml version="1.0" encoding="utf-8"?>
<!-- Generator: Adobe Illustrator 23.0.3, SVG Export Plug-In . SVG Version: 6.00 Build 0)  -->
<svg version="1.1" id="Layer_1" xmlns="http://www.w3.org/2000/svg" xmlns:xlink="http://www.w3.org/1999/xlink" x="0px" y="0px"
	 viewBox="0 0 150 150" style="enable-background:new 0 0 150 150;" xml:space="preserve">
<style type="text/css">
	.st0{fill:none;stroke:#000000;stroke-miterlimit:10;}
	.st1{fill:#FFFFFF;}
	.st2{fill-rule:evenodd;clip-rule:evenodd;}
	.st3{fill:#606060;}
	.st4{fill:none;stroke:#000000;stroke-width:4;stroke-miterlimit:10;}
	.st5{fill:none;stroke:#606060;stroke-width:4;stroke-miterlimit:10;}
	.st6{fill:none;stroke:#606060;stroke-miterlimit:10;}
	.st7{fill:none;stroke:#000000;stroke-linecap:round;stroke-linejoin:round;stroke-miterlimit:10;stroke-dasharray:0,2;}
	.st8{fill:none;stroke:#000000;stroke-linecap:round;stroke-linejoin:round;stroke-miterlimit:10;stroke-dasharray:0,3;}
	.st9{fill:none;stroke:#000000;stroke-linecap:round;stroke-linejoin:round;stroke-miterlimit:10;stroke-dasharray:0,4;}
	
		.st10{fill:none;stroke:#000000;stroke-width:0.75;stroke-linecap:round;stroke-linejoin:round;stroke-miterlimit:10;stroke-dasharray:0,3;}
	.st11{fill:none;stroke:#000000;stroke-linecap:round;stroke-linejoin:round;stroke-dasharray:0,6.0252;}
</style>
<g>
	<g>
		<line class="st0" x1="74.9" y1="5" x2="74.9" y2="145"/>
	</g>
	<g>
		<line class="st0" x1="145" y1="74.9" x2="5" y2="74.9"/>
	</g>
	<g>
		<line class="st0" x1="124.5" y1="25.5" x2="25.5" y2="124.5"/>
	</g>
	<g>
		<line class="st0" x1="25.5" y1="25.5" x2="124.5" y2="124.5"/>
	</g>
	<g>
		<line class="st0" x1="101.3" y1="10.2" x2="48.7" y2="139.8"/>
	</g>
	<g>
		<line class="st0" x1="139.8" y1="101.3" x2="10.2" y2="48.7"/>
	</g>
	<g>
		<line class="st0" x1="139.3" y1="47.7" x2="10.7" y2="102.3"/>
	</g>
	<g>
		<line class="st0" x1="47.7" y1="10.7" x2="102.3" y2="139.3"/>
	</g>
	<g>
		<line class="st0" x1="89" y1="6.4" x2="61" y2="143.6"/>
	</g>
	<g>
		<line class="st0" x1="143.6" y1="89" x2="6.4" y2="61"/>
	</g>
	<g>
		<line class="st0" x1="133.4" y1="36.4" x2="16.6" y2="113.6"/>
	</g>
	<g>
		<line class="st0" x1="36.4" y1="16.6" x2="113.6" y2="133.4"/>
	</g>
	<g>
		<line class="st0" x1="113.6" y1="16.6" x2="36.4" y2="133.4"/>
	</g>
	<g>
		<line class="st0" x1="133.4" y1="113.6" x2="16.6" y2="36.4"/>
	</g>
	<g>
		<line class="st0" x1="143.6" y1="61.2" x2="6.4" y2="88.8"/>
	</g>
	<g>
		<line class="st0" x1="61.2" y1="6.4" x2="88.8" y2="143.6"/>
	</g>
	<g>
		<line class="st0" x1="74.9" y1="5" x2="74.9" y2="145"/>
	</g>
	<g>
		<line class="st0" x1="145" y1="74.9" x2="5" y2="74.9"/>
	</g>
	<g>
		<line class="st0" x1="124.5" y1="25.5" x2="25.5" y2="124.5"/>
	</g>
	<g>
		<line class="st0" x1="25.5" y1="25.5" x2="124.5" y2="124.5"/>
	</g>
	<g>
		<line class="st0" x1="101.3" y1="10.2" x2="48.7" y2="139.8"/>
	</g>
	<g>
		<line class="st0" x1="139.8" y1="101.3" x2="10.2" y2="48.7"/>
	</g>
	<g>
		<line class="st0" x1="139.3" y1="47.7" x2="10.7" y2="102.3"/>
	</g>
	<g>
		<line class="st0" x1="47.7" y1="10.7" x2="102.3" y2="139.3"/>
	</g>
	<g>
		<line class="st0" x1="89" y1="6.4" x2="61" y2="143.6"/>
	</g>
	<g>
		<line class="st0" x1="143.6" y1="89" x2="6.4" y2="61"/>
	</g>
	<g>
		<line class="st0" x1="133.4" y1="36.4" x2="16.6" y2="113.6"/>
	</g>
	<g>
		<line class="st0" x1="36.4" y1="16.6" x2="113.6" y2="133.4"/>
	</g>
	<g>
		<line class="st0" x1="113.6" y1="16.6" x2="36.4" y2="133.4"/>
	</g>
	<g>
		<line class="st0" x1="133.4" y1="113.6" x2="16.6" y2="36.4"/>
	</g>
	<g>
		<line class="st0" x1="143.6" y1="61.2" x2="6.4" y2="88.8"/>
	</g>
	<g>
		<line class="st0" x1="61.2" y1="6.4" x2="88.8" y2="143.6"/>
	</g>
	<g>
		<circle class="st1" cx="74.9" cy="74.9" r="27.9"/>
	</g>
</g>
</svg>
