<?xml version="1.0" encoding="utf-8"?>
<!-- Generator: Adobe Illustrator 23.0.3, SVG Export Plug-In . SVG Version: 6.00 Build 0)  -->
<svg version="1.1" id="illustration-signed-operations"
	 xmlns="http://www.w3.org/2000/svg" xmlns:xlink="http://www.w3.org/1999/xlink" x="0px" y="0px" viewBox="0 0 150 150"
	 style="enable-background:new 0 0 150 150;" xml:space="preserve">
<style type="text/css">
	.st0{fill:none;stroke:#fff;stroke-miterlimit:10;}
</style>
<path id="_x3C_path_x3E_" class="st0" d="M74.9,5v42 M74.9,145v-42.2 M145,74.9h-42.2 M47,74.9H5 M124.5,25.5L94.7,55.3 M55.3,94.7
	l-29.8,29.8 M55.2,55.2L25.5,25.5 M124.5,124.5L94.6,94.6 M64.5,100.8l-15.8,39 M101.3,10.2L85.5,49.1 M49,64.5L10.2,48.7
	 M139.8,101.3l-39.1-15.9 M139.3,47.7l-38.7,16.4 M49.3,85.9l-38.6,16.4 M102.3,139.3l-16.4-38.7 M64,49.2L47.7,10.7 M69.4,102.3
	L61,143.6 M89,6.4l-8.4,41.2 M6.4,61l41.1,8.4 M102.2,80.6l41.4,8.4 M51.7,90.4l-35.1,23.2 M133.4,36.4L98.2,59.6 M36.4,16.6
	l23.1,35 M90.3,98.2l23.3,35.2 M113.6,16.6L90.4,51.7 M59.6,98.2l-23.2,35.2 M98.2,90.3l35.2,23.3 M16.6,36.4l35,23.1 M47.6,80.5
	L6.4,88.8 M143.6,61.2l-41.3,8.3 M80.5,102.2l8.3,41.4 M61.2,6.4l8.3,41.1"/>
</svg>
