<?xml version="1.0" encoding="UTF-8"?>
<svg width="302px" height="945px" viewBox="0 0 302 945" version="1.1" xmlns="http://www.w3.org/2000/svg" xmlns:xlink="http://www.w3.org/1999/xlink">
    <!-- Generator: Sketch 54.1 (76490) - https://sketchapp.com -->
    <title>illustration-stamp</title>
    <desc>Created with Sketch.</desc>
    <g id="landing-page" stroke="none" stroke-width="1" fill="none" fill-rule="evenodd">
        <g id="landing-page-desktop-1920" transform="translate(-1249.000000, -3763.000000)">
            <g id="Group-15" transform="translate(170.000000, 3763.000000)">
                <g id="illustration-stamp" transform="translate(1079.749124, 0.000000)">
                    <rect id="Rectangle-Copy-6" fill="#BEA48A" fill-rule="nonzero" opacity="0.296805246" x="151.250876" y="562" width="1" height="179"></rect>
                    <g id="Group-4-Copy" transform="translate(0.250876, 0.000000)">
                        <g id="nomios_illustrations3_illustration-stamp" transform="translate(74.571429, 0.000000)"></g>
                        <path d="M75.075197,853.833511 C75.3714412,854.027038 75.6716233,854.219655 75.9757431,854.411361 C49.9144284,862.554951 33.2656838,874.899101 33.2656838,888.693791 C33.2656838,913.159141 85.6327601,933.063571 150.001363,933.063571 C214.369966,933.063571 266.737951,913.159141 266.737951,888.693791 C266.737951,874.993741 250.313661,862.725121 224.558587,854.579711 C224.86301,854.390431 225.161071,854.199331 225.458224,854.007321 C251.215116,862.314711 267.623049,874.780801 267.623049,888.693791 C267.623049,913.648721 214.857042,933.950821 150.000454,933.950821 C85.1438663,933.950821 32.3778598,913.648721 32.3778598,888.693791 C32.3778598,874.684341 49.0102474,862.141811 75.075197,853.833511 Z" id="Path" stroke="#BEA48A" stroke-width="0.5"></path>
                        <path d="M39.1424062,888.693791 C39.1424062,912.444791 88.8723636,931.765001 149.999546,931.765001 C211.126728,931.765001 260.857594,912.442971 260.857594,888.693791 C260.857594,875.638931 245.82547,863.922681 222.136836,856.017511 C221.815147,856.199511 221.486189,856.381511 221.158139,856.563511 C244.888575,864.307611 259.971587,875.839131 259.971587,888.698341 C259.971587,911.957941 210.638743,930.882301 149.999546,930.882301 C89.3603487,930.882301 40.0275041,911.954301 40.0275041,888.698341 C40.0275041,875.748131 55.3249751,864.144721 79.3452942,856.400621 C79.0193649,856.218621 78.695556,856.036621 78.3738675,855.854621 C54.3917149,863.756151 39.1424062,875.545201 39.1424062,888.693791 Z" id="Path" stroke="#BEA48A" stroke-width="0.5"></path>
                        <path d="M45.4453205,888.693791 C45.4453205,911.213561 92.3482354,929.533681 149.999546,929.533681 C207.650856,929.533681 254.554679,911.213561 254.554679,888.693791 C254.554679,876.418801 240.616661,865.392331 218.599171,857.899391 C218.254764,858.072291 217.90854,858.244281 217.557772,858.414451 C239.654321,865.747231 253.669582,876.600801 253.669582,888.693791 C253.669582,910.723981 207.162871,928.642791 149.999546,928.642791 C92.8362206,928.642791 46.3304183,910.715791 46.3304183,888.693791 C46.3304183,876.515261 60.5483245,865.593441 82.9174908,858.259751 C82.5667231,858.087761 82.2214077,857.913041 81.8770011,857.738321 C59.5850763,865.233991 45.4453205,876.330531 45.4453205,888.693791 Z" id="Path" stroke="#BEA48A" stroke-width="0.5"></path>
                        <path d="M52.2144106,888.693791 C52.2144106,910.010541 96.0803676,927.352411 149.999546,927.352411 C203.918724,927.352411 247.785589,910.010541 247.785589,888.693791 C247.785589,877.178651 234.978933,866.825581 214.708012,859.736681 C214.344522,859.899571 213.969218,860.059731 213.596641,860.219891 C233.99024,867.149541 246.900492,877.344271 246.900492,888.693791 C246.900492,909.520961 203.431647,926.465161 150.000454,926.465161 C96.5692615,926.465161 53.1004171,909.520961 53.1004171,888.693791 C53.1004171,877.262371 66.1996832,867.000301 86.8522686,860.068831 C86.4787828,859.906851 86.1071144,859.744871 85.7399896,859.580161 C65.2082645,866.671791 52.2144106,877.094021 52.2144106,888.693791 Z" id="Path" stroke="#BEA48A" stroke-width="0.5"></path>
                        <path d="M57.8339639,888.693791 C57.8339639,908.982241 99.1809362,925.488731 149.999546,925.488731 C200.818155,925.488731 242.166036,908.982241 242.166036,888.693791 C242.166036,877.773791 230.18541,867.953071 211.201243,861.211791 C210.814126,861.365581 210.427918,861.520281 210.034441,861.666791 C229.172182,868.253371 241.28003,877.926671 241.28003,888.693791 C241.28003,908.493571 200.331987,924.601481 149.999546,924.601481 C99.6671039,924.601481 58.7199704,908.494481 58.7199704,888.693791 C58.7199704,877.848411 71.0059279,868.111411 90.389025,861.522101 C89.996456,861.369221 89.6029782,861.216341 89.2167702,861.059821 C69.9899737,867.808381 57.8339639,877.694621 57.8339639,888.693791 Z" id="Path" stroke="#BEA48A" stroke-width="0.5"></path>
                        <path d="M63.0691267,888.693791 C63.0691267,907.933011 102.066137,923.585011 149.999546,923.585011 C197.932954,923.585011 236.929965,907.933011 236.929965,888.693791 C236.929965,878.311601 225.570906,868.975911 207.578158,862.576791 C207.169232,862.723301 206.760306,862.869811 206.345019,863.012681 C224.52769,869.252551 236.044867,878.450831 236.044867,888.691971 C236.044867,907.437971 197.444969,922.696851 149.999546,922.696851 C102.554122,922.696851 63.9551332,907.441611 63.9551332,888.691971 C63.9551332,878.375301 75.6422412,869.119691 94.0566378,862.878001 C93.6404419,862.732401 93.2278809,862.584678 92.8189548,862.434831 C74.5972078,868.836681 63.0654918,878.235161 63.0654918,888.693791 L63.0691267,888.693791 Z" id="Path" stroke="#BEA48A" stroke-width="0.5"></path>
                        <path d="M237.029924,843.606931 C236.85454,843.846261 236.675522,844.085591 236.490142,844.322191 C274.372147,854.215711 299.113993,870.418261 299.113993,888.693791 C299.113993,918.745631 232.221862,943.195511 149.999546,943.195511 C67.7772292,943.195511 0.885097824,918.745631 0.885097824,888.693791 C0.885097824,870.311791 25.9222798,854.022791 64.1841318,844.148381 C64.0023869,843.909961 63.8270031,843.669721 63.6534366,843.428571 C25.1762169,853.465871 3.12638804e-13,870.014221 3.12638804e-13,888.693791 C3.12638804e-13,919.238851 67.289244,944.081851 149.999546,944.081851 C232.709847,944.081851 300,919.238851 300,888.693791 C300,870.124331 275.121845,853.661521 237.029924,843.606931 Z" id="Path" stroke="#BEA48A" stroke-width="0.5"></path>
                        <path d="M9.72335392,888.490861 C9.70336198,902.573111 24.3320116,915.790861 50.9149343,925.719871 C77.3588221,935.593371 112.526467,941.061561 149.923213,941.115251 L150.474809,941.115251 C227.570101,941.115251 290.236662,917.733711 290.27392,888.897631 C290.298455,871.789631 268.268243,856.535301 234.245592,846.912051 C234.030527,847.136518 233.810313,847.360378 233.584949,847.583631 C267.466748,857.042171 289.412449,872.054441 289.388822,888.897631 C289.347929,917.245951 227.087568,940.229821 150.479352,940.229821 L149.92503,940.229821 C112.625518,940.176131 77.5732811,934.727961 51.2239007,924.890861 C25.0135551,915.104721 10.5893685,902.179081 10.6093605,888.490861 C10.633896,871.589431 32.7776987,856.596271 66.8894052,847.242381 C66.668888,847.017915 66.4523086,846.792235 66.239667,846.565341 C31.9807472,856.084851 9.74970694,871.320071 9.72335392,888.490861 Z" id="Path" stroke="#BEA48A" stroke-width="0.5"></path>
                        <path d="M17.7955551,888.693791 C17.7955551,916.201271 77.101653,938.579991 149.998637,938.579991 C222.895621,938.579991 282.202627,916.201271 282.202627,888.693791 C282.202627,872.790631 262.37789,858.601911 231.565763,849.460961 C231.319499,849.674811 231.065056,849.885931 230.810613,850.097961 C261.535502,859.074201 281.316621,873.038151 281.316621,888.693791 C281.316621,915.712601 222.407636,937.693651 149.998637,937.693651 C77.5896381,937.693651 18.6824704,915.712601 18.6824704,888.693791 C18.6824704,872.937141 38.7243929,858.894931 69.7900543,849.927791 C69.5374289,849.713941 69.2875296,849.501001 69.0439914,849.285331 C37.8847313,858.418091 17.7964638,872.685981 17.7964638,888.693791 L17.7955551,888.693791 Z" id="Path" stroke="#BEA48A" stroke-width="0.5"></path>
                        <path d="M25.3170692,888.693791 C25.3170692,914.773481 81.2490723,935.991951 149.998637,935.991951 C218.748201,935.991951 274.681113,914.773481 274.681113,888.693791 C274.681113,873.878991 256.628389,860.636671 228.436115,851.958001 C228.163498,852.160931 227.879067,852.361131 227.596454,852.561331 C255.749652,861.076201 273.795107,874.108311 273.795107,888.693791 C273.795107,914.284811 218.260216,935.103791 149.998637,935.103791 C81.7370575,935.103791 26.202167,914.283901 26.202167,888.693791 C26.202167,874.010941 44.4884334,860.900571 72.966047,852.390251 C72.6849482,852.188838 72.4074843,851.986211 72.1336552,851.782371 C43.6187839,860.458311 25.3179779,873.778891 25.3179779,888.693791 L25.3170692,888.693791 Z" id="Path" stroke="#BEA48A" stroke-width="0.5"></path>
                        <path d="M206,786.667126 C206,796.959673 180.878454,805.333333 150,805.333333 C119.121546,805.333333 94,796.959673 94,786.667126 C94,776.374579 119.121546,768 150,768 C155.306779,768 160.556152,768.244339 165.603241,768.726587 L165.517589,769.645154 C160.498747,769.165662 155.27762,768.922242 150,768.922242 C119.623613,768.922242 94.9111914,776.884384 94.9111914,786.6708 C94.9111914,796.457217 119.623613,804.41844 150,804.41844 C180.376387,804.41844 205.088809,796.456298 205.088809,786.6708 C205.088809,782.812817 200.988447,778.971369 193.543103,775.862018 L193.892089,775.013262 C201.813076,778.318267 206,782.349859 206,786.667126 Z M197.229783,785.943295 C197.229783,794.191111 176.042761,800.900327 150,800.900327 C123.957239,800.900327 102.771128,794.194785 102.771128,785.943295 C102.771128,777.691804 123.95815,770.987181 150,770.987181 C154.35914,770.987181 158.679098,771.178243 162.838687,771.553937 L162.920694,770.63537 C158.733769,770.25692 154.386475,770.064939 150,770.064939 C123.005955,770.064939 101.859937,777.037784 101.859937,785.939621 C101.859937,794.841457 123.005955,801.823487 150,801.823487 C176.994045,801.823487 198.141886,794.842375 198.141886,785.943295 C198.141886,782.415078 194.813303,779.098131 188.514237,776.351614 L188.149761,777.194859 C194.005988,779.747558 197.230694,782.855071 197.230694,785.943295 L197.229783,785.943295 Z M188.714699,786.872885 C187.029907,791.699957 176.665105,795.817894 162.306551,797.364761 C141.850304,799.56473 119.801295,795.927204 113.147776,789.25473 C111.503075,787.605902 110.960916,785.924005 111.547724,784.254049 C113.231605,779.426059 123.597318,775.309041 137.954961,773.762173 C145.358537,772.981476 152.819049,772.913501 160.235413,773.55917 L160.315598,772.640602 C152.840667,771.990487 145.321323,772.059076 137.859286,772.845443 C122.926682,774.452936 112.515409,778.706821 110.687559,783.945411 C109.988675,785.949725 110.617397,788.009153 112.504475,789.90232 C117.996225,795.413724 133.559374,798.916222 150.209574,798.916222 C154.282194,798.918739 158.352096,798.704107 162.402226,798.273225 C177.33483,796.665732 187.747014,792.411846 189.573953,787.172338 C190.272837,785.168943 189.645026,783.109515 187.757037,781.216347 C186.483465,780.003233 185.034177,778.992568 183.458948,778.219062 L183.042533,779.036587 C184.534306,779.766898 185.907347,780.721467 187.114647,781.867611 C188.756614,783.521033 189.296951,785.20293 188.714699,786.872885 L188.714699,786.872885 Z M141.99245,784.181483 L141.477627,784.938382 L149.347587,790.375382 L181.390543,771.65498 L180.934947,770.860419 L149.393147,789.290554 L141.99245,784.181483 Z" id="Shape" fill="#BEA48A" fill-rule="nonzero"></path>
                    </g>
                    <path d="M82.8312299,528.955584 C83.1189927,529.150324 83.4140253,529.343244 83.7163277,529.534344 L83.7163277,494.276394 C83.4134195,494.073768 83.1183869,493.869624 82.8312299,493.663964 L82.8312299,528.955584 Z M86.4661286,531.139584 C86.7563147,531.296104 87.0513473,531.451714 87.3512264,531.606414 L87.3512264,496.480414 C87.0483182,496.316008 86.7532856,496.149781 86.4661286,495.981734 L86.4661286,531.139584 Z M90.1010272,532.930464 C90.3918191,533.062414 90.6880634,533.192544 90.9861251,533.321764 L90.9861251,498.327714 C90.6880634,498.187574 90.3918191,498.047434 90.1010272,497.906384 L90.1010272,532.930464 Z M94.6182976,499.912934 C94.3211446,499.791904 94.0239916,499.670874 93.7331997,499.548934 L93.7331997,534.452894 C94.0239916,534.566644 94.3211446,534.677664 94.6182976,534.789594 L94.6182976,499.912934 Z M97.3644635,500.980364 L97.3644635,535.769664 C97.6561641,535.868854 97.9533171,535.966224 98.2495613,536.063594 L98.2495613,501.301594 C97.9478647,501.192394 97.6507118,501.085924 97.3590112,500.977634 L97.3644635,500.980364 Z M100.999362,502.243444 L100.999362,536.925364 C101.29288,537.016364 101.587307,537.100994 101.88446,537.186534 L101.88446,502.526454 C101.582158,502.433028 101.284399,502.337781 100.991184,502.240714 L100.999362,502.243444 Z M104.634261,503.366384 L104.634261,537.946384 C104.927476,538.024644 105.222509,538.101691 105.519359,538.177524 L105.519359,503.617544 L104.634261,503.366384 Z M108.269159,504.367384 L108.269159,538.856384 C108.563586,538.925544 108.858013,538.993794 109.155166,539.061134 L109.155166,504.587604 C108.843473,504.515714 108.548138,504.437454 108.253711,504.361014 L108.269159,504.367384 Z M111.904058,505.257364 L111.904058,539.655364 C112.197576,539.716334 112.494729,539.775484 112.790065,539.837364 L112.790065,505.450284 C112.478372,505.383854 112.179402,505.319244 111.885884,505.250994 L111.904058,505.257364 Z M115.538957,506.043604 L115.538957,540.366074 L116.424963,540.526234 L116.424963,506.219234 C116.11418,506.158568 115.811574,506.097901 115.517147,506.037234 L115.538957,506.043604 Z M119.173855,506.739754 L119.173855,540.989424 C119.469191,541.036744 119.762709,541.080424 120.059862,541.131384 L120.059862,506.891724 C119.738173,506.839854 119.444655,506.790714 119.14932,506.733384 L119.173855,506.739754 Z M177.282254,507.748034 L177.282254,541.685574 C177.579407,541.645534 177.872925,541.601854 178.168261,541.559994 L178.168261,507.616084 C177.84839,507.657944 177.554872,507.700714 177.257719,507.741664 L177.282254,507.748034 Z M180.917153,507.212954 L180.917153,541.143214 C181.213397,541.096804 181.508733,541.052214 181.803159,541.000344 L181.803159,507.063714 L180.917153,507.212954 Z M184.552052,506.595064 L184.552052,540.532604 L185.438058,540.370624 L185.438058,506.426714 C185.112735,506.482224 184.817399,506.535004 184.521155,506.588694 L184.552052,506.595064 Z M188.18695,505.890724 L188.18695,539.823714 C188.481377,539.761834 188.780347,539.703594 189.072957,539.641714 L189.072957,505.698714 C188.746725,505.765144 188.447754,505.823384 188.153327,505.880714 L188.18695,505.890724 Z M191.821849,505.092654 L191.821849,539.022914 C192.116276,538.953754 192.416155,538.888234 192.706947,538.818164 L192.706947,504.879714 C192.379806,504.950694 192.082653,505.017124 191.7855,505.086284 L191.821849,505.092654 Z M195.456748,504.191754 L195.456748,538.129294 C195.756627,538.050124 196.045601,537.965494 196.341845,537.884504 L196.341845,503.940594 C196.005617,504.021584 195.717551,504.106214 195.416764,504.185384 L195.456748,504.191754 Z M199.091646,503.159814 L199.091646,537.093714 C199.389708,537.002714 199.683226,536.911714 199.976744,536.820714 L199.976744,502.882264 C199.640516,502.973264 199.346998,503.064264 199.048936,503.150714 L199.091646,503.159814 Z M202.726545,501.995014 L202.726545,535.932554 C203.020063,535.833364 203.323577,535.735994 203.611643,535.634074 L203.611643,501.694714 C203.277232,501.792084 202.973718,501.889454 202.6802,501.988644 L202.726545,501.995014 Z M207.243815,500.316064 C206.947571,500.436184 206.660414,500.558124 206.358717,500.680064 L206.358717,534.617604 C206.660414,534.499304 206.947571,534.377364 207.243815,534.253604 L207.243815,500.316064 Z M210.878714,498.739034 C210.591557,498.875534 210.288043,499.005664 209.993616,499.139434 L209.993616,533.076974 C210.288043,532.943204 210.591557,532.812164 210.878714,532.676574 L210.878714,498.739034 Z M214.513612,496.860794 C214.225547,497.023684 213.926576,497.183844 213.628515,497.344914 L213.628515,531.282454 C213.926576,531.121384 214.225547,530.961224 214.513612,530.797424 L214.513612,496.860794 Z M218.148511,494.563954 C217.86408,494.766884 217.562384,494.967084 217.263413,495.168194 L217.263413,529.105734 C217.562384,528.904624 217.86408,528.704424 218.148511,528.501494 L218.148511,494.563954 Z M170.636751,147.93142 C164.736859,148.637843 158.804256,149.036355 152.863005,149.12534 C152.855735,149.422 152.853009,149.71866 152.842104,150.0135 C158.711557,149.92726 164.572697,149.538784 170.4023,148.84961 C170.475906,148.54112 170.557692,148.239 170.636751,147.93142 Z M184.737431,175.8575 C184.383635,175.643347 184.033776,175.427677 183.687854,175.21049 C172.454414,177.583915 161.000412,178.751971 149.519807,178.69488 C148.550198,178.69488 147.58695,178.67395 146.621884,178.65666 C146.513443,178.950287 146.404699,179.243913 146.295652,179.53754 C147.367947,179.55938 148.441151,179.58213 149.519807,179.58213 C161.360536,179.644529 173.171841,178.395393 184.73834,175.8575 L184.737431,175.8575 Z M169.987013,150.9599 C164.257985,151.621753 158.499457,151.995928 152.733057,152.08102 L152.703069,152.51509 C152.248707,152.52055 151.787075,152.52965 151.324534,152.52965 C144.636414,152.540399 137.954878,152.109031 131.323504,151.23836 C131.36894,151.54139 131.406198,151.84533 131.443456,152.14836 C138.035587,153.007359 144.676836,153.432937 151.324534,153.42236 C152.276878,153.42236 153.21559,153.40507 154.157029,153.39051 C154.165207,153.23581 154.174295,153.08111 154.184291,152.92732 C159.60029,152.79628 164.846357,152.45048 169.843434,151.86535 C169.886144,151.56232 169.937033,151.26111 169.987921,150.9599 L169.987013,150.9599 Z M169.958842,159.82603 C163.870351,160.522709 157.749555,160.899056 151.621687,160.95352 C151.567164,161.25018 151.509914,161.54684 151.452664,161.84259 C157.714748,161.794707 163.969737,161.409829 170.190567,160.68962 C170.104238,160.40479 170.029723,160.11632 169.959751,159.82603 L169.958842,159.82603 Z M172.496001,165.39978 C165.144438,166.368764 157.738077,166.861492 150.32312,166.87489 C150.246787,167.17337 150.169242,167.471547 150.090486,167.76942 C157.784031,167.763747 165.468724,167.246946 173.093942,166.22242 C172.887965,165.952453 172.688954,165.67824 172.49691,165.39978 L172.496001,165.39978 Z M178.159174,171.31478 C177.842937,171.05907 177.53488,170.80063 177.231366,170.54037 C168.084521,172.062261 158.826547,172.81503 149.554338,172.7908 C149.24719,172.7908 148.942767,172.78261 148.636527,172.78079 C148.545654,173.07563 148.448421,173.37047 148.353913,173.6644 C148.754661,173.6644 149.150865,173.67714 149.554338,173.67714 C159.139178,173.705916 168.709038,172.916822 178.160082,171.31842 L178.159174,171.31478 Z M152.381381,155.92213 C158.342615,155.83113 164.098477,155.47532 169.568999,154.8456 C169.58263,154.54621 169.606257,154.24955 169.628066,153.95198 C164.175718,154.58079 158.43167,154.94206 152.479523,155.03397 C152.448627,155.337 152.41773,155.63002 152.38229,155.92577 L152.381381,155.92213 Z M186.115967,122.48873 C186.44129,122.11381 186.768128,121.73889 187.096481,121.36397 C174.880731,124.262062 162.359387,125.667633 149.806055,125.54997 C149.561608,125.54997 149.321705,125.53996 149.079075,125.53905 C149.184488,125.834497 149.287779,126.131763 149.388951,126.43085 C149.528894,126.43085 149.666112,126.43631 149.806964,126.43631 C162.022271,126.540725 174.208009,125.217124 186.116875,122.49237 L186.115967,122.48873 Z M181.087084,128.583 C171.129289,130.481132 161.015847,131.441128 150.879259,131.45041 C150.953774,131.74525 151.029199,132.03918 151.100079,132.33584 C160.876222,132.3185 170.631311,131.427411 180.24924,129.67318 C180.526401,129.30554 180.807197,128.947 181.087084,128.583 Z M172.847678,141.73341 C166.187279,142.640192 159.478504,143.145545 152.757593,143.24674 C152.776676,143.53248 152.785763,143.82277 152.801212,144.11033 C159.363533,144.02011 165.915288,143.55312 172.424212,142.71166 C172.564156,142.38042 172.703191,142.051 172.849495,141.72977 L172.847678,141.73341 Z M176.315371,135.34066 C168.301914,136.596809 160.207629,137.265918 152.09695,137.34266 C152.143295,137.6375 152.187823,137.93234 152.229624,138.229 C160.087392,138.146513 167.929761,137.513426 175.699256,136.33438 C175.901901,136.00132 176.109091,135.66917 176.317189,135.33702 L176.315371,135.34066 Z M149.30353,220.02981 C142.810762,220.029997 136.324949,219.60442 129.887719,218.75581 C129.796847,219.04337 129.693252,219.33093 129.601471,219.61758 C136.133447,220.480846 142.714915,220.914329 149.30353,220.91524 C182.177554,220.91524 210.409812,211.96994 222.274121,199.29 C222.116912,199.05704 221.950615,198.82772 221.779775,198.59931 C210.248968,211.14093 182.117578,220.02617 149.305348,220.02617 L149.30353,220.02981 Z M149.318979,217.07777 C143.151953,217.077993 136.99093,216.692616 130.871868,215.92389 L130.860055,215.95847 C117.956164,214.12664 105.836504,210.57309 95.5788195,205.47345 C90.3644052,202.975739 85.5153977,199.775985 81.1664463,195.96304 C80.9619833,196.17416 80.7656988,196.38983 80.5712317,196.60004 C84.9766208,200.477914 89.8934035,203.730974 95.1835243,206.26788 C106.006435,211.64871 118.869433,215.34695 132.548465,217.10689 C132.55937,217.07686 132.571183,217.04683 132.582997,217.01589 C138.139687,217.639403 143.726607,217.954138 149.31807,217.95865 C181.070727,217.95865 208.489677,209.58665 220.964649,197.56737 C220.782904,197.35989 220.601159,197.15514 220.408509,196.95039 C208.197976,208.80132 180.936236,217.07413 149.320796,217.07413 L149.318979,217.07777 Z M149.270816,225.93389 C142.229879,225.932942 135.197847,225.432708 128.227479,224.43694 C128.15569,224.7245 128.088444,225.01206 128.021199,225.29962 C135.059141,226.313291 142.160452,226.821761 149.270816,226.82114 C183.882321,226.82114 213.370437,216.96675 224.149729,203.27853 C224.058856,202.95457 223.957988,202.63516 223.84258,202.31939 C213.638511,216.00579 184.067701,225.93025 149.272634,225.93025 L149.270816,225.93389 Z M205.054697,221.60684 C190.102542,228.20525 170.279622,231.83888 149.23992,231.83888 C141.834441,231.834778 134.440111,231.263757 127.121561,230.13081 C127.078851,230.44203 127.04432,230.75234 127.007971,231.06356 C134.36696,232.171072 141.798289,232.726504 149.23992,232.72522 C183.86233,232.72522 213.377707,222.92634 224.282403,209.29181 C224.405398,208.683246 224.489474,208.067441 224.534119,207.44815 C220.871959,212.69066 214.267348,217.53914 205.056515,221.6032 L205.054697,221.60684 Z M149.336245,214.123 C143.523102,214.122208 137.71506,213.778238 131.942346,213.09288 C131.828755,213.38317 131.717891,213.67346 131.607026,213.96284 C137.491235,214.658671 143.411151,215.008105 149.336245,215.00934 C179.869393,215.00934 206.382344,207.25068 219.420726,195.94211 C219.223532,195.75192 219.019978,195.56355 218.812789,195.37609 C205.98614,206.48355 179.668565,214.123 149.336245,214.123 Z M199.134356,183.50514 L198.097501,182.98735 C184.955525,187.70206 168.090504,190.50486 149.458014,190.50486 C146.913585,190.50486 144.3946,190.43479 141.890155,190.31285 C141.763842,190.60314 141.638438,190.89343 141.511216,191.18281 C144.117439,191.31476 146.763645,191.39211 149.458014,191.39211 C168.532144,191.3912 185.775195,188.44735 199.137991,183.50423 L199.134356,183.50514 Z M139.334821,196.06314 L138.943161,196.93583 C142.400555,197.17061 145.895207,197.291943 149.427117,197.29983 C171.721768,197.29983 191.535601,193.30493 205.591754,186.79934 C205.251891,186.61734 204.911119,186.44171 204.566712,186.26335 C204.501284,186.29247 204.441308,186.32341 204.37588,186.35435 C189.937154,192.84174 170.4232,196.4144 149.427117,196.4144 C145.999408,196.40803 142.636218,196.287 139.338456,196.06223 L139.334821,196.06314 Z M194.312663,113.33777 C182.232986,117.35087 166.990039,119.65135 149.8315,119.65135 C148.766474,119.65135 147.712354,119.641947 146.669138,119.62314 C146.803629,119.91798 146.931759,120.21737 147.063524,120.51403 C147.97861,120.52859 148.900057,120.5386 149.8315,120.5386 C166.405729,120.5386 181.214306,118.38827 193.158583,114.61086 L194.312663,113.33777 Z M192.032673,179.907 C191.664639,179.71681 191.300241,179.5248 190.935842,179.33188 C177.421543,182.949532 163.480819,184.720664 149.492545,184.59714 C147.759607,184.59714 146.046661,184.56347 144.350072,184.50614 C144.230121,184.79825 144.111986,185.09127 143.986582,185.38338 C145.810696,185.444047 147.644502,185.476807 149.488002,185.48166 C165.32889,185.48621 179.905742,183.4469 192.032673,179.907 Z M204.965642,198.90689 C208.741475,197.2542 212.348415,195.238829 215.735847,192.88906 C215.472317,192.69705 215.206969,192.50595 214.935261,192.31667 C201.194435,201.85893 176.95057,208.21437 149.367141,208.21437 C144.267378,208.21437 139.211234,207.95866 134.256867,207.4618 C134.135098,207.74663 134.017873,208.02964 133.893378,208.31265 C139.033359,208.838582 144.196763,209.101913 149.363506,209.10162 C170.499533,209.10435 190.245212,205.48346 204.965642,198.90962 L204.965642,198.90689 Z M211.172232,189.89789 C210.82934,189.69223 210.482813,189.488087 210.132651,189.28546 C195.983808,197.20246 174.027202,202.30665 149.398038,202.30665 C145.079778,202.30665 140.861478,202.1201 136.759495,201.77703 C136.632274,202.061557 136.505355,202.346083 136.37874,202.63061 C140.66065,202.99461 145.011624,203.19299 149.398038,203.19299 C174.806888,203.203 197.001579,198.04421 211.172232,189.90426 L211.172232,189.89789 Z M103.11033,32.81096 C114.828334,37.94427 130.935479,40.82624 150.261326,40.82624 C175.314865,40.82624 195.144146,36.26259 207.250176,28.35924 C207.068431,28.13538 206.881234,27.91516 206.694945,27.69312 C194.758847,35.45633 175.114037,39.94172 150.263144,39.94172 C131.625201,39.94172 116.030577,37.25631 104.532484,32.47244 C104.546115,32.40874 104.558837,32.34504 104.572468,32.28043 C100.936787,30.6813776 97.5171905,28.6291862 94.3947513,26.17251 C94.2057366,26.39455 94.0179335,26.6171967 93.831342,26.84045 C96.7071465,29.1110227 99.8369235,31.0389203 103.157583,32.58528 C103.139409,32.65899 103.12396,32.73543 103.11033,32.81096 Z M150.245878,42.89194 C130.996363,42.89194 114.690208,40.05365 102.800454,34.67191 C102.755018,34.97767 102.715943,35.28161 102.675959,35.58191 C114.662038,40.94545 130.999998,43.77191 150.245878,43.77191 C176.370803,43.77191 196.828922,38.82788 208.794099,30.31665 C208.605085,30.06822 208.418796,29.81888 208.226147,29.57227 C206.076166,31.0882809 203.807604,32.4282003 201.442517,33.579 C189.028429,39.67054 171.324655,42.89194 150.245878,42.89194 Z M102.327918,46.32446 C102.357906,46.67481 102.399707,47.02334 102.438782,47.37096 C113.638814,52.37596 129.411548,55.58735 150.184085,55.58735 C179.909377,55.58735 202.776525,48.92069 213.808442,37.98613 C213.663955,37.72678 213.518559,37.46652 213.369528,37.20808 C202.616589,48.06438 179.861215,54.70101 150.184085,54.70101 C130.885499,54.70101 114.434856,51.80903 102.327918,46.32446 Z M150.217707,48.79693 C130.589255,48.79693 114.081362,45.71476 102.257037,40.31573 C102.242498,40.62331 102.230381,40.9287667 102.220688,41.2321 C114.150426,46.61475 130.652865,49.686 150.214981,49.686 C171.437337,49.686 189.324673,46.42274 201.944133,40.25112 C205.364047,38.6187123 208.573245,36.5762683 211.50119,34.16868 C211.33762,33.91752 211.176776,33.66636 211.00957,33.41793 C208.119381,35.8114938 204.945121,37.838536 201.558834,39.45305 C189.0566,45.56461 171.302846,48.79693 150.214981,48.79693 L150.217707,48.79693 Z M149.950542,99.87068 C182.129392,99.87068 207.031174,92.02739 217.546027,79.68051 C217.842271,78.86151 218.125793,78.04251 218.382053,77.2135 C209.144867,90.44763 183.560633,98.98434 149.950542,98.98434 C144.378737,98.9936785 138.809993,98.7221549 133.265449,98.1708 C133.496871,98.4741333 133.72799,98.7774667 133.958806,99.0808 C139.069473,99.59677 144.413683,99.87068 149.947816,99.87068 L149.950542,99.87068 Z M149.935094,102.82363 C179.901199,102.82363 203.572568,96.04504 215.223326,85.16963 C215.629223,84.33061 216.015734,83.4812767 216.382859,82.62163 C212.452884,86.7238416 207.763351,90.021074 202.575697,92.32951 C189.308316,98.60851 171.104744,101.93274 149.935094,101.93274 C144.917117,101.93274 140.157217,101.72526 135.647216,101.34397 C135.877124,101.65701 136.101579,101.97187 136.330577,102.28673 C140.637932,102.63617 145.169742,102.82363 149.932368,102.82363 L149.935094,102.82363 Z M149.966899,96.91864 C183.982281,96.91864 209.84095,88.12258 219.129025,74.5017 C219.343484,73.63811 219.541586,72.76724 219.710609,71.88363 C212.017346,86.46183 185.489855,96.0323 149.966899,96.0323 C143.541615,96.046272 137.121142,95.6792028 130.739194,94.93302 C130.99909,95.26062 131.258379,95.5894333 131.517063,95.91946 C137.642668,96.5965288 143.801383,96.9288978 149.964173,96.915 L149.966899,96.91864 Z M149.982348,93.9666 C185.29448,93.9666 211.799252,84.4571 220.04502,69.90165 C220.170424,69.05444 220.271292,68.19631 220.353077,67.32908 C213.834795,82.80454 186.730265,93.08208 149.983257,93.08208 C142.666854,93.1062066 135.357437,92.6270254 128.106619,91.64792 C128.374996,91.97916 128.642766,92.3110067 128.909932,92.64346 C135.896878,93.5436787 142.935107,93.9856672 149.979622,93.9666 L149.982348,93.9666 Z M220.463033,65.95134 C220.513921,65.1742 220.544212,64.3894767 220.553905,63.59717 C214.6581,79.50761 187.294583,90.12731 149.993253,90.12731 C141.746189,90.1628589 133.509247,89.5448602 125.359544,88.2791 L126.232829,89.34835 C134.10081,90.4924692 142.042827,91.0494065 149.993253,91.01456 C186.050539,91.01456 212.907896,81.06826 220.460307,65.95134 L220.463033,65.95134 Z M201.06267,105.73472 C201.479472,105.24514 201.894759,104.754347 202.308531,104.26234 C189.356479,110.21647 171.073847,113.75 149.869666,113.75 C147.742342,113.75 145.667723,113.70086 143.621275,113.62624 C143.789389,113.92654 143.959321,114.22684 144.122891,114.52987 C146.022126,114.59448 147.934991,114.63634 149.869666,114.63634 C170.327784,114.6327 188.089717,111.33759 201.059944,105.73472 L201.06267,105.73472 Z M139.940032,107.53652 C140.139951,107.84137 140.336235,108.14986 140.53252,108.45835 C143.604918,108.63034 146.728205,108.73135 149.903289,108.73135 C171.211065,108.73135 189.595473,105.37163 203.063682,99.01437 C205.02827,98.0910383 206.939594,97.0580826 208.788647,95.92037 C209.26391,95.24879 209.725542,94.56993 210.180813,93.88925 C197.472299,102.50786 175.890088,107.8441 149.901471,107.8441 C146.520107,107.84137 143.198718,107.73308 139.937305,107.53652 L139.940032,107.53652 Z M150.1232,66.51008 C132.613893,66.51008 117.392755,63.98483 105.73927,59.55859 C105.894662,59.92259 106.049145,60.28659 106.213624,60.65059 C117.874379,64.95398 132.905594,67.39824 150.1232,67.39824 C183.382523,67.39824 208.136183,59.1682 217.499682,45.98867 C217.380639,45.66653 217.255235,45.35167 217.13074,45.0268 C208.238869,58.23181 183.511562,66.51008 150.120474,66.51008 L150.1232,66.51008 Z M150.154097,60.60509 C131.39802,60.60509 115.27997,57.68217 103.386582,52.61438 C103.48745,53.01842 103.596497,53.41882 103.709179,53.81922 C115.818844,58.84879 131.73243,61.49234 150.154097,61.49234 C181.709561,61.49234 205.569944,54.03034 215.823085,41.94554 C215.692228,41.66162 215.556828,41.37861 215.421428,41.09651 C205.520873,53.144 181.735005,60.606 150.151371,60.606 L150.154097,60.60509 Z M202.01047,62.9538 C189.17019,69.1418 171.217426,72.4178 150.092303,72.4178 C134.538572,72.4178 120.722322,70.5068 109.443232,66.82676 C109.666778,67.20623 109.891233,67.58479 110.122958,67.96244 C121.316628,71.47049 134.879344,73.30505 150.092303,73.30505 C184.896458,73.30505 210.412538,64.35065 218.839142,50.16921 C218.721916,49.74333 218.601056,49.31836 218.475652,48.89521 C215.488674,54.327 209.893656,59.15 202.007744,62.9538 L202.01047,62.9538 Z M150.031419,84.22323 C139.874032,84.306211 129.734691,83.3512265 119.770888,81.37311 C120.028965,81.69616 120.286134,82.02012 120.54603,82.34408 C130.2599,84.2379667 140.137124,85.1643129 150.033236,85.10957 C186.351326,85.10957 213.298648,74.95124 220.466668,59.56587 C220.423958,58.96163 220.366708,58.36012 220.30128,57.75952 C214.397296,73.63083 187.155548,84.22323 150.025967,84.22323 L150.031419,84.22323 Z M150.008701,87.178 C140.821126,87.2359934 131.646771,86.4712791 122.595204,84.89299 L123.440318,85.93221 C132.219365,87.4014385 141.108049,88.1141522 150.008701,88.06252 C186.374044,88.06252 213.362258,77.90965 220.566627,62.53247 C220.566627,61.82995 220.539366,61.12925 220.503925,60.43037 C214.800769,76.45729 187.419987,87.178 150.008701,87.178 Z M150.055955,78.32188 C136.693158,78.32188 124.595307,76.88954 114.252203,74.14134 C114.52482,74.52081 114.797437,74.90028 115.076416,75.27884 C126.530782,78.0209581 138.278665,79.3406753 150.055046,79.20822 C171.319203,79.20822 189.456439,75.89673 202.501181,69.6332 C210.935963,65.58188 216.822682,60.38487 219.821473,54.52174 C219.735447,54.04126 219.642152,53.5626 219.541586,53.08576 C212.776131,68.2682 186.09961,78.31915 150.057772,78.31915 L150.055955,78.32188 Z M105.540259,23.90388 C105.426972,24.2072133 105.316713,24.5105467 105.209484,24.81388 C116.78391,29.50311 132.214054,31.9683 150.307671,31.9683 C171.957128,31.9683 189.677259,28.52304 201.845991,22.43878 C201.628805,22.22493 201.408894,22.01472 201.188983,21.80178 C189.175643,27.72497 171.681784,31.08378 150.307671,31.08378 C132.154987,31.08287 116.891139,28.51212 105.542077,23.90388 L105.540259,23.90388 Z M103.88638,29.22101 C103.8155,29.5025033 103.747043,29.7830867 103.681009,30.06276 C115.331768,35.06776 131.242628,37.8742 150.274957,37.8742 C174.225304,37.8742 193.389399,33.6882 205.57994,26.39273 C205.387291,26.17251 205.19555,25.95229 205.000174,25.7348 C192.970477,32.88285 174.002667,36.98786 150.274957,36.98786 C131.279885,36.98786 115.424458,34.19962 103.888198,29.22101 L103.88638,29.22101 Z M107.723016,18.9462 C107.589131,19.2070667 107.458274,19.46854 107.330447,19.73062 C118.452328,23.82562 133.020093,26.06513 150.338568,26.06513 C169.529015,26.06513 185.617986,23.33513 197.47139,18.45571 C197.2224,18.2455 196.974318,18.03438 196.72351,17.8269 C185.036402,22.54434 169.207327,25.17879 150.338568,25.17879 C133.159128,25.17879 118.722219,22.97568 107.724833,18.9462 L107.723016,18.9462 Z M106.19545,22.24131 C117.619028,26.68393 132.693861,29.01808 150.32312,29.01808 C170.763972,29.01808 187.69533,25.935 199.745928,20.45407 C199.515112,20.2417367 199.282781,20.0294033 199.048936,19.81707 C187.156456,25.13511 170.466819,28.12628 150.32312,28.12628 C133.537158,28.12628 119.110245,25.99779 107.97655,21.9492 L107.97655,21.94374 C105.731557,21.073673 103.542759,20.0646595 101.422828,18.92254 C101.194738,19.12911 100.968466,19.34205 100.747645,19.54953 C102.524737,20.5190351 104.352034,21.3932617 106.221803,22.16851 C106.217259,22.1949 106.208172,22.21856 106.197267,22.24131 L106.19545,22.24131 Z M108.691716,17.16442 C107.486748,16.70942 106.30904,16.24077 105.188583,15.74118 C105.448478,15.53461 105.712917,15.3335 105.975538,15.12966 C107.435556,15.76666 108.96706,16.3669567 110.57005,16.93055 C118.409664,19.3545598 126.492746,20.9036796 134.672155,21.54971 C131.469805,20.8803735 128.366987,19.8004024 125.440421,18.3365 C120.271111,17.5410304 115.172503,16.3385287 110.192021,14.74018 C110.360438,14.48902 110.531581,14.2390733 110.70545,13.99034 C114.856094,15.3125662 119.091743,16.3505418 123.383068,17.09708 C122.341185,16.4026534 121.431254,15.527807 120.695969,14.51359 C118.236355,14.0118767 115.885787,13.4440367 113.644266,12.81007 C113.590651,12.87559 113.536128,12.9402 113.483422,13.00572 C112.398404,12.67994 111.337014,12.34051 110.310155,11.98197 C110.613063,11.77449 110.920515,11.5691333 111.232511,11.3659 C111.67506,11.51605 112.141235,11.65255 112.595598,11.79633 C112.665569,11.75174 112.735541,11.70533 112.806422,11.66256 C115.120943,12.3487 117.569048,12.95931 120.13256,13.49894 C119.859951,12.8985288 119.716301,12.2474771 119.710912,11.58794 C119.710912,11.52424 119.720908,11.46145 119.723634,11.39866 C118.120644,11.06105 116.543098,10.70433 115.039158,10.30666 C115.402648,10.09554 115.766138,9.88988 116.129628,9.68422 C117.335203,9.98755333 118.570765,10.2723833 119.836316,10.53871 C120.001946,9.86677545 120.290659,9.23145587 120.687791,8.66502 C120.041688,8.53489 119.383771,8.41204 118.752207,8.27372 C119.168403,8.05896 119.586416,7.84844667 120.006247,7.64218 C120.429713,7.73318 120.874079,7.80689 121.304815,7.89061 C121.879788,7.25611109 122.522801,6.68696265 123.222224,6.19346 C123.19678,6.188 123.170427,6.18436 123.144074,6.17981 L123.371255,6.08335 C128.549168,2.46246 138.671452,4.54747351e-13 150.314032,4.54747351e-13 C161.514064,4.54747351e-13 171.305572,2.27955 176.637968,5.67931 C177.059617,5.86131 177.480356,6.03512 177.899278,6.21985 C177.772966,6.24169 177.642109,6.25989 177.515796,6.28082 C178.21136,6.78054141 178.848191,7.35751571 179.414122,8.00072 C179.959357,7.89971 180.521858,7.80507 181.059823,7.69769 C181.483894,7.90638333 181.904331,8.11871667 182.321132,8.33469 C181.565982,8.49394 180.784479,8.63681 180.009337,8.78423 C180.400567,9.36553854 180.675532,10.0172957 180.819011,10.70342 C182.254796,10.42132 183.66241,10.12193 185.024588,9.79342 C185.391713,10.0009 185.757626,10.2108067 186.122328,10.42314 C184.449366,10.84083 182.699162,11.21211 180.915335,11.56428 L180.915335,11.5843 C180.906848,12.3261779 180.726751,13.0559882 180.389184,13.71643 C183.200778,13.17043 185.881819,12.54162 188.432306,11.83 C188.778833,12.0490067 189.122937,12.2707433 189.464617,12.49521 C186.429477,13.3679 183.180786,14.12229 179.741263,14.75929 C178.963697,15.7461472 178.026928,16.5959586 176.969653,17.27362 C181.888726,16.4916883 186.744226,15.3511566 191.497434,13.86112 C191.798222,14.07042 192.095375,14.28427 192.392528,14.49812 C186.680522,16.3261505 180.823131,17.6626343 174.88413,18.49302 C171.986274,19.8960445 168.926452,20.935246 165.774165,21.58702 C176.733385,20.64244 186.303164,18.67502 194.184533,15.81762 C194.487138,16.04785 194.787017,16.28263 195.085988,16.5165 C184.322144,20.49684 170.513164,22.73362 154.52688,23.0685 C153.148345,23.14039 151.742547,23.18134 150.312215,23.18134 C148.821301,23.18134 147.358254,23.1409967 145.923075,23.06031 C131.19083,22.72179 118.609537,20.69431 108.665363,17.21902 L108.691716,17.16442 Z M145.866734,22.16942 C147.343411,22.204 148.83372,22.22766 150.354016,22.22766 C151.807976,22.22766 153.243761,22.20582 154.665006,22.17488 C160.478692,21.9700052 166.22672,20.8743953 171.709046,18.92618 C172.684391,18.5545346 173.638491,18.12922 174.566985,17.65218 C175.946853,16.9724375 177.214917,16.0855724 178.327288,15.02228 C178.660223,14.6904366 178.961134,14.3278617 179.226016,13.93938 C179.689351,13.2946697 179.963784,12.5332464 180.018424,11.74082 C180.018424,11.69077 180.029329,11.64072 180.029329,11.59067 C180.026227,11.3456881 179.997599,11.1016994 179.943909,10.86267 C179.782222,10.1738387 179.472069,9.52874709 179.035184,8.9726 C178.82989,8.69823742 178.606769,8.43771662 178.367271,8.19273 C177.716017,7.54657251 176.996286,6.97351993 176.220864,6.48375 C175.851922,6.24442 175.455718,6.00964 175.039522,5.7785 C173.913322,5.16677576 172.745794,4.63464515 171.545475,4.186 C170.932995,3.95304 170.291738,3.72978667 169.621705,3.51624 C167.585798,2.87869774 165.511559,2.37111208 163.411481,1.99654 C162.039307,1.7472 160.598069,1.53638333 159.087769,1.36409 C153.298701,0.726523075 147.457509,0.72225122 141.667517,1.35135 C140.162669,1.51879 138.724461,1.72627 137.352892,1.97379 C135.252132,2.34370745 133.176734,2.84580883 131.139033,3.47711 C130.472635,3.68701667 129.833196,3.90693333 129.220715,4.13686 C128.019903,4.57938283 126.850942,5.10417721 125.722125,5.70752 C125.300477,5.93502 124.898821,6.16798 124.526244,6.40458 C123.74706,6.89095785 123.021755,7.45896034 122.36257,8.099 C122.11718,8.34105657 121.887415,8.59849972 121.674666,8.86977 C121.230685,9.41076012 120.903896,10.0382941 120.715053,10.71252 C120.640702,10.9948011 120.601031,11.2851138 120.596918,11.57702 L120.596918,11.59249 C120.617512,12.3568472 120.8514,13.1001626 121.272101,13.73827 C121.507562,14.1144778 121.778709,14.4670669 122.081774,14.79114 C123.158473,15.8912461 124.40785,16.8073077 125.780284,17.50294 C126.696049,17.9910703 127.639039,18.4261592 128.6046,18.80606 C134.14743,20.8270181 139.973371,21.9617197 145.868551,22.16851 L145.866734,22.16942 Z M221.920627,492.187034 C221.632562,492.323534 221.329047,492.453664 221.034621,492.587434 L221.034621,526.524974 C221.329047,526.391204 221.632562,526.260164 221.920627,526.124574 L221.920627,492.187034 Z M225.464653,488.638034 C225.176588,488.774534 224.873074,488.904664 224.578647,489.038434 L224.578647,522.975974 C224.873074,522.842204 225.176588,522.711164 225.464653,522.575574 L225.464653,488.638034 Z M79.1136373,525.746014 C79.3998856,525.881604 79.7043084,526.011734 79.9987351,526.145504 L79.9987351,492.207964 C79.7043084,492.074194 79.3998856,491.944064 79.1136373,491.807564 L79.1136373,525.746014 Z M76.4565264,489.039344 C76.1620996,488.905574 75.8576768,488.774534 75.5714286,488.638944 L75.5714286,522.576484 C75.8576768,522.712074 76.1620996,522.843114 76.4565264,522.976884 L76.4565264,489.039344 Z M94.5783137,498.014674 C103.537834,502.352115 113.015927,505.520807 122.780584,507.443184 L122.780584,541.527234 L123.66659,541.649174 L123.66659,507.631554 C124.575315,507.813554 125.495853,507.963704 126.412756,508.124774 L126.412756,541.996794 C126.707183,542.031981 127.002518,542.066561 127.298763,542.100534 L127.298763,508.337714 C128.207487,508.473608 129.122876,508.601311 130.044929,508.720824 L130.044929,542.390824 C130.339355,542.421158 130.634691,542.451491 130.930935,542.481824 L130.930935,508.830024 C131.843295,508.942864 132.75838,509.047211 133.676192,509.143064 L133.676192,542.722064 C133.970619,542.746938 134.265955,542.770598 134.562199,542.793044 L134.562199,509.236794 C135.475164,509.325974 136.390553,509.407268 137.308365,509.480674 L137.308365,542.991424 C137.6037,543.010534 137.898127,543.027824 138.194371,543.046024 L138.194371,509.550744 C139.107337,509.618084 140.022423,509.677234 140.939629,509.728194 L140.939629,543.190714 L141.825635,543.229844 L141.825635,509.770964 C142.739812,509.815858 143.655201,509.852561 144.571801,509.881074 L144.571801,543.329034 C144.867137,543.338134 145.161563,543.347234 145.457808,543.354514 L145.457808,509.906554 C146.371985,509.929608 147.287373,509.944168 148.203974,509.950234 L148.203974,543.405474 C148.499309,543.405474 148.793736,543.413664 149.08998,543.415484 L149.08998,509.958424 L149.226289,509.958424 C150.099573,509.958424 150.968314,509.949324 151.835237,509.936584 L151.835237,543.412754 C152.131482,543.412754 152.425908,543.412754 152.721244,543.405474 L152.721244,509.917474 C153.639662,509.899881 154.55505,509.876221 155.46741,509.846494 L155.46741,543.372714 C155.763654,543.365434 156.058081,543.355424 156.353416,543.347234 L156.353416,509.815554 C157.273046,509.779154 158.188132,509.736081 159.098674,509.686334 L159.098674,543.255324 C159.395827,543.243494 159.688436,543.228024 159.98468,543.215284 L159.98468,509.636284 C160.905521,509.581684 161.82091,509.521018 162.730846,509.454284 L162.730846,543.083334 C163.027999,543.066044 163.320608,543.044204 163.616853,543.025094 L163.616853,509.384214 C164.537694,509.309594 165.452779,509.227998 166.36211,509.139424 L166.36211,542.833994 C166.659263,542.811244 166.951872,542.784854 167.248116,542.760284 L167.248116,509.052064 C168.169563,508.957424 169.084952,508.856414 169.994282,508.749034 L169.994282,542.520954 C170.291435,542.492744 170.584045,542.459984 170.880289,542.429954 L170.880289,508.638014 C171.802342,508.523354 172.71773,508.402021 173.626455,508.274014 L173.626455,542.138754 C173.923608,542.104174 174.216217,542.066864 174.512461,542.031374 L174.512461,508.145704 C195.588513,505.031684 212.7625,498.141164 221.857017,489.308704 C222.53119,488.315189 223.095492,487.251213 223.539975,486.135534 C219.707883,490.815664 213.483119,495.144534 205.116491,498.830034 C190.122534,505.436634 170.273261,509.075724 149.229924,509.075724 C141.82966,509.072332 134.440385,508.504977 127.126105,507.378574 C102.199787,503.141614 83.527313,492.788544 75.9321923,482.931424 C75.9615544,483.528093 76.0264924,484.122473 76.1266593,484.711384 C80.1077821,489.371494 86.4234185,493.977914 94.5764962,498.014674 L94.5783137,498.014674 Z M94.781868,217.90496 C105.116391,222.879495 116.119783,226.319049 127.445067,228.11516 L127.43598,228.16521 C127.94941,228.24165 128.470109,228.3099 128.987173,228.38088 C129.027157,228.38725 129.065323,228.39544 129.105307,228.4009 L129.105307,228.4009 C135.783928,229.309892 142.516252,229.765931 149.256277,229.7659 C184.248537,229.7659 214.005635,219.72314 224.551385,205.82835 C224.533415,205.386119 224.490333,204.94527 224.422346,204.50794 C220.770182,209.75591 214.184654,214.60257 204.999265,218.66117 C190.08982,225.25048 170.292344,228.87956 149.256277,228.87956 C142.569446,228.877844 135.890332,228.42485 129.264334,227.52366 C117.438754,225.799296 105.943211,222.286697 95.1708022,217.10598 C86.8577889,212.9855 80.4231096,208.13975 76.5764781,203.30765 C76.4628875,203.67165 76.3611103,204.03565 76.2738727,204.41148 C80.2231901,209.15622 86.5597272,213.83362 94.781868,217.9086 L94.781868,217.90496 Z M130.61379,222.72796 L130.632874,222.66608 C136.820415,223.455433 143.051446,223.853891 149.288991,223.85909 C183.14262,223.85909 212.081865,214.40055 223.350051,201.14822 C223.219801,200.87886 223.081069,200.612533 222.933855,200.34924 C212.094587,213.52149 183.184421,222.97184 149.288991,222.97184 C142.734751,222.970438 136.187733,222.536337 129.690526,221.67236 C117.789403,219.990983 106.217255,216.486874 95.3798088,211.28289 C88.0691189,207.65381 82.3087132,203.54789 78.4457247,199.36189 C78.2694321,199.63489 78.1031355,199.91517 77.9431999,200.19636 C87.2203701,210.14903 106.647995,219.29089 130.61379,222.73433 L130.61379,222.72796 Z M95.3879874,200.44206 C106.702518,206.07587 120.318849,209.84873 134.803011,211.47217 L134.855717,211.34659 C139.54201,211.79431 144.377334,212.05002 149.351693,212.05002 C170.488629,212.05002 190.257934,208.42458 205.021983,201.84164 C209.539204,199.893148 213.802047,197.399816 217.715958,194.41695 C217.477872,194.22039 217.236152,194.02383 216.988978,193.83 C203.6489,204.16669 178.336375,211.16277 149.351693,211.16277 C143.912839,211.160965 138.478041,210.865393 133.070982,210.27734 L133.047355,210.33467 C112.524717,207.70932 95.2071511,200.85884 84.6695799,192.83173 C84.4278592,193.0201 84.1934082,193.2112 83.9589572,193.4023 C87.5314411,196.116604 91.3591466,198.476429 95.3879874,200.44843 L95.3879874,200.44206 Z M88.0854759,190.40931 C99.5799342,197.90498 116.91931,203.90552 137.24748,205.82744 L137.323813,205.65636 C141.24496,205.9694 145.264249,206.14594 149.379863,206.14594 C170.509529,206.14594 190.229763,202.5296 204.907484,195.96486 C207.889401,194.645436 210.77133,193.110143 213.530372,191.37118 C213.23958,191.180687 212.944851,190.991103 212.646183,190.80243 C198.63274,199.53843 175.506606,205.25869 149.379863,205.25869 C144.621781,205.25869 139.980924,205.03756 135.488189,204.62624 L135.437301,204.74454 C120.88771,203.17479 107.246844,199.44106 95.9850195,193.82454 C93.5716475,192.627226 91.2249025,191.29971 88.9551254,189.84784 C88.6625161,190.03985 88.3735417,190.22731 88.0854759,190.41568 L88.0854759,190.40931 Z M93.1189019,187.39994 C93.9870368,187.876173 94.8787986,188.34361 95.7941873,188.80225 C108.183739,194.99025 123.502111,198.91599 139.795544,200.15996 C139.829167,200.08625 139.861881,200.01254 139.895504,199.93974 C143.040903,200.135087 146.21417,200.23549 149.415304,200.24095 C173.285683,200.24095 194.313572,195.67548 208.498764,188.35635 C208.169806,188.17435 207.838424,187.99235 207.504619,187.81035 C206.513201,188.30994 205.499973,188.80316 204.436765,189.28 C189.95442,195.77558 170.415022,199.35461 149.415304,199.35461 C145.539593,199.35461 141.748394,199.199 138.047158,198.92054 L137.969008,199.09253 C120.465153,197.51459 105.176769,192.90453 93.993095,186.92037 C93.7004856,187.08417 93.4102996,187.24615 93.1225368,187.40631 L93.1189019,187.39994 Z M98.9011169,184.36873 C111.31157,190.01892 126.401851,193.49239 142.365418,194.42787 C142.405402,194.33687 142.444477,194.24587 142.484461,194.15942 C144.774447,194.26316 147.086242,194.33687 149.4462,194.33687 C170.137861,194.33687 188.691292,190.88706 202.473919,185.1759 L201.484318,184.6754 C187.900702,190.14905 169.712578,193.44962 149.4462,193.44962 C146.48194,193.44962 143.53949,193.35862 140.622484,193.18936 L140.526159,193.40594 C124.91336,192.26662 110.970798,188.6885 99.9879516,183.82546 L98.9011169,184.36873 Z M105.404859,181.1628 C118.093584,185.678991 131.402751,188.205511 144.861684,188.65301 L144.984362,188.35726 C146.470127,188.40094 147.96407,188.43188 149.477097,188.43188 C166.92461,188.43188 182.835471,185.96032 195.64031,181.74611 L194.566197,181.20011 C182.00217,185.20411 166.477518,187.54281 149.477097,187.54281 C147.336142,187.54281 145.223054,187.49913 143.137834,187.41177 C143.104211,187.49094 143.070588,187.5692 143.037874,187.64837 C130.597666,187.074523 118.305966,184.699967 106.545309,180.5986 L105.404859,181.1628 Z M112.472011,177.58832 C123.773055,180.832074 135.445403,182.599377 147.198924,182.8463 C147.243452,182.72982 147.289797,182.61152 147.331598,182.49413 C148.058578,182.50596 148.780105,182.5278 149.507994,182.5278 C162.59737,182.621789 175.647467,181.082657 188.356882,177.94595 C187.993392,177.745143 187.632022,177.54282 187.272773,177.33898 C174.901595,180.286002 162.221375,181.732367 149.505267,181.64692 C148.162172,181.64692 146.836343,181.61962 145.514149,181.58504 C145.475982,181.68423 145.436907,181.78251 145.398741,181.8817 C134.64076,181.521588 123.963842,179.880228 113.593377,176.99227 C113.223223,177.193077 112.849435,177.393883 112.472011,177.59469 L112.472011,177.58832 Z M119.46283,173.52608 C129.263242,175.732693 139.26978,176.891847 149.314435,176.98408 C149.35351,176.86487 149.391677,176.74566 149.430752,176.62645 L149.540708,176.62645 C160.21264,176.669278 170.863795,175.680683 181.346071,173.67441 C180.99288,173.431743 180.644838,173.189077 180.301946,172.94641 C170.159384,174.844847 159.860671,175.781438 149.542525,175.74375 C148.916414,175.74375 148.295755,175.72919 147.67237,175.72191 L147.55787,176.05133 C138.452769,175.862876 129.387348,174.791041 120.48878,172.85086 C120.15134,173.079573 119.809357,173.308287 119.46283,173.537 L119.46283,173.52608 Z M125.486766,168.88508 C133.949705,170.376181 142.527148,171.119479 151.120071,171.10639 C151.157329,170.97353 151.190952,170.83976 151.226392,170.70508 C159.311536,170.653015 167.382688,170.023823 175.378476,168.82229 C175.111311,168.55475 174.850507,168.28448 174.59879,168.01057 C166.31344,169.241829 157.947665,169.850195 149.571604,169.83057 L149.524351,169.83057 C149.489819,169.9516 149.45347,170.07263 149.41803,170.19457 C141.661964,170.116341 133.924599,169.416439 126.280082,168.10157 C126.023216,168.370323 125.758777,168.63301 125.486766,168.88963 L125.486766,168.88508 Z M151.262741,165.21141 C151.700746,165.21141 152.130573,165.19958 152.565852,165.19685 C152.596749,165.05125 152.62401,164.90565 152.652181,164.76005 C158.902469,164.67654 165.14365,164.253984 171.348282,163.49424 C171.20016,163.21305 171.062034,162.92822 170.931178,162.64066 C164.327282,163.445354 157.682595,163.868598 151.030107,163.90829 C151.000119,164.04479 150.968314,164.18129 150.939235,164.31688 C143.973901,164.311062 137.01764,163.813576 130.12217,162.82812 C129.98465,163.109613 129.839254,163.387467 129.685982,163.66168 C136.83118,164.702139 144.042399,165.221599 151.262741,165.21596 L151.262741,165.21141 Z M153.591802,159.28913 C153.612703,159.13898 153.630877,158.98883 153.649961,158.83413 C159.175007,158.71674 164.524669,158.37913 169.618979,157.79036 C169.590506,157.49916 169.570514,157.205533 169.559003,156.90948 C164.01033,157.54648 158.167231,157.90502 152.11149,157.98692 C152.090589,158.12797 152.06878,158.26902 152.04697,158.41098 C151.797071,158.41098 151.548989,158.41917 151.297272,158.41917 C144.730503,158.423986 138.170517,157.996578 131.659732,157.13971 C131.63974,157.4391 131.606118,157.73394 131.56886,158.02696 C138.109526,158.887055 144.699548,159.315982 151.296364,159.31097 C152.064236,159.31916 152.825747,159.30369 153.591802,159.29368 L153.591802,159.28913 Z M129.80866,145.1086 C129.91589,145.420427 130.018576,145.733467 130.116718,146.04772 C137.153443,147.039225 144.251211,147.532758 151.357248,147.52465 C152.327766,147.52465 153.286471,147.50827 154.246084,147.4928 C154.246084,147.33355 154.233362,147.17612 154.227001,147.01869 C159.924341,146.894168 165.611744,146.481106 171.267406,145.78109 C171.368274,145.47169 171.47823,145.16502 171.588185,144.85835 C165.380243,145.641088 159.133827,146.079467 152.877545,146.17148 C152.877545,146.31981 152.877545,146.46814 152.884814,146.61647 C152.375929,146.62284 151.870678,146.63285 151.357248,146.63285 C144.147099,146.645207 136.945482,146.135797 129.80866,145.1086 L129.80866,145.1086 Z M127.037959,138.77773 C127.225156,139.12899 127.408718,139.48116 127.583194,139.83424 C135.458277,141.054125 143.416714,141.654135 151.385419,141.62876 C152.196001,141.62876 152.995679,141.61329 153.798083,141.60237 L153.743559,141.14737 C160.49122,141.016905 167.225062,140.482692 173.909068,139.54759 C174.078091,139.21817 174.251052,138.889357 174.42795,138.56115 C167.162055,139.624236 159.833794,140.203963 152.491337,140.29652 C152.507694,140.4403 152.523142,140.58499 152.53859,140.72877 C152.155108,140.73423 151.773444,140.74151 151.385419,140.74151 C143.229499,140.755232 135.086255,140.097513 127.037959,138.775 L127.037959,138.77773 Z M123.669316,133.22673 C132.819977,134.936195 142.111517,135.775612 151.41995,135.73378 C151.888852,135.73378 152.348667,135.72195 152.814843,135.7174 C152.782129,135.56543 152.748506,135.41437 152.715792,135.2624 C161.123439,135.165962 169.511685,134.431306 177.808406,133.06475 C178.048309,132.71349 178.289121,132.36314 178.535386,132.0137 C169.624337,133.547437 160.602366,134.344252 151.560803,134.39608 C151.591699,134.5435 151.61987,134.69183 151.651675,134.84016 C151.574433,134.84016 151.498101,134.84016 151.420859,134.84016 C141.866429,134.885738 132.330408,133.996386 122.948698,132.18478 C123.191327,132.53058 123.433957,132.87638 123.669316,133.224 L123.669316,133.22673 Z M118.307841,126.14511 C129.110931,128.646806 140.167407,129.884797 151.255471,129.83425 C151.208217,129.68228 151.159146,129.53031 151.111893,129.37925 C161.829504,129.375203 172.519771,128.296323 183.022668,126.15876 C183.315883,125.799007 183.612127,125.440467 183.911401,125.08314 C172.77975,127.42558 161.430529,128.573504 150.055955,128.50747 C150.097756,128.64579 150.138648,128.78593 150.179541,128.92607 C139.122404,128.930095 128.104215,127.614048 117.358224,125.00579 C117.679306,125.38435 117.996754,125.763517 118.310567,126.14329 L118.307841,126.14511 Z M111.628715,118.50657 C121.996354,121.71159 134.589461,123.71177 149.098159,123.91106 C149.038183,123.76819 148.978207,123.62714 148.916414,123.48427 C149.215384,123.48427 149.514355,123.49155 149.81696,123.49155 C164.742763,123.49155 178.235506,121.74981 189.50551,118.65308 C189.86173,118.25632 190.218859,117.85956 190.576896,117.4628 C179.138779,120.74699 165.252557,122.6043 149.81696,122.6043 C149.186305,122.6043 148.566555,122.58155 147.938626,122.57427 C147.995876,122.71441 148.051308,122.85546 148.108558,122.99651 C134.229606,122.70986 121.261196,120.67055 110.320151,117.08151 C110.76058,117.554103 111.197676,118.028517 111.631441,118.50475 L111.628715,118.50657 Z M103.4093,109.54853 C115.162745,114.52077 130.063103,117.44005 146.329275,117.95238 C146.256577,117.81224 146.182061,117.67301 146.107546,117.53378 C147.347955,117.5629 148.592908,117.58747 149.851491,117.58747 C168.275884,117.58747 184.511159,114.91935 197.046107,110.30747 C197.451398,109.85429 197.855478,109.39929 198.258346,108.94247 C185.647065,113.841 168.936527,116.69567 149.851491,116.69567 C148.283941,116.69567 146.746379,116.66746 145.222448,116.62742 C145.289694,116.75937 145.355122,116.89132 145.421459,117.02327 C127.616816,116.38627 112.940913,112.96103 102.008047,107.98697 C102.475131,108.50931 102.943124,109.029223 103.412026,109.54671 L103.4093,109.54853 Z M94.4856238,99.04986 C95.8535573,99.9022267 97.3017615,100.721227 98.8302364,101.50686 C110.312881,107.39456 125.739391,111.00271 142.917922,111.90907 C142.838863,111.77985 142.757987,111.65063 142.678928,111.52141 C145.052516,111.62333 147.455185,111.675807 149.886932,111.67884 C171.199251,111.67884 189.607287,108.31184 203.120023,101.94821 C203.731594,101.66065 204.327718,101.36672 204.912936,101.06824 C205.39759,100.461573 205.875276,99.8494467 206.345995,99.23186 C193.330332,106.4336 173.411996,110.78886 149.886932,110.78886 C147.20892,110.78886 144.525456,110.71333 141.851079,110.57046 L142.070991,110.93446 C123.099546,109.71688 104.766026,104.89297 93.0125811,97.11156 C93.494811,97.7661533 93.9858252,98.4122533 94.4856238,99.04986 Z M84.5250927,82.992 C85.0176215,84.0900667 85.5422585,85.1729667 86.0990038,86.2407 C95.0199539,95.87942 112.885481,103.82554 138.889546,105.78477 L138.629651,105.41622 C142.241831,105.651 146.000316,105.78022 149.91692,105.78022 C177.459456,105.78022 199.692313,100.07088 212.191821,90.727 C212.656179,89.95896 213.108724,89.18546 213.543095,88.40195 C210.223568,91.164695 206.553841,93.4757981 202.629311,95.27518 C189.318312,101.56419 171.091113,104.88933 149.917828,104.88933 C145.72679,104.88933 141.716588,104.74373 137.879044,104.47619 C137.959012,104.59085 138.037162,104.70642 138.116221,104.82199 C110.388305,102.58885 92.1720108,93.52161 84.5250927,82.992 Z M99.2337101,89.8716 C108.707165,94.74829 120.610549,97.9797 134.21961,99.44571 C133.967893,99.11902 133.717085,98.79233 133.463551,98.46655 C99.1237545,94.56538 80.7820558,79.72692 80.7820558,65.6383 L80.0732506,65.6383 C80.2069971,67.5623507 80.454911,69.4767313 80.8156786,71.3713 C83.0602285,78.37739 89.3967656,84.80472 99.2337101,89.86887 L99.2337101,89.8716 Z M99.435447,84.0476 C107.598521,88.25726 117.620845,91.2366 129.032609,92.89917 C128.752722,92.55337 128.472835,92.2087833 128.192948,91.86541 C117.288252,90.19192 107.687576,87.29994 99.8407382,83.25408 C87.7910491,77.04151 81.1546329,68.71501 81.1546329,59.81157 L80.2640827,59.81157 C80.2668089,69.069 87.0740654,77.67487 99.435447,84.04942 L99.435447,84.0476 Z M123.473941,86.086 C123.184966,85.7298867 122.8969,85.37438 122.609743,85.01948 C95.5479229,79.61954 81.5281188,66.75032 81.5281188,53.98848 L80.6375686,53.98848 C80.6375686,54.04945 80.6448384,54.11042 80.6457471,54.17048 C80.7820558,67.40643 95.3943484,80.717 123.473941,86.086 Z M99.8398295,72.40961 C105.56271,75.2893501 111.604317,77.4842168 117.839848,78.94887 C117.547238,78.5636367 117.257658,78.17901 116.971107,77.79499 C117.248571,78.15899 117.527549,78.5214733 117.808042,78.88244 C128.400694,81.1564265 139.211251,82.2550515 150.044141,82.15844 C171.313751,82.15844 189.474613,78.8424 202.562066,72.56886 C211.270374,68.39378 217.274318,63.01386 220.198594,56.93961 C220.129531,56.3996767 220.051683,55.8609567 219.965052,55.32345 C213.694852,70.90629 186.705729,81.2721 150.044141,81.2721 C138.89111,81.3609681 127.76525,80.1575325 116.888413,77.68579 L116.840251,77.623 C97.0709454,72.527 82.2641857,62.78545 81.9215965,48.67317 C81.6835107,49.49217 81.4599644,50.31663 81.2627712,51.14655 C82.5249897,59.332 88.999653,66.794 99.8398295,72.40961 Z M100.042475,66.58561 C104.025853,68.6151836 108.182573,70.2837987 112.462924,71.5715 L112.496547,71.62155 C123.231311,74.66459 135.949822,76.24981 150.074129,76.24981 C171.338286,76.24981 189.446443,72.94287 202.447566,66.68844 C210.540668,62.79364 216.277447,57.83232 219.359841,52.234 C219.259276,51.7978067 219.152652,51.36313 219.03997,50.92997 C216.183848,56.72394 210.407086,61.87363 202.064085,65.88855 C189.182004,72.08656 171.203795,75.36256 150.074129,75.36256 C135.670843,75.36256 122.751504,73.70545 111.932229,70.53228 L111.884975,70.45948 C107.949562,69.2298101 104.125046,67.6690587 100.45231,65.79391 C90.4308943,60.59781 84.2751934,53.75279 82.6976474,46.228 C82.5159025,46.76126 82.3411244,47.2975533 82.1733133,47.83688 C84.2424793,55.06137 90.4009064,61.58789 100.042475,66.58925 L100.042475,66.58561 Z M107.90567,64.07674 L108.008356,64.2733 C119.411941,68.15354 133.776152,70.34482 150.105026,70.34482 C184.155848,70.34482 209.307529,61.74623 218.205761,48.04982 C218.091261,47.69492 217.973127,47.3406267 217.851358,46.98694 C209.517444,60.76252 184.371215,69.45484 150.105026,69.45484 C133.795235,69.45484 119.431025,67.34546 107.902035,63.32599 C107.867503,63.2541 107.831154,63.18312 107.797531,63.11214 C95.2925713,58.422 86.7878171,51.54331 83.8262834,43.225 C83.6615014,43.6254 83.5015658,44.02762 83.3464768,44.43166 C86.7196628,52.65897 95.3943484,59.44302 107.90567,64.08038 L107.90567,64.07674 Z M100.446858,54.94944 C101.805401,55.65742 103.236642,56.32081 104.71332,56.95144 C104.745125,57.03789 104.774204,57.12525 104.804192,57.2117 C116.80481,61.94916 132.303109,64.43983 150.134105,64.43983 C182.561036,64.43983 206.874873,56.58562 216.692734,43.94481 C216.56733,43.64178 216.442835,43.33875 216.311979,43.03481 C206.907587,55.67289 182.642821,63.55076 150.134105,63.55076 C132.287661,63.55076 116.838433,60.91176 105.11952,56.30443 C105.090441,56.21343 105.058635,56.11697 105.028647,56.02324 C95.4643202,51.92824 88.6170799,46.43093 85.2984174,39.9399 C85.1384818,40.26841 84.9749114,40.59692 84.8213369,40.92725 C87.7701485,46.30808 93.0734656,51.10833 100.446858,54.94944 Z M102.872244,50.24929 C102.889509,50.34029 102.904049,50.42583 102.921315,50.51319 C115.086412,55.76844 131.292608,58.5403 150.167728,58.5403 C180.816284,58.5403 204.200496,51.47961 214.862563,39.96811 C214.726254,39.69875 214.587522,39.4303 214.446367,39.16276 C204.095084,50.61238 180.801745,57.65305 150.167728,57.65305 C131.610661,57.65305 115.6789,54.95945 103.670104,49.85981 C103.657382,49.76881 103.642842,49.68418 103.63012,49.59682 C102.752292,49.19005 101.892639,48.77236 101.060247,48.33829 C94.7709633,45.05501 90.0510474,41.041 87.0777003,36.56107 C86.9177647,36.84226 86.7660077,37.12618 86.6115245,37.40919 C89.9310957,42.224 95.3107458,46.66116 102.872244,50.24929 Z M102.20524,43.89112 C102.20524,44.00851 102.209783,44.1259 102.213418,44.24238 C114.165874,49.59045 130.6565,52.63531 150.199533,52.63531 C171.425524,52.63531 189.338304,49.36841 201.996839,43.18587 C205.889046,41.3487354 209.499716,38.9651063 212.71979,36.10698 C212.551676,35.82852 212.37811,35.55279 212.205452,35.27615 C201.087206,45.52639 178.88161,51.74715 150.194081,51.74715 C131.146303,51.74715 115.041884,48.84971 103.279352,43.76372 C103.279352,43.66362 103.279352,43.56534 103.279352,43.46615 C97.2399682,40.61785 92.4555329,37.15166 89.1359617,33.17041 C88.9687563,33.42612 88.807912,33.68547 88.6452503,33.943 C92.443013,38.1495357 97.0588969,41.534788 102.209783,43.89112 L102.20524,43.89112 Z M102.398798,38.15084 C102.39062,38.24184 102.381532,38.33284 102.374263,38.41747 C114.429404,43.86109 130.874594,46.73123 150.23043,46.73123 C171.448242,46.73123 189.311043,43.47343 201.887792,37.31 C204.817779,35.8974987 207.59801,34.1926287 210.186266,32.22128 C210.015425,31.98013 209.84095,31.74171 209.667384,31.50147 C207.121389,33.4451423 204.384442,35.1242526 201.498858,36.51284 C189.04206,42.61712 171.313751,45.84398 150.23043,45.84398 C131.328957,45.84398 115.34449,42.96292 103.649203,37.90787 C103.654656,37.86692 103.658291,37.82688 103.662834,37.78684 C102.914045,37.43376 102.179796,37.07249 101.466447,36.69484 C97.8480099,34.8560131 94.5167076,32.4985727 91.5777048,29.69694 C91.4068646,29.9250467 91.2381447,30.1540633 91.0715452,30.38399 C94.0351088,33.2280526 97.3981524,35.6227362 101.053886,37.492 C101.489165,37.71768 101.948979,37.93153 102.398798,38.15084 Z M104.418893,27.27816 C104.410715,27.30637 104.401627,27.33367 104.393449,27.36188 C115.962423,32.21218 131.621566,34.92216 150.293132,34.92216 C173.111208,34.92216 191.574676,31.10835 203.787027,24.41985 C203.583472,24.20327 203.376283,23.98942 203.169094,23.77557 C191.113044,30.30937 172.861309,34.034 150.293132,34.034 C132.391256,34.034 117.300065,31.53605 105.9819,27.06431 C105.997348,27.01608 106.011887,26.97331 106.027336,26.92144 C103.132537,25.6997787 100.352847,24.2208814 97.7215923,22.50248 C97.4925937,22.73817 97.26723,22.97568 97.0418662,23.2141 C98.4663297,24.1697417 99.9405463,25.0488303 101.458268,25.84764 C102.40425,26.34814 103.40203,26.81861 104.418893,27.27816 Z M118.782195,7.58485 C118.505034,7.51842 118.23696,7.44653 117.964343,7.37919 C117.579952,7.58212 117.194653,7.78141 116.813898,7.99071 C117.198288,8.09172 117.576318,8.19637 117.967978,8.29374 C118.236052,8.05532 118.505034,7.81781 118.782195,7.58485 Z" id="Shape" fill="#BEA48A" fill-rule="nonzero"></path>
                    <rect id="Rectangle-Copy-9" fill="#BEA48A" fill-rule="nonzero" opacity="0.296805246" x="151.250876" y="243" width="1" height="238"></rect>
                    <circle id="Oval-Copy-3" fill="#BEA48A" fill-rule="nonzero" opacity="0.258231027" cx="151.750876" cy="342.5" r="8.5"></circle>
                    <circle id="Oval-Copy-4" fill="#BEA48A" fill-rule="nonzero" opacity="0.258231027" cx="151.750876" cy="631.5" r="8.5"></circle>
                    <circle id="Oval-Copy-5" fill="#BEA48A" fill-rule="nonzero" cx="151.750876" cy="342.5" r="2.5"></circle>
                    <circle id="Oval-Copy-6" fill="#BEA48A" fill-rule="nonzero" cx="151.750876" cy="631.5" r="2.5"></circle>
                </g>
            </g>
        </g>
    </g>
</svg>