<?xml version="1.0" encoding="utf-8"?>
<!-- Generator: Adobe Illustrator 23.0.3, SVG Export Plug-In . SVG Version: 6.00 Build 0)  -->
<svg version="1.1" id="Layer_1" xmlns="http://www.w3.org/2000/svg" xmlns:xlink="http://www.w3.org/1999/xlink" x="0px" y="0px"
	 viewBox="0 0 847.3 1601.1" style="enable-background:new 0 0 847.3 1601.1;" xml:space="preserve">
<style type="text/css">
	.st0{fill:none;stroke-miterlimit:10;}
</style>
<path class="st0" d="M107.9,1231.8l-71.5,81.6l-2.6,5.3L107.9,1231.8z M813.6,1318.6l-2.6-5.3l-71.5-81.6L813.6,1318.6z
	 M837.3,647.4l1.2,36.6l7.8-57L837.3,647.4z M1,627l7.8,57l1.2-36.6L1,627z M839,598.8l-1.7,48.7l9-20.5L839,598.8z M8.4,598.8
	L1,627l9,20.5L8.4,598.8z M839,598.8l-14.6,24.5l12.9,24.2L839,598.8z M23,623.3L8.4,598.8l1.7,48.7L23,623.3z M107.9,1231.8
	l-74.1,86.8l10.9,15.5L107.9,1231.8z M802.7,1334.2l10.9-15.5l-74.1-86.8L802.7,1334.2z M824.4,623.3l-8.9,40.5l8.3,3.8l13.5-20.2
	L824.4,623.3z M23.5,667.6l8.3-3.8L23,623.3l-12.9,24.2L23.5,667.6z M839,598.8l7.4,28.2l-1.2-65.4L839,598.8z M825.4,592.9l-1,30.3
	l14.6-24.5L825.4,592.9z M23,623.3L22,593l-13.6,5.8L23,623.3z M839,598.8l-4.5-29.2l-9.1,23.4L839,598.8z M834.5,569.6l4.5,29.2
	l6.2-37.1L834.5,569.6z M23.5,667.6L10,647.4l13.3,55L23.5,667.6z M23.4,702.5l-13.3-55l-1.2,36.6L23.4,702.5z M31.9,663.8l-8.3,3.8
	l-0.2,34.8L31.9,663.8z M824,702.5l14.5-18.5l-1.2-36.6L824,702.5z M823.9,667.6l0.2,34.8l13.3-55L823.9,667.6z M823.9,667.6
	l-8.3-3.8l8.5,38.7L823.9,667.6z M8.4,598.8L7.8,565l-1.1,0.5L1,627L8.4,598.8z M6.7,565.5l-0.2,0.1l-4.7,42L1.1,627L6.7,565.5z
	 M19.5,567.5l-5.4-5.3l-3.4,1.5L22,593L19.5,567.5z M22,592.9l-11.3-29.2L7.8,565l0.6,33.8L22,592.9z M6.5,565.6L3.3,567l-1.5,40.6
	L6.5,565.6z M6.7,565.5l1.1-0.5l2.9-1.3l3.4-1.5l-6.5-6.5L3.3,567l3.2-1.4L6.7,565.5z M12.3,534.3l-9,32.7l4.3-11.3L12.3,534.3z
	 M725.3,1234.4l14.2-2.6l-24.1-90.4L725.3,1234.4z M122.1,1234.4l-14.2-2.6l-63.2,102.4L122.1,1234.4z M802.7,1334.2l-63.2-102.4
	l-14.2,2.6L802.7,1334.2z M132,1141.4l-24.1,90.4l14.2,2.6L132,1141.4z M813.9,637.7l1.6,26.1l8.9-40.5L813.9,637.7z M23.4,702.5
	L8.9,684l18.5,55.6L23.4,702.5z M824,702.5l-3.9,37.1l18.5-55.6L824,702.5z M23,623.3l8.9,40.5l3.2-6.1L23,623.3z M834.5,569.6
	l1.6-29.2l-1.6,1.9l-8.7,19.9l-0.4,30.8L834.5,569.6z M31.8,585.6l-12.3-18.1L22,593L31.8,585.6z M31.8,585.6L22,593l1,30.3
	L31.8,585.6z M815.6,585.6l-1.7,52.1l10.5-14.4L815.6,585.6z M35.1,657.7l-3.3-72.2L23,623.3L35.1,657.7z M825.4,592.9l-9.8-7.4
	l8.9,37.7L825.4,592.9z M815.6,585.6l9.8,7.4l0.4-30.8L815.6,585.6z M38.1,700.8l-6.2-37.1l-8.5,38.7L38.1,700.8z M35.1,657.7
	l-3.2,6.1l6.2,37.1L35.1,657.7z M836.7,539.7l-0.6,0.7l-1.6,29.2l10.7-8L836.7,539.7z M845.2,561.6l-8.2-22.2l-0.2,0.3L845.2,561.6z
	 M836.9,539.4l-0.7-1l-0.1,0.1L836.9,539.4z M836.2,538.5l-1.7,3.8l1.6-1.9l0.6-0.7l0.2-0.3L836.2,538.5z M705.9,1047.8l-3.9-66.5
	l-1.8,18.1L705.9,1047.8z M815.5,663.8l-7.6,36l16.1,2.7L815.5,663.8z M813.9,637.7l-6,62.1l7.6-36L813.9,637.7z M42.2,637.7
	l-10.3-52.2l3.3,72.2L42.2,637.7z M141.5,1047.8l-9.6,93.6l16.5-69.2L141.5,1047.8z M139.1,921.7l2.4,126.1l6.9,24.5L139.1,921.7z
	 M122.1,1234.4l26.4-162.2l-16.5,69.2L122.1,1234.4z M725.3,1234.4l-9.9-93l-14.9-29.4L725.3,1234.4z M700.5,1112.1l5.4-64.3
	l-5.7-48.4L700.5,1112.1z M700.5,1112.1l14.9,29.4l-9.6-93.6L700.5,1112.1z M813.9,637.7l-9.6-3.3l3.6,65.4L813.9,637.7z
	 M804.3,634.4l9.6,3.3l1.7-52.1L804.3,634.4z M42.2,637.7l-7,20l13.3,23.4L42.2,637.7z M804.3,634.4l-5.4,46.7l9,18.7L804.3,634.4z
	 M48.5,681.1l-13.3-23.4l3,43.1L48.5,681.1z M807.9,699.8l0.7,36.6l15.4-33.9L807.9,699.8z M824,702.5l-15.4,33.9l11.4,3.2
	L824,702.5z M50.7,651.3l-8.5-13.6l6.3,43.4L50.7,651.3z M796.7,651.3l2.2,29.8l5.4-46.7L796.7,651.3z M31.8,585.6l-1.5-24.5
	l-10.8,6.4L31.8,585.6z M30.3,561.1l-22.7-5.4l6.5,6.5l5.4,5.3L30.3,561.1z M817.1,561.1l8.7,1.1l8.7-19.9l1.7-3.8l0.1-0.1
	L817.1,561.1z M825.8,562.2l-8.7-1.1l-1.5,24.5L825.8,562.2z M38.1,700.8l-14.7,1.6l16.7,33.7L38.1,700.8z M40,736.1l-16.7-33.7
	l3.9,37.1L40,736.1z M27.3,739.6l6,10.1l17.2,21.9L27.3,739.6z M796.9,771.5l17.2-21.9l6-10.1L796.9,771.5z M42.2,637.7l1.7-45.2
	l-12-7L42.2,637.7z M804.3,634.4l11.3-48.8l-12,7L804.3,634.4z M43.8,592.6l-13.5-31.5l1.5,24.5L43.8,592.6z M803.6,592.6l12-7
	l1.5-24.5L803.6,592.6z M836.2,538.4l-12.3-13.5l2.6,8.3L836.2,538.4z M25.5,526.7l18-3.3L25.5,526.7l-13.2,7.6L25.5,526.7z
	 M25.6,546.7l-0.1-19.9l-13.2,7.5L25.6,546.7z M25.6,546.7l-13.3-12.4l-4.7,21.3L25.6,546.7z M30.3,561.1l-4.7-14.4l-18,9
	L30.3,561.1z M43.8,592.6l-0.9-5.3l-9.4-22l-3.2-4.2L43.8,592.6z M30.3,561.1l3.2,4.2l-7.9-18.6L30.3,561.1z M704.2,1282.9
	l80.4,73.5l18-22.3L704.2,1282.9z M725.3,1234.4l-21.1,48.5l98.5,51.3L725.3,1234.4z M143.2,1282.9l-98.5,51.3l18,22.3L143.2,1282.9
	z M143.2,1282.9l-21.1-48.5l-77.4,99.8L143.2,1282.9z M143.2,1282.9l-80.4,73.5l18.7,25.5L143.2,1282.9z M704.2,1282.9l61.8,99
	l18.7-25.5L704.2,1282.9z M808.6,736.4l-11.9,25.9l23.3-22.7L808.6,736.4z M796.7,762.3l0.2,9.2l23.2-31.9L796.7,762.3z M50.7,762.3
	l-10.6-26.1l-12.7,3.4L50.7,762.3z M27.3,739.6l23.2,31.9l0.2-9.2L27.3,739.6z M700.2,999.4l1.8-18.1l6.1-62.2l-2.7,7.7L700.2,999.4
	z M42.2,637.7l8.5,13.6l1-20.3l-2.2-14.9L42.2,637.7z M42.2,637.7l7.2-21.6l-2.9-19.6l-2.6-3.9L42.2,637.7z M804.3,634.4l-0.8-41.8
	l-1.6,2.3l-0.1,0.3l-3.9,21L804.3,634.4z M798.1,616.1l-2.4,13l1,22.2l7.6-16.9L798.1,616.1z M50.7,651.3l1.7-15.2l-0.8-5.1
	L50.7,651.3z M46.5,596.5l-0.2-1.3l-3.3-7.9l0.9,5.3L46.5,596.5z M823.9,524.9l-20-1.5l7.2,6.2L823.9,524.9z M826.5,533.2l-2.6-8.3
	l-12.8,4.7L826.5,533.2z M50.7,651.3l7.6,9.3L52.4,636L50.7,651.3z M803.9,589.1l-1.9,5.8l1.6-2.3L803.9,589.1z M803.9,589.1
	l-0.3,3.5l13.5-31.5l-8.5,13.3L803.9,589.1z M795.4,630.3l-6.6,30.6l7.9-9.7L795.4,630.3z M796.7,651.3l-1-22.2l-0.2,1.2
	L796.7,651.3z M796.7,651.3l-8.9,14.6l-8.7,8.3l-1,14.6l20.8-7.7L796.7,651.3z M788.8,660.9l-1.1,4.9l9-14.5L788.8,660.9z
	 M59.6,666.2l-1.3-5.6l-7.6-9.3L59.6,666.2z M69.2,688.8l-0.9-14.5l-8.7-8.1l-8.9-14.9l-2.2,29.8L69.2,688.8z M44.2,323.1l-2.9,66.8
	l6.5-37.1L44.2,323.1z M47.8,352.8l-6.5,37.1l6,55.4L47.8,352.8z M800.1,445.3l6-55.4l-6.5-37.1L800.1,445.3z M799.6,352.8l6.5,37.1
	l-2.9-66.8L799.6,352.8z M826.5,533.2l-13,25.6l22.7-20.5L826.5,533.2z M813.5,558.9l-5,15.6l8.5-13.3l19.1-22.7L813.5,558.9z
	 M798.9,681.1l-21.8,28.1l1,23.6l29.7-33L798.9,681.1z M70.2,709.2l-21.8-28.1l-10.3,19.7L70.2,709.2z M69.2,688.8l-20.8-7.7
	l21.8,28.1l3.2-6.9v-5.7l-4-4.5L69.2,688.8z M778.2,688.8l-0.2,3.3l-4.9,5.5l-0.4,1.8l4.5,9.7L799,681L778.2,688.8z M681,1206.6
	l23.2,76.3l21.1-48.5L681,1206.6z M681,1206.6l44.3,27.8L700.5,1112L681,1206.6z M166.4,1206.6l-44.3,27.8l21.1,48.5L166.4,1206.6z
	 M166.4,1206.6l-17.9-134.3l-26.4,162.2L166.4,1206.6z M137.6,914.4l1.5,7.3l-1.2-6.4L137.6,914.4z M63.2,543L63.2,543l-19.7-19.6
	L56,536L63.2,543z M791.5,536l12.5-12.6L784.5,543l0,0L791.5,536z M811.2,529.6l-7.2-6.2L791.5,536L811.2,529.6z M25.5,526.7
	l0.1,19.9l14-5.8L25.5,526.7z M39.6,540.8l16.3-4.8l-12.5-12.6L39.6,540.8z M25.5,526.7l14.1,14.1l3.9-17.4L25.5,526.7z
	 M774.7,783.9l22.2-12.4l-0.2-9.2L774.7,783.9z M50.7,762.3l-0.2,9.2l22.2,12.4L50.7,762.3z M772.6,699.5l-1.2,5.8l5.7,3.9
	L772.6,699.5z M73.4,707v-4.7l-3.2,6.9L73.4,707z M784.5,543.1l-0.3,2.2l7.3-9.2L784.5,543.1z M77.8,186.1l-23.5,70.4l17.2-41
	L77.8,186.1z M776,215.5l-6.4-29.4L747,150.2L776,215.5z M793.1,256.5l-23.5-70.4l6.4,29.4L793.1,256.5z M806.1,555l7.5,3.9l13-25.6
	L806.1,555z M806.1,555l20.4-21.7l-15.3-3.6L806.1,555z M49.4,616.1l2.2,14.9l0.8,5.1l5.9,24.6l1.3,5.6L58.2,641l-11.9-45.7l0.2,1.3
	L49.4,616.1z M148.5,1072.3l11-95l-20.4-55.6L148.5,1072.3z M159.5,977.2l-12.2-40.6l-5.1-9l-4.3-12.4l1.2,6.4L159.5,977.2z
	 M792.5,624.4l12-43.8l-2.7,14.6l0.1-0.3l1.9-5.8l4.7-14.7l5-15.6l-7.5-3.9L792.5,624.4z M795.7,629.1l2.4-13l3.9-21l2.7-14.6
	l-12,43.8l2.9,5.9L795.7,629.1z M787.8,665.9l1.1-4.9l6.6-30.6l-2.9-5.9L787.8,665.9z M778.2,732.7l18.5,29.6l11.9-25.9L778.2,732.7
	z M807.9,699.8l-29.7,33l30.4,3.6L807.9,699.8z M779.1,674.1l8.7-8.3l-8-1.2L779.1,674.1z M779.7,664.6l8,1.2l4.8-41.4L779.7,664.6z
	 M59.6,666.2l8.7,8.1l-0.6-9.6L59.6,666.2z M59.6,666.2l8-1.6l-9.5-23.7L59.6,666.2z M778.2,732.7l-1.7,38.8l20.2-9.2L778.2,732.7z
	 M796.7,762.3l-20.2,9.3l-1.9,12.3L796.7,762.3z M70.8,771.5l-20.1-9.2l22,21.6L70.8,771.5z M46.1,574.8l-6.5-33.9l-14,5.8
	L46.1,574.8z M33.5,565.3l9.4,22l3.3,7.9L46,574.8l-20.5-28.1L33.5,565.3z M58.2,640.9l-12.1-66.2l0.2,20.4L58.2,640.9z M68.3,674.3
	l0.9,14.5l0.2,3.3l4,4.5v-9.4l-5.8-22.6L68.3,674.3z M778.2,688.8l1-14.6l0.6-9.5l-6.7,33l4.9-5.5L778.2,688.8z M38.1,700.8l35.2,23
	l-3.1-14.7L38.1,700.8z M73.3,723.9L40,736.1l10.7,26.2L73.3,723.9z M73.3,723.9l-22.6,38.4l20.2,9.3L73.3,723.9z M70.2,709.2
	l3.1,14.7l0.1-16.9L70.2,709.2z M73.3,723.9l-35.2-23l1.9,35.3L73.3,723.9z M171.6,1138.9l-12.1-161.6l-11,95L171.6,1138.9z
	 M166.4,1206.6l5.2-67.8l-23.1-66.6L166.4,1206.6z M791.2,562.7l14.9-7.7l5.1-25.4l-19.7,6.4L791.2,562.7z M791.2,562.7l0.3-26.7
	l-7.3,9.2l-1,6.5l-0.3,3.1L791.2,562.7z M63.3,553.4L63.2,543l-7.2-7L63.3,553.4z M46.1,574.8l10.8-10.5l-17.3-23.5L46.1,574.8z
	 M56.9,564.3l6.6,0.1l-0.2-11L55.9,536L56.9,564.3z M56.9,564.3L56,536l-16.3,4.8L56.9,564.3z M153.1,89.9l-56.4,69.8l11.9-14.5
	L153.1,89.9z M108.5,145.3l-30.8,40.8l-6.4,29.4L108.5,145.3z M108.5,145.3l-11.8,14.4L77.8,186L108.5,145.3z M760.6,784.5l3.6,2.5
	l10.5-3.1L760.6,784.5z M86.8,784.5l-16-13l1.9,12.3L86.8,784.5z M86.8,784.5l-3.6,2.5l17.9-12l0,0L86.8,784.5z M72.7,783.9
	l10.5,3.1l3.6-2.5L72.7,783.9z M776.6,771.5l-16,13l14.1-0.6L776.6,771.5z M746.1,774.9l0.2-0.7l1.5-6.3l1.9-8.4l-28.2,121.6
	l7.7-32.7L746.1,774.9l18.1,12.1l-3.6-2.5L746.1,774.9z M771.5,705.3l-1,4.9l6.7-1L771.5,705.3z M777.2,709.2l-6.7,1l7.8,22.5
	L777.2,709.2z M147.3,936.6l12.2,40.6l-3.1-24.5L147.3,936.6z M786.4,607l6.2,17.5l13.5-69.5L786.4,607z M786.4,607l-6.6,57.6
	l12.8-40.2L786.4,607z M786.4,607l19.7-52l-14.9,7.7L786.4,607z M746.2,774.2l-0.2,0.7l14.5,9.6l-9.4-9.5L746.2,774.2z M86.8,784.5
	l14.3-9.4l-0.2-0.8l-4.7,0.7L86.8,784.5z M56.9,564.3l-10.8,10.5l17.8,21.7L56.9,564.3z M63.9,596.4l-0.4-32.1l-6.6-0.1L63.9,596.4z
	 M46.1,574.8L58.2,641l5.7-44.5L46.1,574.8z M58.2,640.9l9.5,23.7l-3.8-68.2L58.2,640.9z M791.2,562.7l-8.3-7.9l-3,34.4L791.2,562.7
	z M786.4,607l4.8-44.3l-11.4,26.6L786.4,607z M779.7,664.6l6.6-57.6l-6.6-17.8V664.6z M747.7,767.9l-1.5,6.3l4.9,0.8L747.7,767.9z
	 M96.3,775l4.7-0.7l-1.4-6L96.3,775z M669.8,1031.8l30.7,80.2l-0.3-112.6L669.8,1031.8z M669.8,1031.8l6,107.1l5.2,67.8l19.5-94.6
	L669.8,1031.8z M669.8,1031.8l30.5-32.4l5.2-72.6l-0.3,0.8l-2.9,5.2L669.8,1031.8z M669.8,1031.8l32.5-99L690.4,954l-7.4,11.8
	L669.8,1031.8z M763.1,741.6L751.2,775l9.4,9.5L763.1,741.6z M778.2,732.7l-15.2,8.8l13.5,30L778.2,732.7z M770.5,710.2l-7.4,31.4
	l15.2-8.8L770.5,710.2z M763.1,741.6l-2.5,42.9l16-13L763.1,741.6z M84.3,741.6l2.5,42.9l9.4-9.5L84.3,741.6z M84.3,741.6l-13.5,30
	l16,13L84.3,741.6z M84.3,741.6l-11-17.7l-2.5,47.6L84.3,741.6z M785.2,279.8l18,43.3l-10.1-66.6L785.2,279.8z M785.2,279.8l14.4,73
	l3.6-29.7L785.2,279.8z M785.2,279.8l8-23.3l-17.2-41L785.2,279.8z M47.8,352.8l14.4-73l-18,43.3L47.8,352.8z M62.2,279.8l-8-23.3
	l-10.1,66.6L62.2,279.8z M62.2,279.8l9.2-64.3l-17.2,41L62.2,279.8z M157.6,95.7l-4.5-5.8l-44.6,55.4L157.6,95.7z M157.6,95.7
	l63.2-48l-67.7,42.2L157.6,95.7z M395.7,6.2l84.2-0.9l-84.5-4.8L293.3,20.6L395.7,6.2z M96.3,775l3.3-6.7L95.1,749L96.3,775z
	 M96.3,775l-1.2-26.1l-1.5-6.2l-9.2-1.1L96.3,775z M752.3,751.3l-1.1,23.6l11.9-33.4L752.3,751.3z M751.1,775l1.1-23.6l-1.6,1.4
	l-1,6.8l-1.9,8.4L751.1,775z M76.9,700.5l-3.4-13.3v9.4v5.7v4.7l-0.1,16.9l11,17.7l-10.7-87.3L76.9,700.5z M67.7,664.6l6-10.3
	l-9.8-57.9L67.7,664.6z M63.3,553.4l0.2,11l0.4,32.1l9.8,57.8L63.1,533.4l0.1,9.5v0.1L63.3,553.4z M67.7,664.6l5.8,22.6l3.4,13.3
	l-3.2-46.2L67.7,664.6z M59.9,465.7l-12.6-20.4L63,533.4L59.9,465.7z M787.5,465.7l-4.4,86l1-6.5l0.3-2.2l0,0l15.6-97.8L787.5,465.7
	z M73.7,654.3L59.9,465.7l3.1,67.7L73.7,654.3z M59.9,465.7L47.8,352.8l-0.5,92.5L59.9,465.7z M799.6,352.8l-12.1,112.9l12.6-20.5
	L799.6,352.8z M171.6,1138.9l22.3-93.3l-34.4-68.3L171.6,1138.9z M704.2,1282.9l-89.1,72.6l150.9,26.4L704.2,1282.9z M232.3,1355.5
	l-89.1-72.6l-61.8,99L232.3,1355.5z M681,1206.6l-65.9,148.9l89.1-72.6L681,1206.6z M166.4,1206.6l-23.2,76.3l89.1,72.6
	L166.4,1206.6z M84.3,741.6l8.4-2.7l-19-84.6L84.3,741.6z M84.3,741.6l9.2,1.1l-0.9-3.8L84.3,741.6z M714.5,131.5l32.5,18.7
	l-54.4-58.6L714.5,131.5z M772.6,699.5l0.4-1.8l6.7-33l-3.9-45.8l-5.4,91.4l1-4.9L772.6,699.5z M775.9,618.8l3.9-29.6l3-34.4
	l0.3-3.1L775.9,618.8z M775.9,618.8l7.2-67.1l4.4-86L775.9,618.8z M779.7,664.6v-75.4l-3.9,29.6L779.7,664.6z M615.1,1355.5
	l4.6,50.8l146.3-24.5L615.1,1355.5z M619.7,1406.3l97.2,68.2l12.7-31.1L619.7,1406.3z M619.7,1406.3l109.8,37.1l17.8-32.6
	L619.7,1406.3z M227.7,1406.3l4.6-50.8l-150.9,26.4L227.7,1406.3z M227.7,1406.3l-127.7,4.5l17.8,32.6L227.7,1406.3z M227.7,1406.3
	l-146.3-24.5l18.6,28.9L227.7,1406.3z M227.7,1406.3l-109.8,37.1l12.7,31.1L227.7,1406.3z M619.7,1406.3l127.7,4.5l18.6-28.9
	L619.7,1406.3z M681,1206.6l-77,107.7l11.1,41.2L681,1206.6z M166.4,1206.6l65.9,148.9l11.1-41.2L166.4,1206.6z M61.7,348.8l-13.9,4
	l12.1,112.9L61.7,348.8z M785.7,348.8l1.8,116.9l12.1-112.9L785.7,348.8z M61.7,348.8l0.5-69l-14.4,73L61.7,348.8z M785.7,348.8
	l13.9,4l-14.4-73L785.7,348.8z M651.2,1007l-6.1,12.5l24.7,12.3l13.2-65.9l-15.4,24.7L651.2,1007z M630.8,1162.9L604,1314.3
	l77-107.7L630.8,1162.9z M645.1,1019.6l-14.2,143.3l38.9-131.1L645.1,1019.6z M216.6,1162.9l-50.2,43.7l77,107.7L216.6,1162.9z
	 M216.6,1162.9l-22.7-117.3l-22.3,93.3l-5.2,67.8L216.6,1162.9z M630.8,1162.9l50.2,43.7l-5.2-67.8l-6-107.1L630.8,1162.9z
	 M193.9,1045.6l0.5-40.4l-14.5-14.5l-4.8-7.7l-15.6-5.7L193.9,1045.6z M175.1,983l-18-28.9l-0.7-1.3l3.1,24.5L175.1,983z
	 M157.6,95.7l34.7-15.3l28.6-32.7L157.6,95.7z M753.4,205l22.6,10.5l-28.9-65.3L753.4,205z M714.5,131.5l38.8,73.4l-6.3-54.8
	L714.5,131.5z M785.2,279.8l-9.2-64.3L753.4,205L785.2,279.8z M192.3,80.4l68.4-32.9l-39.8,0.2L192.3,80.4z M260.7,47.5l32.6-26.9
	l-72.4,27.1L260.7,47.5z M114.2,173.4l43.4-77.7l-49.1,49.6L114.2,173.4z M114.2,173.4l-5.7-28.1l-37.1,70.2L114.2,173.4z
	 M651.2,1007l-7.5,7.5l1.4,5L651.2,1007z M515.1,27.9l39-7.3L480,5.3L515.1,27.9z M93.6,742.7l1.5,6.2l4.5,19.3l1.4,6l0.2,0.8l0,0
	l17.2,73.4v0.1L93.6,742.7z M118.3,848.4l7.7,32.7L118.3,848.4L118.3,848.4z M636,80.7l78.6,50.9l-21.9-39.9L636,80.7z M636,80.7
	l56.7,11l-66.1-44L636,80.7z M775.9,618.8l-23,119.5l3.7,1.2l13.9-29.3L775.9,618.8z M750.1,753.3l-0.4,6.2l1-6.8L750.1,753.3z
	 M749.6,759.5l0.4-6.2l-28.7,127.8L749.6,759.5z M756.6,739.5l-3.7-1.2l-2.9,15L756.6,739.5z M752.3,751.3l10.8-9.7l7.4-31.4
	l-13.9,29.3l-6.5,13.8l0.6-0.5L752.3,751.3z M216.6,1162.9l26.8,151.4l32.2-1.8L216.6,1162.9z M567.4,52L636,80.7l-9.4-33L567.4,52z
	 M567.4,52l59.1-4.3l-72.4-27.1L567.4,52z M515.1,27.9L567.4,52l-13.3-31.4L515.1,27.9z M260.7,47.5l104.1-14l30.9-27.3L293.3,20.6
	L260.7,47.5z M395.7,6.2l50.6,24l68.8-2.3L480,5.3L395.7,6.2z M446.3,30.2l-50.6-24l-30.9,27.3L446.3,30.2z M567.4,52l-52.3-24.1
	l-68.8,2.3L567.4,52z M645.1,1019.6l-62.6,97.4l48.3,46L645.1,1019.6z M591.2,1065.7l-8.6,51.2l62.6-97.4l-44.1,37.8l-2.6,2.6
	l-3.8,2.9L591.2,1065.7z M591.2,1065.7l3.4-2.9l-2.6,2L591.2,1065.7z M645.1,1019.6l-1.4-5l-42.8,42.8L645.1,1019.6z M256.2,1065.7
	l-0.7-0.9l-6.5-4.9l-54.7-54.8l-0.5,40.4L256.2,1065.7z M95.2,240.3l-23.8-24.8l-9.2,64.3L95.2,240.3z M95.2,240.3l19-67l-42.8,42.2
	L95.2,240.3z M74.2,403.2l-12.5-54.4l-1.8,116.9L74.2,403.2z M785.7,348.8l-12.4,54.3l14.3,62.6L785.7,348.8z M216.6,1162.9
	l54.8-31.6l-77.5-85.8L216.6,1162.9z M271.3,1131.3l-15.1-65.6l-62.4-20.2L271.3,1131.3z M271.3,1131.3l-54.8,31.6l59,149.6
	L271.3,1131.3z M582.5,1116.9l-15.9,78.7l64.2-32.7L582.5,1116.9z M566.6,1195.6l25,62.4l39.2-95.1L566.6,1195.6z M726.2,186.9
	l27.2,18.1l-38.8-73.4L726.2,186.9z M290.8,1217.5l-19.5-86.1l4.2,181.2L290.8,1217.5z M752.9,738.3l22.9-119.5l-22.3,75.3
	l-3.5,59.2L752.9,738.3z M93.8,694.1l-20.1-39.8l19.1,84.6l0.9,3.8L93.8,694.1z M114.2,173.4l56-44.9l-12.6-32.7L114.2,173.4z
	 M170.2,128.4l22-48l-34.7,15.3L170.2,128.4z M549.3,1448.7l70.4-42.4l-4.6-50.8L549.3,1448.7z M549.3,1448.7l65.8-93.2l-11.1-41.2
	L549.3,1448.7z M227.7,1406.3l-97.2,68.2l167.6-25.9L227.7,1406.3z M619.7,1406.3l-70.5,42.4l167.6,25.9L619.7,1406.3z
	 M232.3,1355.5l-4.6,50.8l70.5,42.4L232.3,1355.5z M243.4,1314.3l-11.1,41.2l65.8,93.2L243.4,1314.3z M275.6,1312.5l-32.2,1.8
	l54.7,134.4L275.6,1312.5z M524.7,1376.6l66.8-118.5l-25-62.4L524.7,1376.6z M290.8,1217.5l-15.2,95l47.1,64.1L290.8,1217.5z
	 M591.6,1258l-66.9,118.6l3.5,43.6L591.6,1258z M604,1314.3l26.8-151.4l-39.2,95.1l-63.4,162.2L604,1314.3z M604,1314.3l-75.8,105.9
	l21.1,28.5L604,1314.3z M290.8,1217.5l31.9,159.1l10.6-33L290.8,1217.5z M566.6,1195.6l-52.5,147.9l10.6,33L566.6,1195.6z
	 M654.5,113.9l60.1,17.7L636,80.7L654.5,113.9z M685.9,959.9l4.4-5.8l11.9-21.2l2.9-5.2L685.9,959.9z M156.3,952.8l0.7,1.3l18,28.9
	l4.8,7.7l-37.6-63l5.1,9L156.3,952.8z M683,965.9l7.4-11.8l-4.4,5.8l-18.4,30.8L683,965.9z M715.8,1549.1l-0.6-27.2L600,1508.2
	L715.8,1549.1z M132.2,1521.9l-0.6,27.2l115.8-40.9L132.2,1521.9z M600,1508.2l116.9-33.6l-167.6-25.9L600,1508.2z M713.9,1498.9
	l3.1-24.3l-116.9,33.6L713.9,1498.9z M715.2,1521.9l-1.3-23l-113.9,9.3L715.2,1521.9z M133.5,1498.9l-1.3,23l115.2-13.7
	L133.5,1498.9z M130.5,1474.6l3.1,24.3l113.9,9.3L130.5,1474.6z M298.1,1448.7l-167.6,25.9l116.9,33.6L298.1,1448.7z M460.3,1470.2
	l64.5-93.7l-10.6-33L460.3,1470.2z M87.3,297.9l-25.6,50.9l12.4,54.3L87.3,297.9z M61.7,348.8l25.6-50.9l-25.1-18.1L61.7,348.8z
	 M760.1,297.9l25.6,50.9l-0.5-69L760.1,297.9z M760.1,297.9l25.1-18.1L753.4,205L760.1,297.9z M87.3,297.9l7.9-57.6l-33,39.5
	L87.3,297.9z M773.2,403.2l12.4-54.3L760,298L773.2,403.2z M405.1,1506.8l24.3,5.8l-13.2-32.3L405.1,1506.8z M170.2,128.4l63.2-35.3
	l-41.1-12.7L170.2,128.4z M233.4,93.1l27.3-45.6l-68.4,32.9L233.4,93.1z M514.2,1343.5l-58.1,71l4.2,55.7L514.2,1343.5z M456,1414.5
	l-39.9,65.8l13.2,32.3l30.9-42.4L456,1414.5z M372.1,1472.9l33,33.9l11-26.5L372.1,1472.9z M391.4,1414.5l-19.3,58.4l44.1,7.4
	L391.4,1414.5z M333.2,1343.5l-10.6,33l49.4,96.4L333.2,1343.5z M391.4,1414.5l-58.1-71l38.9,129.4L391.4,1414.5z M143.4,1571.4
	l35.6,8.2l-47.4-30.4L143.4,1571.4z M704.1,1571.4l11.7-22.2l-47.4,30.4L704.1,1571.4z M524.7,1376.6l-57.5,121.3l61-77.7
	L524.7,1376.6z M429.4,1512.6l37.9-14.8l-7-27.6L429.4,1512.6z M524.7,1376.6l-64.5,93.7l7,27.6L524.7,1376.6z M591.2,1065.7
	l0.8-0.9l-0.1,0.1L591.2,1065.7z M773.2,403.2l-16.3,196.4l30.6-133.9L773.2,403.2z M93.8,694.1l-3.4-94.5l-16.7,54.7L93.8,694.1z
	 M757,599.6l18.9,19.3l11.7-153.1L757,599.6z M757,599.6l-3.4,94.5l22.3-75.3L757,599.6z M90.4,599.6L74.1,403.2l-14.3,62.6
	L90.4,599.6z M90.4,599.6L59.8,465.7l13.9,188.6L90.4,599.6z M506.3,1252.6l-50.3,162l58.1-71L506.3,1252.6z M506.3,1252.6
	l60.3-56.9l15.9-78.7L506.3,1252.6z M506.3,1252.6l7.8,91l52.5-147.9L506.3,1252.6z M109.8,782.2l-16.2-39.5l24.8,105.8l7.6,32.6
	L109.8,782.2z M93.8,694.1l-0.2,48.5l16.2,39.5L93.8,694.1z M90.4,599.6l3.4,94.5l16,88.1L90.4,599.6z M233.4,93.1l67.7-24
	l-40.4-21.6L233.4,93.1z M301.1,69.1l63.7-35.6l-104.1,14L301.1,69.1z M290.8,1217.5l42.4,126.1l22.8-55.9L290.8,1217.5z
	 M356.1,1287.7l-22.8,55.9l58.1,71L356.1,1287.7z M322.7,1376.6l-47.1-64.1l63.6,178.7L322.7,1376.6z M275.6,1312.5l22.5,136.2
	l41.1,42.5L275.6,1312.5z M322.7,1376.6l16.6,114.6l32.9-18.2L322.7,1376.6z M419.6,1378.3l-20.5-91.7l-7.7,128l24.8,65.8
	L419.6,1378.3z M419.6,1378.3l-3.4,102l39.9-65.8L419.6,1378.3z M681.3,959.8l-13.7,30.9l18.4-30.8l19.3-32.3L681.3,959.8z
	 M179.9,990.6l-13.7-30.9l-23.9-32.1L179.9,990.6z M298.6,1097.5l-36.8-27.9l-5.6-3.9l15.1,65.6L298.6,1097.5z M255.5,1064.9
	l0.7,0.9l5.6,3.9L255.5,1064.9z M549.3,1097.1l-0.6,0.5l-1.7,0.9l-40.7,154l76.2-135.6L549.3,1097.1z M585.6,1069.6l-36.3,27.5
	l33.2,19.8l8.6-51.2L585.6,1069.6z M591.9,1064.9l-6.3,4.8l5.6-3.9L591.9,1064.9z M681.3,959.8l23.9-32.1l6.1-43L681.3,959.8z
	 M750.1,753.3l-38.8,131.3l-6.1,43l0.3-0.8l2.7-7.7l13.3-38L750.1,753.3z M444.1,1352.3l-24.5,26l36.4,36.3L444.1,1352.3z
	 M528.2,1420.2L512,1509l37.3-60.3L528.2,1420.2z M356.1,1287.7l-20.7-92.1l-44.5,21.9L356.1,1287.7z M335.3,1195.6l-34.7-96.9
	l-1.9-1l-0.1-0.1l-27.3,33.8L335.3,1195.6z M271.3,1131.3l19.5,86.1l44.5-21.9L271.3,1131.3z M119.1,223.3l-4.8-49.9l-19,67
	L119.1,223.3z M434.7,1534.1l32.6-36.3l-37.9,14.8L434.7,1534.1z M405.1,1506.8l-19.1,22.9l43.3-17.1L405.1,1506.8z M386.1,1529.7
	l48.6,4.4l-5.3-21.6L386.1,1529.7z M372.1,1472.9l13.9,56.8l19.1-22.9L372.1,1472.9z M339.2,1491.2l46.8,38.5l-13.9-56.8
	L339.2,1491.2z M142.2,927.6l-7-50.8l-25.5-94.6l16.2,98.9l11.6,33.3l0.3,0.9L142.2,927.6z M166.1,959.8l-30.8-82.9l7,50.8
	L166.1,959.8z M506.3,1252.6l-17.5-36.1L456,1414.6L506.3,1252.6z M488.9,1216.4l17.5,36.1l40.7-154l-0.7,0.4L488.9,1216.4z
	 M488.9,1216.4l-44.8,135.9l11.9,62.2L488.9,1216.4z M399.1,1286.6l-43,1.1l35.3,126.9L399.1,1286.6z M654.5,113.9l39.8,66.5
	l20.3-48.9L654.5,113.9z M694.2,180.4l32,6.5l-11.6-55.3L694.2,180.4z M364.3,1187.6l-28.9,8l20.7,92.1L364.3,1187.6z M364.3,1187.6
	l-62.2-88.2l-1.4-0.8l34.7,96.9L364.3,1187.6z M364.3,1187.6l-8.2,100l43-1.1L364.3,1187.6z M621.1,1580.7l94.7-31.6L600,1508.2
	L621.1,1580.7z M668.4,1579.5l47.4-30.4l-94.7,31.6L668.4,1579.5z M131.6,1549.1l94.7,31.6l21.1-72.5L131.6,1549.1z M179,1579.5
	l47.3,1.2l-94.7-31.6L179,1579.5z M459.2,1209l-12.5-70.2l-8.7,2.1l-26.3,55.1l7.8,182.4l24.5-26L459.2,1209z M444.1,1352.3
	l44.7-135.9l-29.7-7.4L444.1,1352.3z M493.1,1124.4l-33.9,84.6l29.7,7.4l5.7-92.5L493.1,1124.4z M546.3,1098.9l-36,19.5l-15.8,5.4
	l-5.7,92.5L546.3,1098.9z M411.8,1195.9l-12.7,90.7l20.5,91.7L411.8,1195.9z M411.8,1195.9l-47.5-8.3l34.8,99L411.8,1195.9z
	 M373.7,1134.4l-7.5-2l-2,55.2l47.5,8.3L373.7,1134.4z M360.5,1130.9l-58.5-31.4l62.2,88.2l2-55.2L360.5,1130.9z M732.7,255.6
	l27.4,42.4l-6.7-93L732.7,255.6z M726.2,186.9l6.5,68.7l20.7-50.6L726.2,186.9z M732.7,255.6l-6.5-68.7l-32-6.5L732.7,255.6z
	 M459.7,1135.7l-13,3.1l12.5,70.2l33.9-84.6l-17,5.9L459.7,1135.7z M435,1141.5l-22.6,2.6L395,1140l-21.4-5.7l38,61.5l26.3-55.1
	L435,1141.5z M226.3,1580.7l46.7,1.4l-25.6-73.9L226.3,1580.7z M574.4,1582.1l46.7-1.4l-21.1-72.5L574.4,1582.1z M209.5,1015.6
	l-43.4-55.8l13.7,30.9L209.5,1015.6z M575.5,106.3l78.9,7.6l-18.5-33.2L575.5,106.3z M575.5,106.3l60.4-25.7l-68.6-28.7L575.5,106.3
	z M98,382.3L87.3,298L74.1,403.2L98,382.3z M386.1,1529.7l11.3,65.6l37.3-61.2L386.1,1529.7z M423.7,1600.5l26.4-5.2l-15.4-61.2
	L423.7,1600.5z M397.3,1595.3l26.4,5.2l11-66.4L397.3,1595.3z M753.6,694.1l-22.1,74.6l18.6-15.4L753.6,694.1z M757,599.6
	l-25.5,169.1l22.1-74.6L757,599.6z M98,382.3l11.9-90L87.3,298L98,382.3z M109.9,292.2l9.2-68.9l-23.8,17L109.9,292.2z M95.2,240.3
	l-7.9,57.6l22.6-5.7L95.2,240.3z M249,1059.9l-39.5-44.4l-29.7-24.9l14.5,14.5L249,1059.9z M747.1,532.2l9.9,67.3l16.3-196.4
	L747.1,532.2z M533.1,1583.4l41.3-1.3l25.6-73.9L533.1,1583.4z M512,1509l21.1,74.4l16.2-134.7L512,1509z M298.1,1448.7l16.2,134.7
	l30.9,0.9l-6-93.1L298.1,1448.7z M273,1582.1l41.3,1.3l-66.9-75.2L273,1582.1z M549.3,1448.7l-16.2,134.7l66.9-75.2L549.3,1448.7z
	 M247.4,1508.2l66.9,75.2l-16.2-134.7L247.4,1508.2z M509,88.1l66.5,18.2L567.4,52L509,88.1z M509,88.1l58.4-36.2L446.3,30.2
	L509,88.1z M737.3,296.5l22.8,1.5l-27.4-42.4L737.3,296.5z M183.9,174.3l49.5-81.2l-63.2,35.3L183.9,174.3z M528.2,1420.2l-61,77.7
	l9,89.5L528.2,1420.2z M371.1,1587.3l26.2,8l-11.3-65.6L371.1,1587.3z M434.7,1534.1l41.6,53.2l-9-89.5L434.7,1534.1z M528.2,1420.2
	l-51.9,167.1l35.7-78.4L528.2,1420.2z M450.1,1595.3l26.2-8l-41.6-53.2L450.1,1595.3z M149.7,216.5l34.2-42.1l-13.6-45.9
	L149.7,216.5z M119.1,223.3l30.6-6.8l20.6-88l-56,44.9L119.1,223.3z M345.2,1584.2l25.9,3.1l14.9-57.6L345.2,1584.2z M339.2,1491.2
	l6,93.1l40.9-54.5L339.2,1491.2z M476.3,1587.3l25.9-3.1l9.8-75.3L476.3,1587.3z M502.2,1584.2l30.9-0.9l-21.1-74.4L502.2,1584.2z
	 M440.9,80.6l5.4-50.4l-81.5,3.2L440.9,80.6z M440.9,80.6l68.2,7.5l-62.7-57.9L440.9,80.6z M731.5,768.7l-12.9,51.1l31.5-66.5
	L731.5,768.7z M718.5,819.8l-7.2,64.8l38.8-131.3L718.5,819.8z M166.1,959.8l5.5-27l-36.4-56L166.1,959.8z M103.4,486.5L98,382.3
	l-23.9,20.9L103.4,486.5z M301.1,69.1l59.1,23.2l4.6-58.8L301.1,69.1z M360.2,92.3l80.7-11.7l-76.1-47.1L360.2,92.3z M629.8,1014.6
	l37.7-24l13.7-30.9L629.8,1014.6z M629.8,1014.6l51.5-54.8l-5.5-27L629.8,1014.6z M629.8,1014.6l-31.5,45.3l2.6-2.6l42.8-42.8
	l7.5-7.5l16.4-16.4L629.8,1014.6z M633.3,161.9l21.1-48l-78.9-7.6L633.3,161.9z M633.3,161.9l60.9,18.5l-39.8-66.5L633.3,161.9z
	 M737.3,296.5l2.7,108.1L760.2,298L737.3,296.5z M739.9,404.5l7.1,127.7l26.2-129.1L760,297.9L739.9,404.5z M127.2,796.4L90.4,599.6
	l19.3,182.6L127.2,796.4z M127.2,796.4l-17.5-14.2l25.5,94.6L127.2,796.4z M183.9,174.3l68.3-35.7l-18.8-45.5L183.9,174.3z
	 M252.2,138.6l108-46.3l-59.1-23.2L252.2,138.6z M252.2,138.6l48.9-69.5l-67.7,24L252.2,138.6z M136,259.1l13.7-42.6l-30.6,6.8
	L136,259.1z M136,259.1l-16.9-35.8l-9.2,68.9L136,259.1z M686.2,221.7l46.5,33.8l-38.4-75.2L686.2,221.7z M633.3,161.9l52.8,59.8
	l8-41.3L633.3,161.9z M130.8,308.3l5.2-49.2l-26.1,33.1L130.8,308.3z M686.2,221.7l20.3,55.5l26.2-21.7L686.2,221.7z M706.5,277.3
	l30.8,19.2l-4.6-40.9L706.5,277.3z M171.6,932.8l-18.5-69.9l-17.9,13.9L171.6,932.8z M718.5,819.8l-24.3,43.1l17,21.7L718.5,819.8z
	 M694.3,862.9l-18.5,69.9l5.5,27l30-75.1L694.3,862.9z M153.1,862.9l-25.9-66.5l8,80.5L153.1,862.9z M119.8,395.1L98,382.3
	l5.4,104.3L119.8,395.1z M109.9,292.2l-11.9,90l21.8,12.9L109.9,292.2z M119.8,395.1l11-86.8l-20.9-16.1L119.8,395.1z M247.6,1041
	l-38.1-25.4L249,1060L247.6,1041z M209.5,1015.6l38.1,25.4l-81.5-81.2L209.5,1015.6z M247.6,1041l-76-108.2l-5.5,27L247.6,1041z
	 M718.9,346l21,58.5l-2.7-108.1L718.9,346z M718.9,346l18.4-49.6l-30.8-19.1L718.9,346z M286.7,1084.3l-39.1-43.3l1.4,19l2-0.5
	L286.7,1084.3z M261.8,1069.6l36.8,27.9l0.1,0.1l-47.6-38.2l-2,0.5l6.5,4.9L261.8,1069.6z M286.7,1084.3l-35.6-24.9l47.6,38.2
	L286.7,1084.3z M124.2,687.8l-8.4-71.8l-12.3-129.5l-29.3-83.4l16.3,196.4L124.2,687.8z M124.2,687.8l-33.7-88.2l36.8,196.8
	L124.2,687.8z M211.5,207.5l40.6-68.9l-68.2,35.7L211.5,207.5z M211.5,207.5l-27.6-33.2l-34.2,42.2L211.5,207.5z M472.5,129.2
	l36.5-41l-68.2-7.5L472.5,129.2z M399.3,127.8l73.2,1.4l-31.6-48.6L399.3,127.8z M399.3,127.8l41.6-47.2l-80.7,11.7L399.3,127.8z
	 M707.2,771.2l-12.9,91.7l24.3-43.1L707.2,771.2z M707.2,771.2l11.4,48.7l12.9-51.1L707.2,771.2z M671.8,258.8l34.7,18.5l-20.3-55.5
	L671.8,258.8z M175.6,258.8l-25.9-42.3L136,259.1L175.6,258.8z M211.5,207.5l-61.9,8.9l25.9,42.3L211.5,207.5z M757,599.6l-38,73.5
	l12.6,95.7L757,599.6z M747.1,532.2L718.9,673l38-73.5L747.1,532.2z M747.1,532.2L740,404.5l-16.9,162.9L719,673L747.1,532.2z
	 M718.9,673l-11.7,98.1l24.3-2.5L718.9,673z M292.9,163l106.4-35.2l-39.1-35.5L292.9,163z M252.2,138.6l40.7,24.4l67.3-70.7
	L252.2,138.6z M211.5,207.5l81.4-44.5l-40.7-24.4L211.5,207.5z M141.1,761.9l-13.9,34.5l25.9,66.5L141.1,761.9z M141.1,761.9
	l-17-74.1l3.1,108.6L141.1,761.9z M537.3,157.8l96.1,4.1l-57.9-55.6L537.3,157.8z M472.5,129.2l64.8,28.7l-28.2-69.7L472.5,129.2z
	 M537.3,157.8l38.3-51.5l-66.5-18.2L537.3,157.8z M570.3,1068.3l-21.6,29.3l0.6-0.5l36.3-27.5l6.3-4.8l0.1-0.1l2.6-2l3.8-2.9
	L570.3,1068.3z M570.3,1068.3l28.1-8.3l31.5-45.3L570.3,1068.3z M654.5,911.1l21.2,21.7l18.5-69.9L654.5,911.1z M192.9,911.1
	l-39.8-48.2l18.5,69.9L192.9,911.1z M654.5,911.1l-24.7,103.5l45.9-81.8L654.5,911.1z M247.6,1041l-54.7-129.8l-21.2,21.7
	L247.6,1041z M136.2,558.2l-32.7-71.7L115.7,616L136.2,558.2z M629.6,230.6l56.6-8.9l-52.8-59.8L629.6,230.6z M629.6,230.6
	l42.2,28.1l14.4-37L629.6,230.6z M144.5,392.2l-13.7-83.9l-11,86.8L144.5,392.2z M144.5,392.2l19-68.1l-32.7-15.8L144.5,392.2z
	 M163.5,324.1L135.9,259l-5.2,49.2L163.5,324.1z M163.5,324.1l12.1-65.4L136,259L163.5,324.1z M679.9,318.8l39,27.3l-12.4-68.8
	L679.9,318.8z M671.8,258.8l8.2,60l26.5-41.5L671.8,258.8z M704,465.9l19.1,101.6L740,404.6L704,465.9z M718.9,346L704,465.8
	l36-61.3L718.9,346z M136.2,558.2l7.8-72.3l-24.2-90.8l-16.4,91.4L136.2,558.2z M144.5,392.2l-24.7,2.9l24.2,90.8L144.5,392.2z
	 M216.6,244.5l-5-37l-35.9,51.2L216.6,244.5z M723,567.5L707.2,627l11.7,46.1L723,567.5z M140.2,627l-4-68.7L115.7,616L140.2,627z
	 M603.4,987.6l-33.1,80.6l59.6-53.7L654.6,911L603.4,987.6z M244,987.6l-51.1-76.5l54.7,129.8L244,987.6z M590.4,215.7l39.3,14.9
	l3.7-68.7l-96.1-4.1L590.4,215.7z M148.2,703.4L115.7,616l8.4,71.8L148.2,703.4z M148.2,703.4l-8-76.4l-24.4-11L148.2,703.4z
	 M148.2,703.4l-24-15.6l17,74.1L148.2,703.4z M369.8,173.5l29.5-45.7L292.9,163L369.8,173.5z M286.7,1084.3l12,13.3l-0.1-16.1
	l-51-40.6L286.7,1084.3z M298.6,1081.6L244,987.7l3.6,53.3L298.6,1081.6z M395.1,1140l17.4,4.1l22.6-2.6L395.1,1140z M177.3,831.3
	l-36.1-69.4l12,101L177.3,831.3z M707.2,771.2l-37.1,60.1l24.1,31.6L707.2,771.2z M670.1,831.3l-15.6,79.8l39.8-48.2L670.1,831.3z
	 M192.9,911.1l-15.6-79.8l-24.1,31.6L192.9,911.1z M695,695.1l12.2,76l11.7-98.1L695,695.1z M707.2,627L695,695.2l23.9-22.1
	L707.2,627z M369.8,173.5l99.7,7.6l-70.3-53.3L369.8,173.5z M469.6,181.1l67.7-23.3l-64.8-28.7L469.6,181.1z M469.6,181.1l2.9-52
	l-73.2-1.4L469.6,181.1z M155.4,607.8l-19.2-49.6l4,68.7L155.4,607.8z M690.2,603l17,24l15.8-59.5L690.2,603z M211.5,207.5
	l44.8,28.6l36.6-73.1L211.5,207.5z M216.6,244.5l39.8-8.4l-44.8-28.6L216.6,244.5z M341,1116.8l-42.4-35.2l0.1,16.1L341,1116.8z
	 M360.5,1130.9l-19.5-14.1l-42.3-19.2l1.9,1l1.4,0.8L360.5,1130.9z M373.7,1134.4l21.4,5.7l-54-23.3l19.5,14.1l5.7,1.5L373.7,1134.4
	z M476.1,1130.2l-41.1,11.3l3-0.7l8.7-2.1l13-3.1L476.1,1130.2z M680,414l38.9-67.9l-39-27.3L680,414z M680,414l24,51.9l14.9-119.8
	L680,414z M155.4,607.8L140.2,627l18.5,51.4L155.4,607.8z M140.2,627l8,76.4l10.5-25L140.2,627z M678.3,542.2l11.9,60.8l32.8-35.5
	L678.3,542.2z M704,465.9l-25.7,76.3l44.7,25.3L704,465.9z M683.3,653.9l11.6,41.2l12.2-68.2L683.3,653.9z M690.2,603l-6.8,50.9
	l23.9-27L690.2,603z M628.8,301.2l43-42.5l-42.2-28.1L628.8,301.2z M163.5,324.1l55.1-22.9l-43-42.5L163.5,324.1z M218.6,301.2
	l-2-56.7l-41,14.2L218.6,301.2z M628.8,301.2l51.1,17.6l-8.2-60L628.8,301.2z M218.6,301.2l37.7-65.1l-39.8,8.4L218.6,301.2z
	 M628.8,301.2l0.8-70.6l-39.3-14.9L628.8,301.2z M664.3,578.4l25.8,24.5l-11.9-60.8L664.3,578.4z M256.3,236.1l54.6-11.5l-18-61.6
	L256.3,236.1z M369.8,173.5L292.9,163l18,61.6L369.8,173.5z M548.7,1097.6l21.6-29.3l-46.5,31L548.7,1097.6z M523.8,1099.3
	l-13.4,19.1l36-19.5l0.7-0.4l1.7-0.9L523.8,1099.3z M476.1,1130.2l17-5.9l1.5-0.5l15.8-5.4l13.4-19.1L476.1,1130.2z M171.6,533.8
	L144,485.9l-7.8,72.3L171.6,533.8z M155.4,607.8l16.2-74l-35.4,24.4L155.4,607.8z M179.4,580.8l-7.8-47l-16.2,74L179.4,580.8z
	 M158.7,678.4l-10.5,25l26.3,53.3L158.7,678.4z M695,695.1l-22,61.5l-2.8,74.6l37.1-60.2L695,695.1z M174.5,756.7l-26.3-53.3
	l-7,58.5l36.1,69.4L174.5,756.7z M622.8,907.1l-19.4,80.5l51.1-76.5L622.8,907.1z M224.6,907.1l-47.3-75.8l15.6,79.8L224.6,907.1z
	 M244,987.6l-19.4-80.5l-31.7,4L244,987.6z M622.8,907.1l31.7,4l15.6-79.8L622.8,907.1z M172.9,437.2l-28.4-44.9L144,486
	L172.9,437.2z M163.5,324.1l-19,68.1l28.4,44.9L163.5,324.1z M655.9,609.2l8.5-30.8l-16.2,10L655.9,609.2z M664.3,578.4l-8.5,30.8
	l-9.8,61.7l37.2-17L690,603L664.3,578.4z M205.8,586.1l-26.5-5.3l20,19.9L205.8,586.1z M652.1,368.9L680,414l-0.1-95.2L652.1,368.9z
	 M628.8,301.2l23.3,67.7l27.8-50.1L628.8,301.2z M630.4,586.5l17.7,1.9l-7.1-11L630.4,586.5z M648.1,588.4l16.2-10l-23.3-1.1
	L648.1,588.4z M469.6,181.1l46.2,49.9l74.6-15.3l-53.1-57.9L469.6,181.1z M538.2,1062.8l-14.4,36.5l46.5-31l33.1-80.6L538.2,1062.8z
	 M558.8,1014.9l-20.6,47.9l65.2-75.1L558.8,1014.9z M244,987.6l54.6,93.9l10.6-18.8L244,987.6z M618.3,590.7l4.6-8l-3.1-2.7
	L618.3,590.7z M622.8,582.7l-3.4,9.4l11-5.6L622.8,582.7z M225.9,588.5l-1.5-5.7l-6.5,3.7l7.9,4.3L225.9,588.5z M622.8,582.7l-4.6,8
	l-0.3,2.1l1.5-0.7L622.8,582.7z M207.8,570.4l-28.5,10.4l26.5,5.3L207.8,570.4z M329.1,596.4l-0.9,2.6l5.5-0.3l-1.6-1L329.1,596.4z
	 M431,215.9l38.6-34.8l-99.7-7.6L431,215.9z M431,215.9l84.8,15.1l-46.2-49.9L431,215.9z M332.2,597.7l-2.9-1.8l-0.2,0.5
	L332.2,597.7z M224.6,582.7l-0.2,0.1l1.5,5.7l8.7-14.2l-0.3,0.1L224.6,582.7z M520.6,594.3l-6.9,4.4l7.5,0.4L520.6,594.3z M680,414
	l-13.8,59.4l37.8-7.5L680,414z M666.2,473.4l12.1,68.8l25.7-76.3L666.2,473.4z M185.4,686.3l-26.7-7.9l15.8,78.3L185.4,686.3z
	 M155.4,607.8l3.3,70.6l26.7,7.9L155.4,607.8z M225.9,588.5l-0.1,2.3l4.9,2.7l2.3,0.7L225.9,588.5z M609.6,595.6l5.6-1.7l-2.9-6.1
	L609.6,595.6z M234.8,574.2l-0.2,0.1l-8.7,14.2l7.1,5.7l3.3,1L234.8,574.2z M619.7,580l-1.8-1.5l-5.6,9.4l2.9,6.1l1.5-0.5l1.3-0.6
	l0.3-2.1L619.7,580z M622.8,582.7l7.6,3.8l-3.8-6.6L622.8,582.7z M626.6,579.9l3.8,6.6l10.6-9.1L626.6,579.9z M558.8,1014.9
	l44.6-27.3l-15.5-32.8L558.8,1014.9z M587.9,954.8l15.5,32.8l19.4-80.5L587.9,954.8z M224.6,907.1l19.4,80.5l15.5-32.8L224.6,907.1z
	 M618.8,577.1l-0.8,1.4l1.8,1.5l3.1,2.7l3.8-2.8L618.8,577.1z M205.8,586.1l-6.5,14.6l20.3-4.1L205.8,586.1z M648.1,588.4l-20.4,8.2
	l28.1,12.6L648.1,588.4z M230.7,593.5l-4.9-2.7l-7.9-4.3l1.8,10.2L230.7,593.5z M630.4,586.5l-11,5.6l-1.5,0.7l-1.3,0.6l11,3.2
	L630.4,586.5z M630.4,586.5l-2.6,10.1l20.4-8.2L630.4,586.5z M217.9,586.5l-12-0.3l13.8,10.5L217.9,586.5z M672.9,756.7l-24.5,24.6
	l21.7,50L672.9,756.7z M199,781.3l-24.5-24.6l2.8,74.6L199,781.3z M185.4,686.3l-10.9,70.4l24.5,24.6L185.4,686.3z M200,394
	l18.6-92.8l-55.1,22.9L200,394z M200,394l-36.4-69.9l9.4,113L200,394z M658.5,707.3l-10.1,74l24.5-24.6L658.5,707.3z M683.3,653.9
	l-24.8,53.4l14.4,49.4l22-61.5L683.3,653.9z M209.8,623.8l-30.4-43l-24,27L209.8,623.8z M155.4,607.8l30,78.5l24.4-62.4L155.4,607.8
	z M219.6,596.6l-20.3,4.1l10.4,23.1L219.6,596.6z M199.4,600.7l-20-19.9l30.4,43L199.4,600.7z M341,1116.8l4.8-9.2l-47.2-26
	L341,1116.8z M345.8,1107.6l-36.6-44.8l-10.6,18.8L345.8,1107.6z M612.4,587.9l5.6-9.4l0.8-1.4l-13.7-4.9L612.4,587.9z M523.8,591.6
	L521,594l-0.4,0.3l0.6,4.8l6.2,0.4l2.7,0.2L523.8,591.6z M318.6,587.1l-3.2,12.8l4.6-0.4l8.3-0.5l0.9-2.6l0.2-0.5l-2.9-1.8
	L318.6,587.1z M646.1,670.9l12.4,36.4l24.8-53.4L646.1,670.9z M631.8,631.6l14.3,39.3l9.8-61.7L631.8,631.6z M629.9,563.3l11.1,14.1
	l23.3,1.1L629.9,563.3z M224.6,582.7l9.7-8.4l-5.5,1.8L224.6,582.7z M224.4,582.8l0.2-0.1l4.2-6.6l-10.9,10.3L224.4,582.8z
	 M217.9,586.5l10.9-10.3l-22.9,10L217.9,586.5z M171.6,533.8l17.9-52.1L173,437.2L144.1,486L171.6,533.8z M200,394l-27,43.1
	l16.5,44.5L200,394z M306.1,1026.9l-46.6-72.2L244,987.5L306.1,1026.9z M309.2,1062.8l-3.1-35.8L244,987.7L309.2,1062.8z
	 M220.6,571.3l-12.8-0.9l-2,15.7L220.6,571.3z M228.8,576.1l14.1-11.7l-22.2,6.8l-14.8,14.9L228.8,576.1z M639.8,543.7l24.5,34.7
	l13.9-36.3L639.8,543.7z M211.5,669.7l-1.7-45.9l-24.4,62.5L211.5,669.7z M250.2,587.4l-12,8.3l11.9,3.7L250.2,587.4z M597.2,587.4
	l3.3,11l9.1-2.8l2.8-7.8L597.2,587.4z M536.2,584.6l1.4-5.2l-3.5,3.1L536.2,584.6z M536.2,584.6l-4.9,0.5l-7.5,6.6l6.3,8.1l3.3,0.3
	L536.2,584.6z M252.5,573.4l-2.9-4.1l-13.8,4.5L252.5,573.4z M597.2,587.4l-4.5,13.4l7.8-2.4L597.2,587.4z M536.2,584.6l-2.1-2
	l-2.8,2.5L536.2,584.6z M252.5,573.4l1.1-5.4l-4,1.3L252.5,573.4z M597.2,587.4l15.1,0.4l-7.3-15.6l-1.4-0.5L597.2,587.4z
	 M250.2,587.4l-15.1-13.3l-0.2,0.1l1.5,21l1.8,0.6L250.2,587.4z M252.5,573.4l-16.7,0.4l-0.7,0.2l15.1,13.3L252.5,573.4z
	 M218.6,301.2l54.9-4l-17.2-61.1L218.6,301.2z M273.5,297.2l37.4-72.6l-54.6,11.5L273.5,297.2z M623.2,615.5l8.6,16.1l24.1-22.4
	L623.2,615.5z M627.8,596.6l-4.6,18.9l32.7-6.3L627.8,596.6z M252.5,573.4l9.7-6.9l-2.3-0.5l-6.2,2L252.5,573.4z M390.6,1123.2
	l-44.8-15.6l-4.8,9.2L390.6,1123.2z M390.6,1123.2l4.5,16.9l39.9,1.5L390.6,1123.2z M395.1,1140l-4.5-16.9l-49.6-6.4L395.1,1140z
	 M179.4,580.8l30.5-40.8l12.5-28.9l-33-29.5l-17.9,52.1L179.4,580.8z M543.5,600.9l2.1,0.2v-0.6L543.5,600.9z M545.6,600.5
	l-9.4-15.9l-2.8,15.4l7,0.6l3.2,0.3L545.6,600.5z M622.5,570.4l-17.9-5.9l22.1,15.4l14.4-2.5L622.5,570.4z M622.5,570.4l18.6,7
	l-11.2-14.1L622.5,570.4z M304.3,590.2l7.8,10l3.2-0.3l3.2-12.8l-1.5-1.3L304.3,590.2z M312.2,600.2l-7.8-10l-3.5,11.1l6.2-0.6
	L312.2,600.2z M648.4,781.3l-37.9,86.3l59.6-36.2L648.4,781.3z M610.5,867.5l12.3,39.6l47.3-75.8L610.5,867.5z M597.2,587.4
	l-12.1,10.3l3.1,4.5l4.5-1.4L597.2,587.4z M304.3,590.2l12.8-4.4l-5.7-5.1l-12-6.9h-0.1L304.3,590.2z M299.5,573.8l12,6.9l-6.5-5.8
	L299.5,573.8z M545.6,600.5v0.6l2.3,0.2L545.6,600.5z M586.5,566.2l-5.2,0.8l1.5,3.3L586.5,566.2z M586.5,566.2l-3.7,4.1l17.1,0.1
	l-12.3-4.4L586.5,566.2z M582.8,570.3l14.4,17.1l6.5-15.7l-3.8-1.3L582.8,570.3z M364.4,255l66.5-39.1l-61.1-42.4L364.4,255z
	 M364.4,255l5.4-81.4l-58.9,51.1L364.4,255z M273.5,297.2l90.9-42.3l-53.5-30.3L273.5,297.2z M237.9,868.6L199,781.3l-21.7,50
	L237.9,868.6z M224.6,907.1l13.4-38.5l-60.7-37.3L224.6,907.1z M527.4,599.5l-6.2-0.4l-7.5-0.4l-5.7,3.6L527.4,599.5z M582.8,570.3
	l-1.5-3.3l-10.5,1.6L582.8,570.3z M274.9,603.8l1-0.1l-0.7-1.2L274.9,603.8z M274.9,603.8l0.3-1.3l-12.7-6.4l-12.3-8.7l-0.1,12
	l16.7,5.1L274.9,603.8z M434.6,1124.9l0.4,16.6l41.1-11.3L434.6,1124.9z M434.6,1124.9l-44-1.8l44.4,18.4L434.6,1124.9z
	 M645.8,504.1l-6,39.6l38.5-1.5L645.8,504.1z M666.2,473.4l-20.4,30.7l32.5,38.1L666.2,473.4z M275.3,602.5l0.7,1.2l11-1.1l0.9-4.9
	L275.3,602.5z M287.9,597.7l-0.9,4.9l4.6-0.5L287.9,597.7z M304.3,590.2l-16.4,7.5l3.7,4.4l9.2-0.9L304.3,590.2z M585.1,597.7
	l-13.5,1.1l12.5,4.8l4.2-1.3L585.1,597.7z M571.5,598.8l1.1,5l7.9,0.8l3.4-1L571.5,598.8z M565.7,603.1l7,0.7l-1.1-5L565.7,603.1z
	 M267.5,579.5l-15-6.1l-2.3,14L267.5,579.5z M252.5,573.4l15,6.1l1.4-11.7l-6.8-1.3L252.5,573.4z M581.2,586.5l16,0.9l-14.4-17.1
	L581.2,586.5z M581.2,586.5l-9.7,12.2l13.5-1.1L581.2,586.5z M581.2,586.5l3.8,11.1l12.1-10.3L581.2,586.5z M267.5,579.5l-17.3,7.9
	l12.3,8.7L267.5,579.5z M552.8,580.3l7.5-10.2l-14.6,2.2l-1,0.9L552.8,580.3z M536.2,584.6l16.6-4.3l-8.1-7.1l-7.1,6.2L536.2,584.6z
	 M333.8,598.7l-5.5,0.3l-8.3,0.5l19.4,2.7L333.8,598.7z M536.2,584.6l19.4,7.4l-2.8-11.7L536.2,584.6z M536.2,584.6l9.4,15.9l10-8.5
	L536.2,584.6z M555.6,592l4.1,10.5l6,0.6l5.8-4.3L555.6,592z M555.6,592l-10,8.5l2.3,0.9l11.8,1.2L555.6,592z M267.5,579.5l19.4-2.7
	l-7.5-6.9l-10.4-2L267.5,579.5z M286.8,576.8l-1.7-5.8l-5.8-1.1L286.8,576.8z M286.8,576.8l12.5-3l-14.2-2.8L286.8,576.8z
	 M551.4,295.3l77.4,5.9l-38.4-85.5L551.4,295.3z M551.4,295.3l38.9-79.6L515.7,231L551.4,295.3z M320,599.5l-12.3,1.2l31.7,1.5
	L320,599.5z M540.4,600.6l-7-0.6l-3.3-0.3l-2.7-0.2l-19.4,2.8L540.4,600.6z M315.4,599.9l-3.2,0.3l-5.1,0.5h0.7l12.3-1.2
	L315.4,599.9z M570.7,581.2l10.5,5.4l1.6-16.3L570.7,581.2z M570.7,581.2l-18-0.8l2.8,11.7l15.9,6.8L570.7,581.2z M570.7,581.2
	l12-10.9l-12-1.7l-7.1,1.1L570.7,581.2z M581.2,586.5l-10.5-5.4l0.8,17.6L581.2,586.5z M552.8,580.3l18,0.8l-7.1-11.6l-3.5,0.5
	L552.8,580.3z M285.6,587.2l2.3,10.5l16.4-7.5l-4.9-16.4l0,0L285.6,587.2z M287.9,597.7l-2.3-10.5l-18.2-7.6l-4.9,16.6l12.7,6.4
	L287.9,597.7z M286.8,576.8l-1.2,10.3l13.7-13.4l0,0L286.8,576.8z M286.8,576.8l-19.4,2.7l18.2,7.6L286.8,576.8z M612.5,363.7
	l39.6,5.3l-23.3-67.7L612.5,363.7z M612.5,363.7l16.3-62.4l-77.4-5.9L612.5,363.7z M230.5,554.9l-51.1,25.9l28.5-10.4L230.5,554.9z
	 M220.6,571.3l9.8-16.4l-22.6,15.5L220.6,571.3z M230.5,554.9L210,540l-30.5,40.8L230.5,554.9z M525,584.7l-4,9.3l2.8-2.4l7.5-6.6
	l2.8-2.5l3.5-3.1l7.1-6.2l1-0.9L525,584.7z M513.7,598.7l6.9-4.4l0.4-0.3l4-9.3l-17,17.6L513.7,598.7z M613.4,552.8l16.5,10.5
	l34.4,15.2L613.4,552.8z M613.4,552.8l50.9,25.7l-24.5-34.7L613.4,552.8z M622.5,570.4l7.4-7.1l-16.5-10.5L622.5,570.4z
	 M263.8,651.7l-54-27.9l1.7,45.9L263.8,651.7z M540.4,600.6l-32.3,1.7l12.7,8.7L540.4,600.6z M637.8,438.6l14.3-69.7l-39.6-5.3
	L637.8,438.6z M637.8,438.6L680,414l-27.9-45.1L637.8,438.6z M637.8,438.6l28.4,34.8L680,414L637.8,438.6z M637.8,438.6l8,65.5
	l20.4-30.7L637.8,438.6z M226.5,765.1L199,781.3l38.9,87.3L226.5,765.1z M226.5,765.1l-41.1-78.8l13.6,95L226.5,765.1z M211.5,669.7
	l-26.1,16.6l41.1,78.8L211.5,669.7z M609.6,595.6l-9.1,2.8l-7.8,2.4l-4.5,1.4l-4.2,1.3l-3.4,1l26.5,3.5l9.6-14.7l-1.5,0.5
	L609.6,595.6z M607.1,608.1l16.1,7.4l4.6-18.9L607.1,608.1z M616.7,593.5l-9.6,14.7l20.7-11.5L616.7,593.5z M520.7,611.1l-12.7-8.7
	l8.3,23.3L520.7,611.1z M266.2,926.7l-28.3-58.1l-13.4,38.5L266.2,926.7z M259.5,954.8l6.7-28.1l-41.6-19.6L259.5,954.8z
	 M581.2,926.7l41.6-19.6l-12.3-39.6L581.2,926.7z M587.9,954.8l35-47.7l-41.6,19.6L587.9,954.8z M525,584.7l-30.3,11.2l13.3,6.4
	L525,584.7z M263.8,651.7l-15.4-27.8h-38.6L263.8,651.7z M599,623.9l-10.5,19.8l43.4-12L599,623.9z M599,623.9l32.8,7.8l-8.6-16.1
	L599,623.9z M607.1,608.1l-8.1,15.8l24.2-8.3L607.1,608.1z M434.6,1124.9l41.4,5.3l7.1-25.4L434.6,1124.9z M483.2,1104.9l-7.1,25.4
	l47.7-30.9L483.2,1104.9z M243.9,610.2l-24.3-13.6l-9.8,27.2L243.9,610.2z M266.8,604.6l-16.7-5.1l-11.9-3.7l-1.8-0.6l-3.3-1
	l-2.3-0.7l13.2,16.8L266.8,604.6z M230.7,593.5l-11,3.2l24.3,13.6L230.7,593.5z M248.4,623.9l-4.6-13.7l-34.1,13.6L248.4,623.9z
	 M317.4,584.8l9,9.3l2.9,1.8l2.9,1.8l1.6,1l5.6,3.5L317.4,584.8z M311.4,580.7l5.7,5.1l1.5,1.3l7.9,7l-9-9.3l-12.5-9.9L311.4,580.7z
	 M508,602.3l-25.3,10.3l33.6,13L508,602.3z M494.7,595.9l-12,16.7l25.3-10.3L494.7,595.9z M364.7,612.6l-25.3-10.4l-13.5,29.3
	L364.7,612.6z M339.4,602.2l-27.9,18.3l14.4,11L339.4,602.2z M658.5,707.3l-44.6,24.9l34.5,49L658.5,707.3z M646.1,670.9l-32.2,61.3
	l44.6-24.9L646.1,670.9z M604.5,564.5l17.9,5.9l-9.1-17.6L604.5,564.5z M220.6,571.3l22.2-6.8l-12.4-9.5L220.6,571.3z M587.6,566
	l12.3,4.4l3.8,1.3l1.4,0.5l13.7,4.9l7.9,2.8l-22.1-15.4L587.6,566z M234.3,574.3l0.3-0.1l0.2-0.1l0.2-0.1l0.7-0.2l13.8-4.5l4-1.3
	l6.2-2l-16.9-1.6l-14.1,11.7L234.3,574.3z M296.8,969l-30.6-42.3l-6.7,28.1L296.8,969z M259.5,954.8l46.6,72.2l-9.3-57.9
	L259.5,954.8z M275.5,629.9l-27-6.1l15.4,27.8L275.5,629.9z M275.5,629.9l-11.7,21.8l62-20.2L275.5,629.9z M311.5,620.5l-36,9.5
	l50.4,1.6L311.5,620.5z M275.5,629.9l-31.6-19.7l4.6,13.7L275.5,629.9z M599,623.9l-37.3,3.7l26.8,16L599,623.9z M561.6,627.6
	l-45.3-2l72.1,18L561.6,627.6z M520.7,611.1l-4.4,14.6l45.3,2L520.7,611.1z M273.5,297.2l-54.9,4l33.1,61.3L273.5,297.2z M200,394
	l51.7-31.5l-33.1-61.3L200,394z M516.3,625.6l33.8,34l38.3-15.9L516.3,625.6z M538.2,1062.8l20.6-47.9l-47.8,46.7L538.2,1062.8z
	 M483.2,1104.9l40.6-5.6l-12.8-37.7L483.2,1104.9z M523.8,1099.3l14.4-36.5l-27.2-1.2L523.8,1099.3z M263.8,651.7l-52.4,18
	l37.6,28.2L263.8,651.7z M544.2,606.5l-23.5,4.5l40.9,16.5L544.2,606.5z M303.2,606.5l8.3,13.9l27.9-18.3L303.2,606.5z M307.7,600.7
	H307l-3.9,5.9l36.2-4.3L307.7,600.7z M540.4,600.6l-19.7,10.5l23.5-4.5L540.4,600.6z M646.1,670.9l-54.7,19.7l22.5,41.6L646.1,670.9
	z M588.4,643.6l-38.3,15.9l41.3,31L588.4,643.6z M631.8,631.6l-43.4,12l3,47L631.8,631.6z M591.4,690.6l54.7-19.7l-14.3-39.3
	L591.4,690.6z M322.4,575.1l-17.5-0.3l12.5,9.9l22,17.4L322.4,575.1z M529.1,1004.3l29.8,10.6l29-60.1L529.1,1004.3z M529.1,1004.3
	l-18.1,57.3l47.8-46.7L529.1,1004.3z M339.4,602.2l25.3,10.4l-0.6-16.8L339.4,602.2z M364.1,595.8l-41.7-20.7l17,27.1L364.1,595.8z
	 M613.9,732.2l-16.6,87.2l51-38.2L613.9,732.2z M597.3,819.5l13.2,48l37.9-86.3L597.3,819.5z M525,584.7l2.5-11.8l-32.7,23
	L525,584.7z M525,584.7l20.7-12.4l-18.3,0.6L525,584.7z M582.9,611.8l-21.3,15.8l37.3-3.7L582.9,611.8z M540.4,600.6l3.9,5.9
	l38.7,5.2L540.4,600.6z M572.7,603.8l-7-0.7l-6-0.6l-11.8-1.2l-2.3-0.2l-2.1-0.2l-3.2-0.3l42.5,11.2l-2.3-7.2L572.7,603.8z
	 M582.9,611.8l-38.7-5.2l17.4,21L582.9,611.8z M580.6,604.6l2.3,7.2l24.2-3.7L580.6,604.6z M582.9,611.8l16.1,12.1l8.1-15.8
	L582.9,611.8z M444.7,271.8l-13.7-56l-66.5,39.1L444.7,271.8z M431,215.9l13.7,56l71.1-40.8L431,215.9z M444.7,271.8l106.7,23.5
	L515.7,231L444.7,271.8z M590.7,548.6l13.8,15.9l8.9-11.7L590.7,548.6z M275.5,629.9l-6.7-18l-24.9-1.7L275.5,629.9z M303.2,606.5
	l-34.4,5.4l42.6,8.5L303.2,606.5z M268.8,612l6.7,18l36-9.5L268.8,612z M303.2,606.5l3.9-5.9l-38.2,11.3L303.2,606.5z M307,600.6
	l-6.2,0.6l-9.2,0.9l-4.6,0.5l-11,1.1l-1,0.1l-8.1,0.8l2,7.4L307,600.6z M268.8,612l-2-7.4l-22.9,5.6L268.8,612z M355.8,1089.6
	l-49.7-62.7l3.1,35.8L355.8,1089.6z M390.6,1123.2l-34.9-33.5l-10,18L390.6,1123.2z M309.2,1062.8l36.6,44.8l10-18L309.2,1062.8z
	 M494.7,595.9l32.7-23l-6.3-4.5L494.7,595.9z M326.4,568.2l-3.9,6.9l41.7,20.7L326.4,568.2z M494.7,595.9l-13.6-0.6l1.5,17.3
	L494.7,595.9z M521.1,568.4l-40,26.9l13.6,0.6L521.1,568.4z M552.3,952.5l35.6,2.3l-6.7-28.1L552.3,952.5z M552.3,952.5l-23.2,51.8
	l58.8-49.5L552.3,952.5z M242.9,564.5l25.8-17.7l-38.2,8.2L242.9,564.5z M222.5,511.2l-2.5-38.9l-30.5,9.4L222.5,511.2z M200,394
	l-10.5,87.7l30.5-9.4L200,394z M482.7,612.6l-4.3,15.8l37.9-2.7L482.7,612.6z M296.8,969l-13.9-46.6l-16.8,4.3L296.8,969z
	 M516.3,625.6l-37.9,2.7l29.2,21.3l42.5,9.9L516.3,625.6z M366.2,630.2l-1.5-17.6l-38.8,18.9L366.2,630.2z M558.5,921.1l-6.2,31.5
	l28.9-25.8L558.5,921.1z M270.9,560.4l33.9,14.5l17.5,0.3L270.9,560.4z M270.9,560.4l-2.2-13.7l-25.8,17.7L270.9,560.4z
	 M270.9,560.4l-11.1,5.6l2.3,0.5l6.8,1.3l10.4,2l5.8,1.1l14.2,2.8l0,0l0,0h0.1l5.4,1.1L270.9,560.4z M259.8,566l11.1-5.6l-28.1,4
	L259.8,566z M542.6,927.9l9.7,24.6l6.2-31.5L542.6,927.9z M548,922.1l-5.5,5.8l15.9-6.8L548,922.1z M542.6,927.9l5.5-5.8L540,925
	L542.6,927.9z M569.4,558.7l18.2,7.3l16.9-1.6L569.4,558.7z M566.5,548.4l2.9,10.3l21.3-10.1L566.5,548.4z M569.4,558.7l-2.9-10.3
	l-45.4,20L569.4,558.7z M569.4,558.7l35.1,5.7l-13.8-15.8L569.4,558.7z M545.7,572.3l14.5-2.2l3.5-0.5l7.1-1.1l10.5-1.6l5.2-0.8
	l1.1-0.2l-18.2-7.3L545.7,572.3z M527.4,572.9l42-14.2l-48.3,9.7L527.4,572.9z M527.4,572.9l18.3-0.6l23.7-13.6L527.4,572.9z
	 M300.2,934.1L283,922.4l13.9,46.6L300.2,934.1z M306.2,924.6l-8.5-3l2.5,12.6L306.2,924.6z M300.2,934.1l-2.5-12.6l-14.7,0.8
	L300.2,934.1z M286.7,554.5l-15.7,5.9l51.5,14.7L286.7,554.5z M286.7,554.5l39.7,13.8l-57.7-21.6L286.7,554.5z M270.9,560.4
	l15.7-5.9l-18-7.7L270.9,560.4z M326.4,568.2l-39.7-13.7l35.7,20.7L326.4,568.2z M267.1,754.9l-18.1-57l-37.6-28.2l15,95.4
	L267.1,754.9z M304.7,694l21.2-62.5l-62,20.2l-14.7,46.2L304.7,694z M304.7,694l-55.6,3.9l18.1,57L304.7,694z M267.1,754.9
	l-40.6,10.2l47.3,59.3L267.1,754.9z M273.8,824.4l-47.3-59.3l11.4,103.5L273.8,824.4z M613,495.8l26.8,47.9l6-39.6L613,495.8z
	 M637.8,438.6l-24.7,57.3l32.8,8.3L637.8,438.6z M602.3,416.2l35.5,22.3l-25.3-74.9L602.3,416.2z M245.1,416.2L199.9,394l20,78.3
	L245.1,416.2z M251.7,362.5L200,394l45.2,22.2L251.7,362.5z M297.6,921.6l8.5,3l1.7-2.7l-11.4-6L297.6,921.6z M297.6,921.6l-1.2-5.6
	l-13.5,6.4L297.6,921.6z M571.3,537.4l19.3,11.2l22.7,4.2L571.3,537.4z M566.5,548.4l24.2,0.1l-19.3-11.2L566.5,548.4z M602.3,416.2
	l10.2-52.6l-46.1-2.9L602.3,416.2z M612.5,363.7l-61.1-68.4l15,65.5L612.5,363.7z M262.8,527.5l-40.3-16.3L210,540.1L262.8,527.5z
	 M268.7,546.7l-5.9-19.3l-32.3,27.4L268.7,546.7z M230.5,554.9l32.3-27.4L210,540.1L230.5,554.9z M581.2,926.7l-20-26.6l-2.7,21
	L581.2,926.7z M561.2,900.1l20,26.6l29.3-59.2L561.2,900.1z M455,1100.4l-20.4,24.5l48.6-20L455,1100.4z M355.8,1089.6l-1.8-38.4
	l-47.9-24.2L355.8,1089.6z M296.8,969l9.3,57.9l47.9,24.2L296.8,969z M251.7,362.5l81.6-34.8l-59.8-30.5L251.7,362.5z M333.3,327.7
	l31.1-72.8l-90.9,42.3L333.3,327.7z M268.7,546.7l63.4,13l-69.3-32.3L268.7,546.7z M326.4,568.2l5.8-8.5l-63.4-13L326.4,568.2z
	 M326.4,568.2l37.8,27.6l-32-36.1L326.4,568.2z M521.1,568.4l45.4-20l-52.6,11.8L521.1,568.4z M566.5,548.4l4.8-11l-57.4,22.8
	L566.5,548.4z M481.2,595.3l40-26.9l-7.2-8.2L481.2,595.3z M513.9,560.2l57.4-22.8l14-15.7L513.9,560.2z M613,495.8l-27.7,25.9
	l54.5,22L613,495.8z M571.3,537.4l42.1,15.4l-28-31.1L571.3,537.4z M585.4,521.7l28,31.1l26.4-9.1L585.4,521.7z M296.5,915.9
	l-5.3-17.2l-8.2,23.6L296.5,915.9z M283,922.4l8.2-23.6l-24.9,28L283,922.4z M266.2,926.7l24.9-28l-53.2-30.2L266.2,926.7z M554,836
	l43.3-16.5l16.6-87.2L554,836z M554,836l7.2,64.1l49.3-32.6L554,836z M597.3,819.5L554,836l56.5,31.5L597.3,819.5z M478.4,628.3
	l17.1,41.4l12.1-20L478.4,628.3z M325.9,631.5L304.7,694l35.7-7.7L325.9,631.5z M366.2,630.2l-40.3,1.4l14.5,54.8L366.2,630.2z
	 M523.9,710.9l-16.3-61.2l-12.1,20L523.9,710.9z M550.1,659.6l-42.5-9.9l16.3,61.2l67.5-20.2L550.1,659.6z M558.5,921.1l-14-7.3
	l3.6,8.3L558.5,921.1z M535.8,920.4l4.1,4.6l8.1-2.9l-3.6-8.3L535.8,920.4z M523.9,710.9l20.8,51.3l46.7-71.5L523.9,710.9z
	 M591.4,690.6l-46.7,71.5l69.2-29.9L591.4,690.6z M544.7,762.1L554,836l59.9-103.8L544.7,762.1z M318,927.2l-10.2-5.3l-1.7,2.7
	l-6,9.6L318,927.2z M466.7,617l16-4.4l-1.5-17.3L466.7,617z M466.7,617l11.8,11.4l4.3-15.8L466.7,617z M364.7,612.6l1.5,17.6
	l14.5-13.2L364.7,612.6z M364.1,595.8l0.6,16.8l16,4.4L364.1,595.8z M255.3,467.9l-10.2-51.7l-25.2,56.1L255.3,467.9z M255.3,467.9
	l-35.4,4.4l2.5,38.9L255.3,467.9z M472.8,1069.2l38.2-7.5l18.1-57.3L472.8,1069.2z M472.8,1069.2l10.4,35.7l27.8-43.3L472.8,1069.2z
	 M472.8,1069.2l-17.8,31.3l28.2,4.5L472.8,1069.2z M423.7,1091.8l10.9,33.1l20.4-24.5L423.7,1091.8z M423.7,1091.8l-67.9-2.2
	l34.9,33.5L423.7,1091.8z M434.6,1124.9l-10.9-33.1l-33.1,31.3L434.6,1124.9z M423.7,1091.8l31.3,8.6l17.8-31.3L423.7,1091.8z
	 M326.4,742.4l13.9-56l-35.7,7.7L267,755L326.4,742.4z M542.6,927.9l-18.3,20.6l28,4L542.6,927.9z M366.2,630.2l-25.8,56.1
	l23.4-23.7L366.2,630.2z M380.7,617l-14.5,13.2l-2.4,32.4L380.7,617z M566.4,360.8l-15-65.5l-40.9,57.4L566.4,360.8z M510.5,352.7
	l40.9-57.4l-106.7-23.5L510.5,352.7z M524.3,948.5l18.3-20.6l-15.7-0.8l-5.5,4.1L524.3,948.5z M542.6,927.9L540,925l-4.1-4.6
	l-8.9,6.7L542.6,927.9z M410.1,326.3l34.5-54.4L364.4,255L410.1,326.3z M333.3,327.7l76.8-1.4L364.4,255L333.3,327.7z M360.4,996.6
	l-26.6-22l-37-5.6L360.4,996.6z M360.4,996.6L296.8,969l57.1,82.2L360.4,996.6z M464,335.7l46.6,17l-65.9-80.9L464,335.7z
	 M410.1,326.3l53.8,9.5l-19.2-64L410.1,326.3z M364.1,595.8l16.6,21.2l-2.3-25.8L364.1,595.8z M364.1,595.8l14.3-4.6l-46.3-31.4
	L364.1,595.8z M466.7,617l14.5-21.7l-12.2-4.1L466.7,617z M469,591.2l12.2,4.1l32.7-35.1L469,591.2z M307.7,869.3l-33.9-44.9
	l-35.9,44.2L307.7,869.3z M291.2,898.8l16.5-29.5l-69.8-0.8L291.2,898.8z M379.8,1031.9l-19.4-35.3l-6.4,54.6L379.8,1031.9z
	 M475.4,1004.4l-7.8,27.5l61.5-27.6L475.4,1004.4z M467.6,1031.9l5.3,37.2l56.3-64.9L467.6,1031.9z M602.3,416.2l-24.2,43.4l35,36.1
	l24.7-57.3L602.3,416.2z M394.5,1071l-14.6-39.1l-25.9,19.3L394.5,1071z M394.5,1071l-40.5-19.8l1.8,38.4L394.5,1071z M423.7,1091.8
	l-29.2-20.8l-38.7,18.6L423.7,1091.8z M324.9,818.3l-51.1,6.1l33.9,44.9L324.9,818.3z M324.9,818.3l-57.7-63.4l6.7,69.5L324.9,818.3
	z M326.4,742.4l-59.3,12.5l57.7,63.4L326.4,742.4z M309.1,390.8l24.2-63.1l-81.6,34.8L309.1,390.8z M245.1,416.2l64-25.4l-57.4-28.3
	L245.1,416.2z M547.9,403.4l18.5-42.7l-55.8-8.1L547.9,403.4z M602.3,416.2L548,403.4l30.1,56.3L602.3,416.2z M547.9,403.4
	l54.3,12.8l-35.9-55.5L547.9,403.4z M578,459.7l-12.3,34.6l47.3,1.5L578,459.7z M565.7,494.3l19.7,27.4l27.7-25.9L565.7,494.3z
	 M544.7,762.1l-30.8,46.3l40.1,27.5L544.7,762.1z M426.1,1040.5l-31.6,30.5l29.2,20.8l49.1-22.7L426.1,1040.5z M426.1,1040.5
	l46.7,28.7l-5.3-37.2L426.1,1040.5z M426.1,1040.5l-46.2-8.6l14.6,39.1L426.1,1040.5z M415.8,1002.2l-55.4-5.6l19.4,35.3l46.2,8.6
	l41.5-8.6l7.8-27.5L415.8,1002.2z M518.7,917.5l-3.3,6.2l5.3,3l0.7,4.5l5.5-4.1l8.9-6.7l8.6-6.5L518.7,917.5z M523.9,710.9
	l-19.1,45.3l40,5.9L523.9,710.9z M338.7,789.8l2.3-17.4l1.7-16.3l-17.8,62.2l15.1-18.8L338.7,789.8z M504.8,756.2l9.1,52.3
	l30.8-46.3L504.8,756.2z M340.4,686.3l-13.9,56l16.2,13.8L340.4,686.3z M342.6,756.2l-16.2-13.8l-1.6,75.9L342.6,756.2z
	 M327.8,931.7h-1.1l-8.6-4.5l-17.8,6.9l32.3,10.2L327.8,931.7z M332.5,944.3l-32.3-10.2l-3.3,34.9L332.5,944.3z M333.8,974.6
	l-1.3-30.3L296.9,969L333.8,974.6z M262.8,527.5l46.3-14.1l-86.6-2.2L262.8,527.5z M332.1,559.8l-23-46.4l-46.3,14.1L332.1,559.8z
	 M309.1,513.3l-53.7-45.4l-32.9,43.2L309.1,513.3z M307.8,921.9l10.2,5.3l8.6,4.5h1.1l-2.7-7.2l7.4-5l-0.5-1.9l-35.6-1.6
	L307.8,921.9z M332,917.5l0.5,1.9l2.1-1.5L332,917.5z M529.1,1004.3l23.2-51.8l-70.2,30.7L529.1,1004.3z M415.8,1002.2l59.6,2.2
	l6.7-21.1L415.8,1002.2z M475.4,1004.4l53.7-0.1l-46.9-21L475.4,1004.4z M495.5,669.7l-4.9,33.5l33.3,7.7L495.5,669.7z M490.6,703.2
	l14.2,53l19.1-45.3L490.6,703.2z M332.1,559.8l42.9,6.7l-65.9-53.2L332.1,559.8z M472.4,566.5l-3.4,24.7l44.9-31L472.4,566.5z
	 M378.4,591.2l-3.4-24.7l-42.9-6.7L378.4,591.2z M499.5,969.6l52.8-17.1l-28-4L499.5,969.6z M482.1,983.3l70.2-30.7l-52.8,17.1
	L482.1,983.3z M309.1,390.8l-64,25.4l10.2,51.7l56.4-26.3L309.1,390.8z M363.8,662.6l-23.4,23.7l15.8,25.3L363.8,662.6z
	 M356.1,711.7l-15.7-25.4l2.3,69.9L356.1,711.7z M324.1,905.2l-33-6.4l5.3,17.2L324.1,905.2z M332,917.5l-7.9-12.4l-27.7,10.8
	L332,917.5z M515.4,923.8l3.3-6.2l-11.6,1.5L515.4,923.8z M495.9,816.9l23.4,58.8l-5.5-67.2L495.9,816.9z M519.4,875.7l41.8,24.4
	L554,836L519.4,875.7z M513.9,808.5l5.5,67.2l34.7-39.7L513.9,808.5z M565.7,494.3l-70.2,37.9l89.9-10.5L565.7,494.3z M495.5,532.2
	l18.4,28l71.5-38.6L495.5,532.2z M472.4,566.5l41.5-6.2l-18.4-28L472.4,566.5z M378.4,591.2l2.3,25.8l13.8-17.3L378.4,591.2z
	 M394.6,599.7l-19.5-33.2l3.4,24.7L394.6,599.7z M565.7,494.3l12.3-34.6L515,483L565.7,494.3z M380.4,416.2l29.7-89.9l-76.8,1.4
	L380.4,416.2z M309.1,390.8l71.3,25.4l-47.1-88.5L309.1,390.8z M311.7,441.6l68.7-25.4l-71.3-25.4L311.7,441.6z M466.7,617l4.7,49.6
	l7.1-38.2L466.7,617z M471.4,666.6l19.2,36.6l4.9-33.5L471.4,666.6z M471.4,666.6l24.2,3.1l-17.2-41.4L471.4,666.6z M495.9,437.6
	l19.1,45.3l63-23.3l-30.1-56.3l-37.4-50.7L495.9,437.6z M432.7,408.4l63.2,29.3l14.6-84.9l-46.6-17L432.7,408.4z M380.4,416.2
	l52.2-7.8l-22.5-82.1L380.4,416.2z M432.7,408.4l31.3-72.6l-53.8-9.5L432.7,408.4z M311.7,441.6l-56.4,26.3l83.3,16.6L311.7,441.6z
	 M338.6,484.5l-83.3-16.6l53.7,45.4L338.6,484.5z M494.1,810.1l1.8,6.8l12.8-27L494.1,810.1z M508.7,789.8l-12.8,27l18-8.4
	L508.7,789.8z M340.4,792.3l-0.4,7.2l13.3,10.6L340.4,792.3z M332.5,944.3l1.3,30.3l24-9L332.5,944.3z M333.8,974.6l26.6,22
	l-2.6-30.9L333.8,974.6z M416.3,982.6l-55.9,14l55.4,5.6l66.3-18.9L416.3,982.6z M375,566.5l-2.5-38.4l-63.4-14.8L375,566.5z
	 M372.5,528.1l-33.9-43.6l-29.5,28.8L372.5,528.1z M445.5,594.5l23.5-3.3l3.4-24.7L445.5,594.5z M504,763.3l4.7,26.6l5.2,18.6
	L504,763.3z M504.8,756.2l-0.7,7.1l9.9,45.2L504.8,756.2z M340.2,792l-1.6-2.2l1.3,9.6L340.2,792z M340.4,792.3l-0.2-0.2l-0.3,7.5
	L340.4,792.3z M353.2,748.4l-10.5,7.8l-1.7,16.3L353.2,748.4z M340,879.2l-32.3-9.9l-16.5,29.4L340,879.2z M324.1,905.2l15.9-26
	l-48.9,19.5L324.1,905.2z M445.5,594.5l4.1,20.6l19.4-23.9L445.5,594.5z M449.6,615.1l17.1,1.9l2.3-25.8L449.6,615.1z M472.5,507.9
	l-37.7,26.6l37.5,32l23.1-34.3l70.3-37.9L472.5,507.9z M472.5,507.9l93.2-13.6L515,482.9L472.5,507.9z M508.5,892.8l52.7,7.3
	l-41.8-24.4L508.5,892.8z M508.5,892.8l35.9,21.1l14,7.3l2.7-21L508.5,892.8z M338.6,484.5l33.9,43.6l26.8-2.4L338.6,484.5z
	 M399.3,525.8l-26.8,2.4l2.5,38.4L399.3,525.8z M365.1,923.2l-3.4-0.6l-36.6,1.9l2.7,7.2l4.7,12.6L365.1,923.2z M361.7,922.6
	l-27-4.6l-2.1,1.5l-7.4,5L361.7,922.6z M445.5,594.5l26.9-28l-37.5-32L445.5,594.5z M415,592l-15.6-66.3l-24.3,40.7L415,592z
	 M415,592l-40-25.5l19.5,33.2L415,592z M415,592l30.5,2.5l-10.6-60L415,592z M388.1,472.6l-76.4-31l26.9,42.9L388.1,472.6z
	 M311.7,441.6l76.4,31l-7.6-56.4L311.7,441.6z M399.3,525.8L388,472.7l-49.4,11.9L399.3,525.8z M388.1,472.6l65.5,0.5l-73.1-56.9
	L388.1,472.6z M453.6,473.1l-20.9-64.7l-52.2,7.8L453.6,473.1z M399.3,525.8l15.6,66.3l19.9-57.5l37.7-26.6l-19-34.8l-65.5-0.5
	L399.3,525.8z M453.6,473.1l19,34.8l42.5-24.9L453.6,473.1z M453.6,473.1L515,483l-19.1-45.3l-63.2-29.3L453.6,473.1z M489.9,943.2
	l9.5,26.4l24.8-21.1L489.9,943.2z M489.9,943.2l34.3,5.3l-2.8-17.2l-0.7-4.5L489.9,943.2z M476.5,922.9l44.2,3.9l-5.3-3l-8.3-4.7
	L476.5,922.9z M476.5,922.9l-2.5,0.3h-0.2l16.1,19.9l30.8-16.4L476.5,922.9z M383,660l-2.3-43.1l-16.9,45.6L383,660z M394.6,599.7
	L380.7,617l2.3,43.1L394.6,599.7z M383,660l-19.2,2.5l-7.7,49.1L383,660z M353.3,810.1L340,799.5l33.9,35.4L353.3,810.1z
	 M373.9,834.9L340,799.5l-15.1,18.8l-17.2,51L373.9,834.9z M340,879.2l33.8-44.4l-66.1,34.5L340,879.2z M495.9,816.9l-9.5,38.6
	l33,20.2L495.9,816.9z M490.7,902.2l28,15.3l25.8-3.7L490.7,902.2z M490.7,902.2l53.8,11.6l-35.9-21.1L490.7,902.2z M488.1,740.2
	l15.9,23l0.7-7.1L488.1,740.2z M471.4,666.6l16.7,73.7l2.5-37.1L471.4,666.6z M490.6,703.2l-2.5,37.1l16.7,15.9L490.6,703.2z
	 M475.5,962l6.6,21.3l17.4-13.7L475.5,962z M489.9,943.2L475.5,962l23.9,7.6L489.9,943.2z M416.3,982.6l-25.5-13.7l-30.4,27.7
	L416.3,982.6z M390.8,968.9l-33-3.2l2.6,30.9L390.8,968.9z M445.5,594.5L415,592l-0.7,23.1L445.5,594.5z M414.3,615.1L415,592
	l-20.4,7.7L414.3,615.1z M466.4,909.3l52.2,8.3l-28-15.3L466.4,909.3z M466.4,909.3l-39.5-0.3l47,14.3l2.5-0.3l30.6-3.9l11.6-1.5
	L466.4,909.3z M457.8,646.9l8.9-29.9l-17.1-1.9L457.8,646.9z M457.8,646.9l13.6,19.7l-4.7-49.6L457.8,646.9z M332,917.5l32.7-15.5
	l-40.6,3.1L332,917.5z M464.3,801.9l-0.2,11.5l13.4-6.2l-5.1-4.1L464.3,801.9z M369.9,807.2l-16.6,2.9l30,3.3L369.9,807.2z
	 M383.3,813.4l-30-3.3l20.6,24.7L383.3,813.4z M464.1,813.4l30-3.3l-16.6-2.9L464.1,813.4z M494.1,810.1l14.7-20.3l-7.7,6.6
	L494.1,810.1z M346.4,796.4l9.6-20.2l-15-3.7l-2.3,17.4L346.4,796.4z M346.4,796.4l-7.7-6.6l1.6,2.2l0.2,0.2l12.9,17.8L346.4,796.4z
	 M374.3,945.5l-41.8-1.2l25.4,21.3L374.3,945.5z M357.8,965.7l33,3.2l-16.6-23.3L357.8,965.7z M374.3,945.5l-7.5-22.1l-1.6-0.3
	l-32.6,21.2L374.3,945.5z M349.6,757.7l3.6-9.3L341,772.5L349.6,757.7z M369.9,807.2l5.7-4.4l-0.5,0.1L369.9,807.2z M384.6,801.4
	l-8.9,1.4l-5.7,4.4l13.4,6.2L384.6,801.4z M402,927l-33.3-3.2l-2-0.3l7.5,22.1L402,927z M475.5,962l-39.4,5l46,16.3L475.5,962z
	 M436.1,966.9l-19.7,15.7l65.8,0.7L436.1,966.9z M390.8,968.9l25.5,13.7l19.7-15.7L390.8,968.9z M494.1,810.1L457,832.2l38.9-15.4
	L494.1,810.1z M464.1,813.4l-7.1,18.8l37.1-22.1L464.1,813.4z M457,832.2l-1.3,29.1l30.7-5.9l9.5-38.6L457,832.2z M374.3,713.1
	l-18.2-1.4l-13.5,44.5L374.3,713.1z M374.3,713.1l-31.7,43.1l10.5-7.8L374.3,713.1z M356.1,711.7l18.2,1.4l8.7-53L356.1,711.7z
	 M334.7,918l27,4.6l3.4,0.6l1.6,0.3l2,0.3l29.6-15.5l-66.4,9.2L334.7,918z M398.4,908.3l-33.6-6.2l-32.7,15.5L398.4,908.3z M402,927
	l4.6-3.1l10.6-0.2l-18.8-15.4l-29.6,15.5L402,927z M508.7,789.8l-4.7-26.6l-3.3,7.7L508.7,789.8z M501,796.4l7.7-6.6l-8-18.9
	L501,796.4z M488.1,740.2l12.6,30.7l3.3-7.7L488.1,740.2z M365.1,884.7l-25.1-5.5l-15.9,26L365.1,884.7z M364.8,902.1l0.4-17.4
	l-41,20.5L364.8,902.1z M458,946.8L436.1,967l39.4-5L458,946.8z M458,946.8l17.6,15.2l14.4-18.8L458,946.8z M442.5,929.8l25-5.8
	l-35.5,4.1L442.5,929.8z M420.1,926.1l-3-2.4l-10.6,0.2L420.1,926.1z M442.5,929.8l15.5,17l31.9-3.6L442.5,929.8z M442.5,929.8
	l47.4,13.3l-16.1-19.9l-6.3,0.7L442.5,929.8z M481.5,804.4l12.6,5.8l6.9-13.7L481.5,804.4z M394.6,599.7l-11.5,60.4l19.3-18.1
	L394.6,599.7z M477.5,807.2l16.6,2.9l-12.6-5.8L477.5,807.2z M369.9,807.2l-4-2.8l-12.6,5.8L369.9,807.2z M402.3,641.9l11.9-26.9
	l-19.7-15.4L402.3,641.9z M365.9,804.4l-19.5-7.9l6.9,13.7L365.9,804.4z M424.1,926.8l7.9,1.3l35.5-4.1l6.3-0.7h0.2L427,909
	L424.1,926.8z M398.4,908.3l18.8,15.4l3,2.4l3.9,0.6l2.9-17.9L398.4,908.3z M378.7,863.4l-38.6,15.8l25.1,5.5L378.7,863.4z
	 M378.7,863.4l-4.8-28.6l-33.8,44.4L378.7,863.4z M417,947.9l-26.2,21L436,967L417,947.9z M374.3,945.5l16.6,23.3l26.2-21
	L374.3,945.5z M406.6,923.9L402,927l-27.7,18.6l42.8,2.4L406.6,923.9z M417,947.9l40.9-1.1l-15.5-17L417,947.9z M417,947.9l19,19.1
	l21.9-20.2L417,947.9z M417,947.9l25.5-18.1l-10.5-1.7l-7.9-1.3l-3.9-0.6l-13.6-2.2L417,947.9z M457.8,646.9l-8.2-31.8l-10,23.7
	L457.8,646.9z M414.3,615.1l25.4,23.8l5.8-44.4L414.3,615.1z M449.6,615.1l-4.1-20.6l-5.8,44.4L449.6,615.1z M371.3,803.5l-5.4,0.9
	l4,2.8L371.3,803.5z M375.1,802.9l-3.8,0.6l-1.4,3.7L375.1,802.9z M472.4,803.1l5.1,4.1l4-2.8L472.4,803.1z M425,832.7l-4.9,11.7
	l36.8-12.2L425,832.7z M455.7,861.3l52.9,31.4l10.8-17.1L455.7,861.3z M486.4,855.4l-30.7,5.9l63.7,14.3L486.4,855.4z M457,832.2
	l-36.8,12.2l35.5,16.9L457,832.2z M420.1,844.4l-46.3-9.6l31.4,18.3L420.1,844.4z M405.3,853.1l-31.4-18.3l4.8,28.6L405.3,853.1z
	 M455.7,861.3l1.9,19.8l51,11.6L455.7,861.3z M457.6,881.1l33.1,21.1l17.8-9.5L457.6,881.1z M365.1,884.7l-0.4,17.4l41.7-11.9
	L365.1,884.7z M406.4,890.2l-8,18.2L427,909L406.4,890.2z M398.4,908.3l8-18.2L364.7,902L398.4,908.3z M425,832.7l32-0.5l-19.2-7.1
	L425,832.7z M437.8,825.1l19.2,7.1l7.1-18.8L437.8,825.1z M356,776.2l-6.4-18.5l-8.6,14.7L356,776.2z M392.2,804.9l-5.9-3.8
	l-1.7,0.3l-1.2,12L392.2,804.9z M406.4,890.2l20.5,18.8l3.7-18.2L406.4,890.2z M430.6,890.7l60.1,11.5l-33.1-21.1L430.6,890.7z
	 M427,908.9l39.5,0.3l-35.8-18.5L427,908.9z M430.6,890.7l35.8,18.5l24.3-7L430.6,890.7z M403.8,817.5l16.3,26.9l4.9-11.7
	L403.8,817.5z M403.8,817.5l-20.5-4.1l-9.5,21.4L403.8,817.5z M420.1,844.4l-16.3-26.9l-30,17.4L420.1,844.4z M402.8,811.6
	l-10.6-6.7l-8.8,8.5l20.5,4.1L402.8,811.6z M462.3,711.2l9-44.6l-13.6-19.7L462.3,711.2z M471.4,666.6l-9,44.6l25.8,29.1
	L471.4,666.6z M449.6,808l-5.9,3.6l-5.9,13.5l26.3-11.7L449.6,808z M464.3,801.9l-3.8-0.5l-10.9,6.6l14.4,5.4L464.3,801.9z
	 M413.5,875.1l-34.8-11.7l-13.5,21.2L413.5,875.1z M413.5,875.1l17.1,15.6l26.9-9.6L413.5,875.1z M413.5,875.1l44,6.1l-1.8-19.9
	L413.5,875.1z M405.3,853.1l-26.6,10.3l34.9,11.7L405.3,853.1z M420.1,844.4l-14.9,8.7l8.3,22L420.1,844.4z M420.1,844.4l-6.6,30.7
	l42.2-13.8L420.1,844.4z M406.4,890.2l24.2,0.6l-17.1-15.6L406.4,890.2z M413.5,875.1l-48.4,9.6l41.3,5.5L413.5,875.1z M370.6,747.9
	l3.7-34.8l-21.1,35.3L370.6,747.9z M370.6,747.9l-17.4,0.5l-3.6,9.3L370.6,747.9z M414.3,615.1L402.4,642l17.1,67.1l10-42.9
	L414.3,615.1z M429.4,666.2l10.2-27.3l-25.4-23.8L429.4,666.2z M370.6,747.9l26.6-51.9l-22.9,17L370.6,747.9z M397.2,696.1l-14.1-36
	l-8.7,53L397.2,696.1z M402.3,641.9L383,660l14.1,36L402.3,641.9z M474.9,750.1l25.8,20.9l-12.6-30.7L474.9,750.1z M462.3,711.2
	l12.6,38.9l13.2-9.9L462.3,711.2z M476.8,792.9l4.7,11.5l19.5-7.9L476.8,792.9z M370.6,792.9l-24.3,3.6l19.5,7.9L370.6,792.9z
	 M370.6,792.9l-14.7-16.7l-9.6,20.2L370.6,792.9z M419.1,821.2l-15.2-3.7l21.2,15.2L419.1,821.2z M419.1,821.2l5.9,11.5l12.8-7.6
	L419.1,821.2z M402.9,811.7l-0.1-0.1l1,5.9L402.9,811.7z M379.3,799.4l2.2-0.8l-10.9-5.8l-4.7,11.5l5.4-0.9l3.8-0.6l0.5-0.1l8.9-1.4
	l1.7-0.3L379.3,799.4z M381.5,798.6l-2.2,0.8l6.9,1.7L381.5,798.6z M465.2,798.9l2.7,0.5l13.6,4.9l-4.7-11.5L465.2,798.9z
	 M467.9,799.4l-7.4,2l3.8,0.5l8.1,1.1l9.1,1.3L467.9,799.4z M467.9,799.4l-2.7-0.5l-4.7,2.5L467.9,799.4z M477.5,772.7l23.2-1.7
	l-25.8-20.9L477.5,772.7z M477.5,772.7l23.5,23.8l-0.3-25.5L477.5,772.7z M477.5,772.7l-0.8,20.2l24.3,3.6L477.5,772.7z
	 M439.6,638.8l-10.2,27.3l15,39.6L439.6,638.8z M444.5,705.7l17.8,5.4l-4.6-64.3L444.5,705.7z M439.6,638.8l4.9,66.9l13.3-58.9
	L439.6,638.8z M402.9,811.7l0.9,5.8l1.7-4.1L402.9,811.7z M405.5,813.4l-1.7,4.1l15.2,3.7L405.5,813.4z M440.2,813.8l-21.1,7.4
	l18.7,3.9L440.2,813.8z M440.2,813.8l-2.4,11.3l5.9-13.5L440.2,813.8z M375.3,771.5l-4.7-23.6l-21,9.8l6.4,18.5L375.3,771.5z
	 M370.6,792.9l4.6-21.3l-19.3,4.7L370.6,792.9z M419.4,709l25-3.3l-15-39.6L419.4,709z M402.3,641.9l-5.2,54.1l22.3,13L402.3,641.9z
	 M402.9,741.8l-5.8-45.7L370.5,748L402.9,741.8z M402.9,741.8l16.5-32.7l-22.3-13L402.9,741.8z M449.6,808l10.9-6.6l-17.5-3.7
	l-2.8,16.1l3.6-2.2L449.6,808z M443,797.6l17.5,3.7l4.7-2.5l11.6-6.1L443,797.6z M443,797.6l33.8-4.8l0.8-20.2L443,797.6z
	 M375.3,771.5l-4.6,21.3l33.8,4.8L375.3,771.5z M404.4,797.6l-33.8-4.8l10.9,5.8l4.7,2.5L404.4,797.6z M404.4,797.6l-18.2,3.5
	l5.9,3.8l10.6,6.7l0.1,0.1l2.6,1.7L404.4,797.6z M443,797.6l-23.9,23.5l21.1-7.4L443,797.6z M445.9,753.8l-1.5-48l-25,3.3
	L445.9,753.8z M444.5,705.7l1.5,48l16.4-42.6L444.5,705.7z M445.9,753.8l28.9-3.7l-12.6-38.9L445.9,753.8z M443,797.6l-19.3,2.6
	l-4.6,20.9L443,797.6z M423.7,800.2l-19.3-2.6l1.1,15.7l13.6,7.8L423.7,800.2z M400.1,763.8l2.8-22l-32.4,6.1l4.7,23.6L400.1,763.8z
	 M400.1,763.8l-24.9,7.7l29.2,26.1L400.1,763.8z M419.4,709l-16.5,32.7l-2.8,22L419.4,709z M443,797.6l34.6-25l-30.3-0.2L443,797.6z
	 M447.3,772.4l-23.6,27.8l19.3-2.6L447.3,772.4z M445.9,753.8l1.3,18.7l27.6-22.4L445.9,753.8z M447.3,772.4l30.3,0.2l-2.7-22.6
	L447.3,772.4z M447.3,772.4l-1.3-18.7l-26.3,14.4L447.3,772.4z M419.7,768.1l-15.2,29.5l19.3,2.6L419.7,768.1z M419.7,768.1
	l-19.5-4.3l4.3,33.8L419.7,768.1z M447.3,772.4l-27.6-4.3l4,32.1L447.3,772.4z M419.4,709l0.2,59.1l26.3-14.3L419.4,709z M419.4,709
	l-19.3,54.8l19.5,4.3L419.4,709z"/>
</svg>
