<?xml version="1.0" encoding="utf-8"?>
<!-- Generator: Adobe Illustrator 23.0.3, SVG Export Plug-In . SVG Version: 6.00 Build 0)  -->
<svg version="1.1" id="Layer_1" xmlns="http://www.w3.org/2000/svg" xmlns:xlink="http://www.w3.org/1999/xlink" x="0px" y="0px"
	 viewBox="0 0 150 150" style="enable-background:new 0 0 150 150;" xml:space="preserve">
<style type="text/css">
	.st0{fill:none;stroke:#000000;stroke-miterlimit:10;}
	.st1{fill:#FFFFFF;}
	.st2{fill-rule:evenodd;clip-rule:evenodd;}
	.st3{fill:#606060;}
	.st4{fill:none;stroke:#000000;stroke-width:4;stroke-miterlimit:10;}
	.st5{fill:none;stroke:#606060;stroke-width:4;stroke-miterlimit:10;}
	.st6{fill:none;stroke:#606060;stroke-miterlimit:10;}
	.st7{fill:none;stroke:#000000;stroke-linecap:round;stroke-linejoin:round;stroke-miterlimit:10;stroke-dasharray:0,2;}
	.st8{fill:none;stroke:#000000;stroke-linecap:round;stroke-linejoin:round;stroke-miterlimit:10;stroke-dasharray:0,3;}
	.st9{fill:none;stroke:#000000;stroke-linecap:round;stroke-linejoin:round;stroke-miterlimit:10;stroke-dasharray:0,4;}
	
		.st10{fill:none;stroke:#000000;stroke-width:0.75;stroke-linecap:round;stroke-linejoin:round;stroke-miterlimit:10;stroke-dasharray:0,3;}
	.st11{fill:none;stroke:#000000;stroke-linecap:round;stroke-linejoin:round;stroke-dasharray:0,6.0252;}
</style>
<path class="st0" d="M102.5,116.8c-2.3,0-4.2,1.9-4.2,4.2s1.9,4.2,4.2,4.2s4.2-1.9,4.2-4.2S104.9,116.8,102.5,116.8L102.5,116.8z"/>
<path class="st0" d="M119.4,44.8c-2.3,0-4.2,1.9-4.2,4.2s1.9,4.2,4.2,4.2s4.2-1.9,4.2-4.2S121.7,44.8,119.4,44.8L119.4,44.8z"/>
<path class="st0" d="M25,89.2c-2.3,0-4.2,1.9-4.2,4.2s1.9,4.2,4.2,4.2s4.2-1.9,4.2-4.2S27.6,89.2,25,89.2L25,89.2z"/>
<path class="st0" d="M26.6,121.1c-2.3,0-4.2,1.9-4.2,4.2s1.9,4.2,4.2,4.2s4.2-1.9,4.2-4.2S29,121.1,26.6,121.1L26.6,121.1z"/>
<path class="st0" d="M57.2,69.3c-2.3,0-4.2,1.9-4.2,4.2s1.9,4.2,4.2,4.2s4.2-1.9,4.2-4.2S59.5,69.3,57.2,69.3L57.2,69.3z"/>
<path class="st0" d="M69.4,4.8c-2.3,0-4.2,1.9-4.2,4.2s1.9,4.2,4.2,4.2s4.2-1.9,4.2-4.2C73.6,6.6,71.8,4.8,69.4,4.8L69.4,4.8z"/>
<path class="st7" d="M109,86.9c-1.9,6.5-5.6,12-10.4,16.4"/>
<path class="st7" d="M100.2,51.5c6.5,6.5,10.4,15.3,10.4,25.2"/>
<path class="st7" d="M55.1,47.1c5.8-3.9,12.5-6,19.9-6c7.4,0,14.1,2.3,19.9,6"/>
<path class="st7" d="M39.4,76.5c0-10.2,4.4-19.4,11.1-25.9"/>
<path class="st7" d="M63.2,110.3c-12-4.2-21.3-14.8-23.4-27.8"/>
<path class="st7" d="M93.5,107c-5.3,3.2-11.8,5.1-18.5,5.1"/>
<path class="st7" d="M58.6,68.8c1.4-3,3.5-5.6,6.2-7.2c3-2.1,6.5-3.2,10.2-3.2c5.1,0,9.5,2.1,12.7,5.3C91,67,93,71.6,93,76.7"/>
<path class="st7" d="M66.4,92.7c-5.8-3-9.7-9-9.7-16"/>
<path class="st7" d="M92.8,80.2c-1.6,8.3-9,14.6-17.8,14.6"/>
<path class="st7" d="M119.4,128.1c-9.7,8.3-21.3,13.7-33.6,15.7"/>
<path class="st7" d="M141.4,61.9c3.7,16.9,1.2,35.4-9,51.4"/>
<path class="st7" d="M73.1,8.5c13.2-0.5,26.4,3,38.4,10.6c11.8,7.6,20.6,18.3,25.9,30.3"/>
<path class="st7" d="M17.6,40.2C28,23.7,44.5,13.3,62.3,9.8"/>
<path class="st7" d="M21.5,118.6c-15.3-19.2-19-45.8-9-68.7"/>
<path class="st7" d="M73.6,144.8c-12-0.2-24.3-3.7-35.2-10.6"/>
<path class="st7" d="M23.2,86.2c-1.6-9.3-0.9-18.7,2.3-27.5c3.5-9.7,9.7-18.5,18.7-25c11.8-8.6,25.9-11.3,39.1-9.3
	c13.2,2.1,25.7,9.5,34.2,21.3"/>
<path class="st7" d="M82.2,128.8c-18.7,2.5-38.2-5.1-49.8-21.5"/>
<path class="st7" d="M122.9,55.2c10,22.2,3.2,49.3-17.4,64.1"/>
</svg>
