<?xml version="1.0" encoding="utf-8"?>
<!-- Generator: Adobe Illustrator 23.0.3, SVG Export Plug-In . SVG Version: 6.00 Build 0)  -->
<svg version="1.1" id="Layer_1" xmlns="http://www.w3.org/2000/svg" xmlns:xlink="http://www.w3.org/1999/xlink" x="0px" y="0px"
	 viewBox="0 0 150 150" style="enable-background:new 0 0 150 150;" xml:space="preserve">
<style type="text/css">
	.st0{fill:none;stroke:#000000;stroke-miterlimit:10;}
	.st1{fill:#FFFFFF;}
	.st2{fill-rule:evenodd;clip-rule:evenodd;}
	.st3{fill:#606060;}
	.st4{fill:none;stroke:#000000;stroke-width:4;stroke-miterlimit:10;}
	.st5{fill:none;stroke:#606060;stroke-width:4;stroke-miterlimit:10;}
	.st6{fill:none;stroke:#606060;stroke-miterlimit:10;}
	.st7{fill:none;stroke:#000000;stroke-linecap:round;stroke-linejoin:round;stroke-miterlimit:10;stroke-dasharray:0,2;}
	.st8{fill:none;stroke:#000000;stroke-linecap:round;stroke-linejoin:round;stroke-miterlimit:10;stroke-dasharray:0,3;}
	.st9{fill:none;stroke:#000000;stroke-linecap:round;stroke-linejoin:round;stroke-miterlimit:10;stroke-dasharray:0,4;}
	
		.st10{fill:none;stroke:#000000;stroke-width:0.75;stroke-linecap:round;stroke-linejoin:round;stroke-miterlimit:10;stroke-dasharray:0,3;}
	.st11{fill:none;stroke:#000000;stroke-linecap:round;stroke-linejoin:round;stroke-dasharray:0,6.0252;}
</style>
<circle class="st8" cx="15.3" cy="75" r="10.8"/>
<circle class="st10" cx="133.5" cy="75" r="10.8"/>
<circle class="st8" cx="74.4" cy="15.9" r="10.8"/>
<circle class="st8" cx="74.4" cy="134.1" r="10.8"/>
<ellipse transform="matrix(0.9869 -0.1613 0.1613 0.9869 -4.9305 5.696)" class="st8" cx="32.6" cy="33.2" rx="10.8" ry="10.8"/>
<ellipse transform="matrix(0.9869 -0.1613 0.1613 0.9869 -11.1161 13.0805)" class="st8" cx="75" cy="75" rx="10.8" ry="10.8"/>
<ellipse transform="matrix(0.1013 -0.9949 0.9949 0.1013 -7.2093 142.0191)" class="st0" cx="75" cy="75" rx="20.1" ry="20.1"/>
<ellipse transform="matrix(0.9869 -0.1613 0.1613 0.9869 -17.3173 20.2718)" class="st8" cx="116.2" cy="116.8" rx="10.8" ry="10.8"/>
<ellipse transform="matrix(8.626841e-02 -0.9963 0.9963 8.626841e-02 73.0756 146.1021)" class="st8" cx="116.2" cy="33.2" rx="10.8" ry="10.8"/>
<ellipse transform="matrix(8.626842e-02 -0.9963 0.9963 8.626842e-02 -86.5496 139.2046)" class="st8" cx="32.6" cy="116.8" rx="10.8" ry="10.8"/>
</svg>
