<?xml version="1.0" encoding="utf-8"?>
<!-- Generator: Adobe Illustrator 23.0.3, SVG Export Plug-In . SVG Version: 6.00 Build 0)  -->
<svg version="1.1" id="Layer_1" xmlns="http://www.w3.org/2000/svg" xmlns:xlink="http://www.w3.org/1999/xlink" x="0px" y="0px"
	 viewBox="0 0 150 150" style="enable-background:new 0 0 150 150;" xml:space="preserve">
<style type="text/css">
	.st0{fill:none;stroke:#000000;stroke-miterlimit:10;}
	.st1{fill:#FFFFFF;}
	.st2{fill-rule:evenodd;clip-rule:evenodd;}
	.st3{fill:#606060;}
	.st4{fill:none;stroke:#000000;stroke-width:4;stroke-miterlimit:10;}
	.st5{fill:none;stroke:#606060;stroke-width:4;stroke-miterlimit:10;}
	.st6{fill:none;stroke:#606060;stroke-miterlimit:10;}
	.st7{fill:none;stroke:#000000;stroke-linecap:round;stroke-linejoin:round;stroke-miterlimit:10;stroke-dasharray:0,2;}
	.st8{fill:none;stroke:#000000;stroke-linecap:round;stroke-linejoin:round;stroke-miterlimit:10;stroke-dasharray:0,3;}
	.st9{fill:none;stroke:#000000;stroke-linecap:round;stroke-linejoin:round;stroke-miterlimit:10;stroke-dasharray:0,4;}
	
		.st10{fill:none;stroke:#000000;stroke-width:0.75;stroke-linecap:round;stroke-linejoin:round;stroke-miterlimit:10;stroke-dasharray:0,3;}
	.st11{fill:none;stroke:#000000;stroke-linecap:round;stroke-linejoin:round;stroke-dasharray:0,6.0252;}
</style>
<g>
	<circle class="st0" cx="75" cy="75" r="70"/>
	<polygon class="st0" points="86.5,55 63.5,55 52,75 63.5,95 86.5,95 98,75 	"/>
	<polygon class="st0" points="88.6,41.9 61.1,41.9 41.9,61.4 41.9,88.9 61.1,108.1 88.6,108.1 108.1,88.9 108.1,61.4 	"/>
	<polygon class="st0" points="88.9,23.3 61.1,23.3 36.9,37.2 23.1,61.1 23.1,88.9 36.9,113.1 61.1,126.9 88.9,126.9 112.8,113.1 
		126.7,88.9 126.7,61.1 112.8,37.2 	"/>
	<rect x="67.2" y="67.2" class="st0" width="15.7" height="15.7"/>
</g>
</svg>
